G75*
%MOIN*%
%OFA0B0*%
%FSLAX25Y25*%
%IPPOS*%
%LPD*%
%AMOC8*
5,1,8,0,0,1.08239X$1,22.5*
%
%ADD10C,0.00000*%
D10*
X0001000Y0016467D02*
X0001000Y0191742D01*
X0001003Y0191980D01*
X0001011Y0192218D01*
X0001026Y0192455D01*
X0001046Y0192692D01*
X0001072Y0192928D01*
X0001103Y0193164D01*
X0001140Y0193399D01*
X0001183Y0193633D01*
X0001232Y0193866D01*
X0001286Y0194098D01*
X0001346Y0194328D01*
X0001411Y0194557D01*
X0001482Y0194784D01*
X0001558Y0195009D01*
X0001640Y0195232D01*
X0001727Y0195454D01*
X0001819Y0195673D01*
X0001917Y0195890D01*
X0002019Y0196104D01*
X0002127Y0196316D01*
X0002241Y0196526D01*
X0002359Y0196732D01*
X0002482Y0196936D01*
X0002610Y0197136D01*
X0002742Y0197333D01*
X0002880Y0197528D01*
X0003022Y0197718D01*
X0003169Y0197906D01*
X0003320Y0198089D01*
X0003475Y0198269D01*
X0003635Y0198445D01*
X0003799Y0198617D01*
X0003968Y0198786D01*
X0004140Y0198950D01*
X0004316Y0199110D01*
X0004496Y0199265D01*
X0004679Y0199416D01*
X0004867Y0199563D01*
X0005057Y0199705D01*
X0005252Y0199843D01*
X0005449Y0199975D01*
X0005649Y0200103D01*
X0005853Y0200226D01*
X0006059Y0200344D01*
X0006269Y0200458D01*
X0006481Y0200566D01*
X0006695Y0200668D01*
X0006912Y0200766D01*
X0007131Y0200858D01*
X0007353Y0200945D01*
X0007576Y0201027D01*
X0007801Y0201103D01*
X0008028Y0201174D01*
X0008257Y0201239D01*
X0008487Y0201299D01*
X0008719Y0201353D01*
X0008952Y0201402D01*
X0009186Y0201445D01*
X0009421Y0201482D01*
X0009657Y0201513D01*
X0009893Y0201539D01*
X0010130Y0201559D01*
X0010367Y0201574D01*
X0010605Y0201582D01*
X0010843Y0201585D01*
X0127358Y0201585D01*
X0127596Y0201582D01*
X0127834Y0201574D01*
X0128071Y0201559D01*
X0128308Y0201539D01*
X0128544Y0201513D01*
X0128780Y0201482D01*
X0129015Y0201445D01*
X0129249Y0201402D01*
X0129482Y0201353D01*
X0129714Y0201299D01*
X0129944Y0201239D01*
X0130173Y0201174D01*
X0130400Y0201103D01*
X0130625Y0201027D01*
X0130848Y0200945D01*
X0131070Y0200858D01*
X0131289Y0200766D01*
X0131506Y0200668D01*
X0131720Y0200566D01*
X0131932Y0200458D01*
X0132142Y0200344D01*
X0132348Y0200226D01*
X0132552Y0200103D01*
X0132752Y0199975D01*
X0132949Y0199843D01*
X0133144Y0199705D01*
X0133334Y0199563D01*
X0133522Y0199416D01*
X0133705Y0199265D01*
X0133885Y0199110D01*
X0134061Y0198950D01*
X0134233Y0198786D01*
X0134402Y0198617D01*
X0134566Y0198445D01*
X0134726Y0198269D01*
X0134881Y0198089D01*
X0135032Y0197906D01*
X0135179Y0197718D01*
X0135321Y0197528D01*
X0135459Y0197333D01*
X0135591Y0197136D01*
X0135719Y0196936D01*
X0135842Y0196732D01*
X0135960Y0196526D01*
X0136074Y0196316D01*
X0136182Y0196104D01*
X0136284Y0195890D01*
X0136382Y0195673D01*
X0136474Y0195454D01*
X0136561Y0195232D01*
X0136643Y0195009D01*
X0136719Y0194784D01*
X0136790Y0194557D01*
X0136855Y0194328D01*
X0136915Y0194098D01*
X0136969Y0193866D01*
X0137018Y0193633D01*
X0137061Y0193399D01*
X0137098Y0193164D01*
X0137129Y0192928D01*
X0137155Y0192692D01*
X0137175Y0192455D01*
X0137190Y0192218D01*
X0137198Y0191980D01*
X0137201Y0191742D01*
X0137201Y0016467D01*
X0137198Y0016229D01*
X0137190Y0015991D01*
X0137175Y0015754D01*
X0137155Y0015517D01*
X0137129Y0015281D01*
X0137098Y0015045D01*
X0137061Y0014810D01*
X0137018Y0014576D01*
X0136969Y0014343D01*
X0136915Y0014111D01*
X0136855Y0013881D01*
X0136790Y0013652D01*
X0136719Y0013425D01*
X0136643Y0013200D01*
X0136561Y0012977D01*
X0136474Y0012755D01*
X0136382Y0012536D01*
X0136284Y0012319D01*
X0136182Y0012105D01*
X0136074Y0011893D01*
X0135960Y0011683D01*
X0135842Y0011477D01*
X0135719Y0011273D01*
X0135591Y0011073D01*
X0135459Y0010876D01*
X0135321Y0010681D01*
X0135179Y0010491D01*
X0135032Y0010303D01*
X0134881Y0010120D01*
X0134726Y0009940D01*
X0134566Y0009764D01*
X0134402Y0009592D01*
X0134233Y0009423D01*
X0134061Y0009259D01*
X0133885Y0009099D01*
X0133705Y0008944D01*
X0133522Y0008793D01*
X0133334Y0008646D01*
X0133144Y0008504D01*
X0132949Y0008366D01*
X0132752Y0008234D01*
X0132552Y0008106D01*
X0132348Y0007983D01*
X0132142Y0007865D01*
X0131932Y0007751D01*
X0131720Y0007643D01*
X0131506Y0007541D01*
X0131289Y0007443D01*
X0131070Y0007351D01*
X0130848Y0007264D01*
X0130625Y0007182D01*
X0130400Y0007106D01*
X0130173Y0007035D01*
X0129944Y0006970D01*
X0129714Y0006910D01*
X0129482Y0006856D01*
X0129249Y0006807D01*
X0129015Y0006764D01*
X0128780Y0006727D01*
X0128544Y0006696D01*
X0128308Y0006670D01*
X0128071Y0006650D01*
X0127834Y0006635D01*
X0127596Y0006627D01*
X0127358Y0006624D01*
X0010843Y0006624D01*
X0010605Y0006627D01*
X0010367Y0006635D01*
X0010130Y0006650D01*
X0009893Y0006670D01*
X0009657Y0006696D01*
X0009421Y0006727D01*
X0009186Y0006764D01*
X0008952Y0006807D01*
X0008719Y0006856D01*
X0008487Y0006910D01*
X0008257Y0006970D01*
X0008028Y0007035D01*
X0007801Y0007106D01*
X0007576Y0007182D01*
X0007353Y0007264D01*
X0007131Y0007351D01*
X0006912Y0007443D01*
X0006695Y0007541D01*
X0006481Y0007643D01*
X0006269Y0007751D01*
X0006059Y0007865D01*
X0005853Y0007983D01*
X0005649Y0008106D01*
X0005449Y0008234D01*
X0005252Y0008366D01*
X0005057Y0008504D01*
X0004867Y0008646D01*
X0004679Y0008793D01*
X0004496Y0008944D01*
X0004316Y0009099D01*
X0004140Y0009259D01*
X0003968Y0009423D01*
X0003799Y0009592D01*
X0003635Y0009764D01*
X0003475Y0009940D01*
X0003320Y0010120D01*
X0003169Y0010303D01*
X0003022Y0010491D01*
X0002880Y0010681D01*
X0002742Y0010876D01*
X0002610Y0011073D01*
X0002482Y0011273D01*
X0002359Y0011477D01*
X0002241Y0011683D01*
X0002127Y0011893D01*
X0002019Y0012105D01*
X0001917Y0012319D01*
X0001819Y0012536D01*
X0001727Y0012755D01*
X0001640Y0012977D01*
X0001558Y0013200D01*
X0001482Y0013425D01*
X0001411Y0013652D01*
X0001346Y0013881D01*
X0001286Y0014111D01*
X0001232Y0014343D01*
X0001183Y0014576D01*
X0001140Y0014810D01*
X0001103Y0015045D01*
X0001072Y0015281D01*
X0001046Y0015517D01*
X0001026Y0015754D01*
X0001011Y0015991D01*
X0001003Y0016229D01*
X0001000Y0016467D01*
X0108835Y0015423D02*
X0108837Y0015524D01*
X0108843Y0015625D01*
X0108853Y0015726D01*
X0108867Y0015826D01*
X0108885Y0015925D01*
X0108907Y0016024D01*
X0108932Y0016122D01*
X0108962Y0016219D01*
X0108995Y0016314D01*
X0109032Y0016408D01*
X0109073Y0016501D01*
X0109117Y0016592D01*
X0109165Y0016681D01*
X0109217Y0016768D01*
X0109272Y0016853D01*
X0109330Y0016935D01*
X0109391Y0017016D01*
X0109456Y0017094D01*
X0109523Y0017169D01*
X0109593Y0017241D01*
X0109667Y0017311D01*
X0109743Y0017378D01*
X0109821Y0017442D01*
X0109902Y0017502D01*
X0109985Y0017559D01*
X0110071Y0017613D01*
X0110159Y0017664D01*
X0110248Y0017711D01*
X0110339Y0017755D01*
X0110432Y0017794D01*
X0110527Y0017831D01*
X0110622Y0017863D01*
X0110719Y0017892D01*
X0110818Y0017916D01*
X0110916Y0017937D01*
X0111016Y0017954D01*
X0111116Y0017967D01*
X0111217Y0017976D01*
X0111318Y0017981D01*
X0111419Y0017982D01*
X0111520Y0017979D01*
X0111621Y0017972D01*
X0111722Y0017961D01*
X0111822Y0017946D01*
X0111921Y0017927D01*
X0112020Y0017904D01*
X0112117Y0017878D01*
X0112214Y0017847D01*
X0112309Y0017813D01*
X0112402Y0017775D01*
X0112495Y0017733D01*
X0112585Y0017688D01*
X0112674Y0017639D01*
X0112760Y0017587D01*
X0112844Y0017531D01*
X0112927Y0017472D01*
X0113006Y0017410D01*
X0113084Y0017345D01*
X0113158Y0017277D01*
X0113230Y0017205D01*
X0113299Y0017132D01*
X0113365Y0017055D01*
X0113428Y0016976D01*
X0113488Y0016894D01*
X0113544Y0016810D01*
X0113597Y0016724D01*
X0113647Y0016636D01*
X0113693Y0016546D01*
X0113736Y0016455D01*
X0113775Y0016361D01*
X0113810Y0016266D01*
X0113841Y0016170D01*
X0113869Y0016073D01*
X0113893Y0015975D01*
X0113913Y0015876D01*
X0113929Y0015776D01*
X0113941Y0015675D01*
X0113949Y0015575D01*
X0113953Y0015474D01*
X0113953Y0015372D01*
X0113949Y0015271D01*
X0113941Y0015171D01*
X0113929Y0015070D01*
X0113913Y0014970D01*
X0113893Y0014871D01*
X0113869Y0014773D01*
X0113841Y0014676D01*
X0113810Y0014580D01*
X0113775Y0014485D01*
X0113736Y0014391D01*
X0113693Y0014300D01*
X0113647Y0014210D01*
X0113597Y0014122D01*
X0113544Y0014036D01*
X0113488Y0013952D01*
X0113428Y0013870D01*
X0113365Y0013791D01*
X0113299Y0013714D01*
X0113230Y0013641D01*
X0113158Y0013569D01*
X0113084Y0013501D01*
X0113006Y0013436D01*
X0112927Y0013374D01*
X0112844Y0013315D01*
X0112760Y0013259D01*
X0112673Y0013207D01*
X0112585Y0013158D01*
X0112495Y0013113D01*
X0112402Y0013071D01*
X0112309Y0013033D01*
X0112214Y0012999D01*
X0112117Y0012968D01*
X0112020Y0012942D01*
X0111921Y0012919D01*
X0111822Y0012900D01*
X0111722Y0012885D01*
X0111621Y0012874D01*
X0111520Y0012867D01*
X0111419Y0012864D01*
X0111318Y0012865D01*
X0111217Y0012870D01*
X0111116Y0012879D01*
X0111016Y0012892D01*
X0110916Y0012909D01*
X0110818Y0012930D01*
X0110719Y0012954D01*
X0110622Y0012983D01*
X0110527Y0013015D01*
X0110432Y0013052D01*
X0110339Y0013091D01*
X0110248Y0013135D01*
X0110159Y0013182D01*
X0110071Y0013233D01*
X0109985Y0013287D01*
X0109902Y0013344D01*
X0109821Y0013404D01*
X0109743Y0013468D01*
X0109667Y0013535D01*
X0109593Y0013605D01*
X0109523Y0013677D01*
X0109456Y0013752D01*
X0109391Y0013830D01*
X0109330Y0013911D01*
X0109272Y0013993D01*
X0109217Y0014078D01*
X0109165Y0014165D01*
X0109117Y0014254D01*
X0109073Y0014345D01*
X0109032Y0014438D01*
X0108995Y0014532D01*
X0108962Y0014627D01*
X0108932Y0014724D01*
X0108907Y0014822D01*
X0108885Y0014921D01*
X0108867Y0015020D01*
X0108853Y0015120D01*
X0108843Y0015221D01*
X0108837Y0015322D01*
X0108835Y0015423D01*
X0108835Y0042982D02*
X0108837Y0043083D01*
X0108843Y0043184D01*
X0108853Y0043285D01*
X0108867Y0043385D01*
X0108885Y0043484D01*
X0108907Y0043583D01*
X0108932Y0043681D01*
X0108962Y0043778D01*
X0108995Y0043873D01*
X0109032Y0043967D01*
X0109073Y0044060D01*
X0109117Y0044151D01*
X0109165Y0044240D01*
X0109217Y0044327D01*
X0109272Y0044412D01*
X0109330Y0044494D01*
X0109391Y0044575D01*
X0109456Y0044653D01*
X0109523Y0044728D01*
X0109593Y0044800D01*
X0109667Y0044870D01*
X0109743Y0044937D01*
X0109821Y0045001D01*
X0109902Y0045061D01*
X0109985Y0045118D01*
X0110071Y0045172D01*
X0110159Y0045223D01*
X0110248Y0045270D01*
X0110339Y0045314D01*
X0110432Y0045353D01*
X0110527Y0045390D01*
X0110622Y0045422D01*
X0110719Y0045451D01*
X0110818Y0045475D01*
X0110916Y0045496D01*
X0111016Y0045513D01*
X0111116Y0045526D01*
X0111217Y0045535D01*
X0111318Y0045540D01*
X0111419Y0045541D01*
X0111520Y0045538D01*
X0111621Y0045531D01*
X0111722Y0045520D01*
X0111822Y0045505D01*
X0111921Y0045486D01*
X0112020Y0045463D01*
X0112117Y0045437D01*
X0112214Y0045406D01*
X0112309Y0045372D01*
X0112402Y0045334D01*
X0112495Y0045292D01*
X0112585Y0045247D01*
X0112674Y0045198D01*
X0112760Y0045146D01*
X0112844Y0045090D01*
X0112927Y0045031D01*
X0113006Y0044969D01*
X0113084Y0044904D01*
X0113158Y0044836D01*
X0113230Y0044764D01*
X0113299Y0044691D01*
X0113365Y0044614D01*
X0113428Y0044535D01*
X0113488Y0044453D01*
X0113544Y0044369D01*
X0113597Y0044283D01*
X0113647Y0044195D01*
X0113693Y0044105D01*
X0113736Y0044014D01*
X0113775Y0043920D01*
X0113810Y0043825D01*
X0113841Y0043729D01*
X0113869Y0043632D01*
X0113893Y0043534D01*
X0113913Y0043435D01*
X0113929Y0043335D01*
X0113941Y0043234D01*
X0113949Y0043134D01*
X0113953Y0043033D01*
X0113953Y0042931D01*
X0113949Y0042830D01*
X0113941Y0042730D01*
X0113929Y0042629D01*
X0113913Y0042529D01*
X0113893Y0042430D01*
X0113869Y0042332D01*
X0113841Y0042235D01*
X0113810Y0042139D01*
X0113775Y0042044D01*
X0113736Y0041950D01*
X0113693Y0041859D01*
X0113647Y0041769D01*
X0113597Y0041681D01*
X0113544Y0041595D01*
X0113488Y0041511D01*
X0113428Y0041429D01*
X0113365Y0041350D01*
X0113299Y0041273D01*
X0113230Y0041200D01*
X0113158Y0041128D01*
X0113084Y0041060D01*
X0113006Y0040995D01*
X0112927Y0040933D01*
X0112844Y0040874D01*
X0112760Y0040818D01*
X0112673Y0040766D01*
X0112585Y0040717D01*
X0112495Y0040672D01*
X0112402Y0040630D01*
X0112309Y0040592D01*
X0112214Y0040558D01*
X0112117Y0040527D01*
X0112020Y0040501D01*
X0111921Y0040478D01*
X0111822Y0040459D01*
X0111722Y0040444D01*
X0111621Y0040433D01*
X0111520Y0040426D01*
X0111419Y0040423D01*
X0111318Y0040424D01*
X0111217Y0040429D01*
X0111116Y0040438D01*
X0111016Y0040451D01*
X0110916Y0040468D01*
X0110818Y0040489D01*
X0110719Y0040513D01*
X0110622Y0040542D01*
X0110527Y0040574D01*
X0110432Y0040611D01*
X0110339Y0040650D01*
X0110248Y0040694D01*
X0110159Y0040741D01*
X0110071Y0040792D01*
X0109985Y0040846D01*
X0109902Y0040903D01*
X0109821Y0040963D01*
X0109743Y0041027D01*
X0109667Y0041094D01*
X0109593Y0041164D01*
X0109523Y0041236D01*
X0109456Y0041311D01*
X0109391Y0041389D01*
X0109330Y0041470D01*
X0109272Y0041552D01*
X0109217Y0041637D01*
X0109165Y0041724D01*
X0109117Y0041813D01*
X0109073Y0041904D01*
X0109032Y0041997D01*
X0108995Y0042091D01*
X0108962Y0042186D01*
X0108932Y0042283D01*
X0108907Y0042381D01*
X0108885Y0042480D01*
X0108867Y0042579D01*
X0108853Y0042679D01*
X0108843Y0042780D01*
X0108837Y0042881D01*
X0108835Y0042982D01*
X0115094Y0075463D02*
X0115096Y0075551D01*
X0115102Y0075639D01*
X0115112Y0075727D01*
X0115126Y0075815D01*
X0115143Y0075901D01*
X0115165Y0075987D01*
X0115190Y0076071D01*
X0115220Y0076155D01*
X0115252Y0076237D01*
X0115289Y0076317D01*
X0115329Y0076396D01*
X0115373Y0076473D01*
X0115420Y0076548D01*
X0115470Y0076620D01*
X0115524Y0076691D01*
X0115580Y0076758D01*
X0115640Y0076824D01*
X0115702Y0076886D01*
X0115768Y0076946D01*
X0115835Y0077002D01*
X0115906Y0077056D01*
X0115978Y0077106D01*
X0116053Y0077153D01*
X0116130Y0077197D01*
X0116209Y0077237D01*
X0116289Y0077274D01*
X0116371Y0077306D01*
X0116455Y0077336D01*
X0116539Y0077361D01*
X0116625Y0077383D01*
X0116711Y0077400D01*
X0116799Y0077414D01*
X0116887Y0077424D01*
X0116975Y0077430D01*
X0117063Y0077432D01*
X0117151Y0077430D01*
X0117239Y0077424D01*
X0117327Y0077414D01*
X0117415Y0077400D01*
X0117501Y0077383D01*
X0117587Y0077361D01*
X0117671Y0077336D01*
X0117755Y0077306D01*
X0117837Y0077274D01*
X0117917Y0077237D01*
X0117996Y0077197D01*
X0118073Y0077153D01*
X0118148Y0077106D01*
X0118220Y0077056D01*
X0118291Y0077002D01*
X0118358Y0076946D01*
X0118424Y0076886D01*
X0118486Y0076824D01*
X0118546Y0076758D01*
X0118602Y0076691D01*
X0118656Y0076620D01*
X0118706Y0076548D01*
X0118753Y0076473D01*
X0118797Y0076396D01*
X0118837Y0076317D01*
X0118874Y0076237D01*
X0118906Y0076155D01*
X0118936Y0076071D01*
X0118961Y0075987D01*
X0118983Y0075901D01*
X0119000Y0075815D01*
X0119014Y0075727D01*
X0119024Y0075639D01*
X0119030Y0075551D01*
X0119032Y0075463D01*
X0119030Y0075375D01*
X0119024Y0075287D01*
X0119014Y0075199D01*
X0119000Y0075111D01*
X0118983Y0075025D01*
X0118961Y0074939D01*
X0118936Y0074855D01*
X0118906Y0074771D01*
X0118874Y0074689D01*
X0118837Y0074609D01*
X0118797Y0074530D01*
X0118753Y0074453D01*
X0118706Y0074378D01*
X0118656Y0074306D01*
X0118602Y0074235D01*
X0118546Y0074168D01*
X0118486Y0074102D01*
X0118424Y0074040D01*
X0118358Y0073980D01*
X0118291Y0073924D01*
X0118220Y0073870D01*
X0118148Y0073820D01*
X0118073Y0073773D01*
X0117996Y0073729D01*
X0117917Y0073689D01*
X0117837Y0073652D01*
X0117755Y0073620D01*
X0117671Y0073590D01*
X0117587Y0073565D01*
X0117501Y0073543D01*
X0117415Y0073526D01*
X0117327Y0073512D01*
X0117239Y0073502D01*
X0117151Y0073496D01*
X0117063Y0073494D01*
X0116975Y0073496D01*
X0116887Y0073502D01*
X0116799Y0073512D01*
X0116711Y0073526D01*
X0116625Y0073543D01*
X0116539Y0073565D01*
X0116455Y0073590D01*
X0116371Y0073620D01*
X0116289Y0073652D01*
X0116209Y0073689D01*
X0116130Y0073729D01*
X0116053Y0073773D01*
X0115978Y0073820D01*
X0115906Y0073870D01*
X0115835Y0073924D01*
X0115768Y0073980D01*
X0115702Y0074040D01*
X0115640Y0074102D01*
X0115580Y0074168D01*
X0115524Y0074235D01*
X0115470Y0074306D01*
X0115420Y0074378D01*
X0115373Y0074453D01*
X0115329Y0074530D01*
X0115289Y0074609D01*
X0115252Y0074689D01*
X0115220Y0074771D01*
X0115190Y0074855D01*
X0115165Y0074939D01*
X0115143Y0075025D01*
X0115126Y0075111D01*
X0115112Y0075199D01*
X0115102Y0075287D01*
X0115096Y0075375D01*
X0115094Y0075463D01*
X0115094Y0092785D02*
X0115096Y0092873D01*
X0115102Y0092961D01*
X0115112Y0093049D01*
X0115126Y0093137D01*
X0115143Y0093223D01*
X0115165Y0093309D01*
X0115190Y0093393D01*
X0115220Y0093477D01*
X0115252Y0093559D01*
X0115289Y0093639D01*
X0115329Y0093718D01*
X0115373Y0093795D01*
X0115420Y0093870D01*
X0115470Y0093942D01*
X0115524Y0094013D01*
X0115580Y0094080D01*
X0115640Y0094146D01*
X0115702Y0094208D01*
X0115768Y0094268D01*
X0115835Y0094324D01*
X0115906Y0094378D01*
X0115978Y0094428D01*
X0116053Y0094475D01*
X0116130Y0094519D01*
X0116209Y0094559D01*
X0116289Y0094596D01*
X0116371Y0094628D01*
X0116455Y0094658D01*
X0116539Y0094683D01*
X0116625Y0094705D01*
X0116711Y0094722D01*
X0116799Y0094736D01*
X0116887Y0094746D01*
X0116975Y0094752D01*
X0117063Y0094754D01*
X0117151Y0094752D01*
X0117239Y0094746D01*
X0117327Y0094736D01*
X0117415Y0094722D01*
X0117501Y0094705D01*
X0117587Y0094683D01*
X0117671Y0094658D01*
X0117755Y0094628D01*
X0117837Y0094596D01*
X0117917Y0094559D01*
X0117996Y0094519D01*
X0118073Y0094475D01*
X0118148Y0094428D01*
X0118220Y0094378D01*
X0118291Y0094324D01*
X0118358Y0094268D01*
X0118424Y0094208D01*
X0118486Y0094146D01*
X0118546Y0094080D01*
X0118602Y0094013D01*
X0118656Y0093942D01*
X0118706Y0093870D01*
X0118753Y0093795D01*
X0118797Y0093718D01*
X0118837Y0093639D01*
X0118874Y0093559D01*
X0118906Y0093477D01*
X0118936Y0093393D01*
X0118961Y0093309D01*
X0118983Y0093223D01*
X0119000Y0093137D01*
X0119014Y0093049D01*
X0119024Y0092961D01*
X0119030Y0092873D01*
X0119032Y0092785D01*
X0119030Y0092697D01*
X0119024Y0092609D01*
X0119014Y0092521D01*
X0119000Y0092433D01*
X0118983Y0092347D01*
X0118961Y0092261D01*
X0118936Y0092177D01*
X0118906Y0092093D01*
X0118874Y0092011D01*
X0118837Y0091931D01*
X0118797Y0091852D01*
X0118753Y0091775D01*
X0118706Y0091700D01*
X0118656Y0091628D01*
X0118602Y0091557D01*
X0118546Y0091490D01*
X0118486Y0091424D01*
X0118424Y0091362D01*
X0118358Y0091302D01*
X0118291Y0091246D01*
X0118220Y0091192D01*
X0118148Y0091142D01*
X0118073Y0091095D01*
X0117996Y0091051D01*
X0117917Y0091011D01*
X0117837Y0090974D01*
X0117755Y0090942D01*
X0117671Y0090912D01*
X0117587Y0090887D01*
X0117501Y0090865D01*
X0117415Y0090848D01*
X0117327Y0090834D01*
X0117239Y0090824D01*
X0117151Y0090818D01*
X0117063Y0090816D01*
X0116975Y0090818D01*
X0116887Y0090824D01*
X0116799Y0090834D01*
X0116711Y0090848D01*
X0116625Y0090865D01*
X0116539Y0090887D01*
X0116455Y0090912D01*
X0116371Y0090942D01*
X0116289Y0090974D01*
X0116209Y0091011D01*
X0116130Y0091051D01*
X0116053Y0091095D01*
X0115978Y0091142D01*
X0115906Y0091192D01*
X0115835Y0091246D01*
X0115768Y0091302D01*
X0115702Y0091362D01*
X0115640Y0091424D01*
X0115580Y0091490D01*
X0115524Y0091557D01*
X0115470Y0091628D01*
X0115420Y0091700D01*
X0115373Y0091775D01*
X0115329Y0091852D01*
X0115289Y0091931D01*
X0115252Y0092011D01*
X0115220Y0092093D01*
X0115190Y0092177D01*
X0115165Y0092261D01*
X0115143Y0092347D01*
X0115126Y0092433D01*
X0115112Y0092521D01*
X0115102Y0092609D01*
X0115096Y0092697D01*
X0115094Y0092785D01*
M02*
