%
M48
M72
T01C0.01575
T02C0.02362
T03C0.03150
T04C0.03200
T05C0.03937
T06C0.04000
T07C0.05118
%
T01
X128500Y21624
X128500Y26624
X128500Y31624
X128500Y36624
X123500Y36624
X123500Y31624
X123500Y26624
X123500Y21624
X23500Y26624
X23500Y31624
X31000Y41624
X23500Y51624
X28500Y96624
X28500Y101624
X33500Y101624
X33500Y96624
X38500Y116624
X48500Y134124
X56000Y154124
X58500Y171624
X63500Y179124
X68500Y179124
X66000Y194124
X71000Y194124
X76000Y194124
X86000Y191624
X88500Y181624
X91000Y174124
X101000Y156624
X101000Y149124
X98500Y141624
X106000Y121624
X116000Y104124
X108500Y34124
X86000Y21624
X76000Y34124
X71000Y36624
X51000Y51624
X51000Y16624
X91000Y84124
X91000Y89124
X91000Y111624
X76000Y109124
X76000Y104124
X76000Y99124
X76000Y94124
X71000Y94124
X71000Y99124
X71000Y104124
X71000Y109124
X66000Y109124
X66000Y104124
X33500Y144124
X33500Y149124
X33500Y154124
X28500Y154124
X28500Y149124
X28500Y144124
X28500Y161624
X31000Y169124
X23500Y184124
X21000Y171624
X23500Y196624
X11000Y134124
X103500Y171624
X126000Y146624
X128500Y189124
T02
X61000Y146624
X68500Y141624
X81000Y161624
X73500Y179124
X83500Y141624
T03
X38500Y22687
X38500Y30561
T04
X86000Y94124
X86000Y104124
X123500Y114124
X123500Y124124
T05
X117063Y75463
X117063Y92785
T06
X11000Y144124
X11000Y154124
X11000Y164124
X11000Y174124
X11000Y184124
X11000Y194124
T07
X111394Y15423
X111394Y42982
M30
