G75*
%MOIN*%
%OFA0B0*%
%FSLAX25Y25*%
%IPPOS*%
%LPD*%
%AMOC8*
5,1,8,0,0,1.08239X$1,22.5*
%
%ADD10C,0.00000*%
%ADD11C,0.05600*%
%ADD12R,0.03150X0.04724*%
%ADD13R,0.04724X0.03150*%
%ADD14C,0.07400*%
%ADD15C,0.07400*%
%ADD16R,0.06299X0.05118*%
%ADD17R,0.05118X0.06299*%
%ADD18R,0.11811X0.04724*%
%ADD19R,0.04724X0.11811*%
%ADD20C,0.02500*%
%ADD21R,0.10000X0.02500*%
%ADD22R,0.03937X0.03740*%
%ADD23C,0.01969*%
%ADD24C,0.03562*%
%ADD25C,0.02775*%
%ADD26C,0.01181*%
%ADD27C,0.00984*%
D10*
X0001000Y0016467D02*
X0001000Y0191742D01*
X0001003Y0191980D01*
X0001011Y0192218D01*
X0001026Y0192455D01*
X0001046Y0192692D01*
X0001072Y0192928D01*
X0001103Y0193164D01*
X0001140Y0193399D01*
X0001183Y0193633D01*
X0001232Y0193866D01*
X0001286Y0194098D01*
X0001346Y0194328D01*
X0001411Y0194557D01*
X0001482Y0194784D01*
X0001558Y0195009D01*
X0001640Y0195232D01*
X0001727Y0195454D01*
X0001819Y0195673D01*
X0001917Y0195890D01*
X0002019Y0196104D01*
X0002127Y0196316D01*
X0002241Y0196526D01*
X0002359Y0196732D01*
X0002482Y0196936D01*
X0002610Y0197136D01*
X0002742Y0197333D01*
X0002880Y0197528D01*
X0003022Y0197718D01*
X0003169Y0197906D01*
X0003320Y0198089D01*
X0003475Y0198269D01*
X0003635Y0198445D01*
X0003799Y0198617D01*
X0003968Y0198786D01*
X0004140Y0198950D01*
X0004316Y0199110D01*
X0004496Y0199265D01*
X0004679Y0199416D01*
X0004867Y0199563D01*
X0005057Y0199705D01*
X0005252Y0199843D01*
X0005449Y0199975D01*
X0005649Y0200103D01*
X0005853Y0200226D01*
X0006059Y0200344D01*
X0006269Y0200458D01*
X0006481Y0200566D01*
X0006695Y0200668D01*
X0006912Y0200766D01*
X0007131Y0200858D01*
X0007353Y0200945D01*
X0007576Y0201027D01*
X0007801Y0201103D01*
X0008028Y0201174D01*
X0008257Y0201239D01*
X0008487Y0201299D01*
X0008719Y0201353D01*
X0008952Y0201402D01*
X0009186Y0201445D01*
X0009421Y0201482D01*
X0009657Y0201513D01*
X0009893Y0201539D01*
X0010130Y0201559D01*
X0010367Y0201574D01*
X0010605Y0201582D01*
X0010843Y0201585D01*
X0127358Y0201585D01*
X0127596Y0201582D01*
X0127834Y0201574D01*
X0128071Y0201559D01*
X0128308Y0201539D01*
X0128544Y0201513D01*
X0128780Y0201482D01*
X0129015Y0201445D01*
X0129249Y0201402D01*
X0129482Y0201353D01*
X0129714Y0201299D01*
X0129944Y0201239D01*
X0130173Y0201174D01*
X0130400Y0201103D01*
X0130625Y0201027D01*
X0130848Y0200945D01*
X0131070Y0200858D01*
X0131289Y0200766D01*
X0131506Y0200668D01*
X0131720Y0200566D01*
X0131932Y0200458D01*
X0132142Y0200344D01*
X0132348Y0200226D01*
X0132552Y0200103D01*
X0132752Y0199975D01*
X0132949Y0199843D01*
X0133144Y0199705D01*
X0133334Y0199563D01*
X0133522Y0199416D01*
X0133705Y0199265D01*
X0133885Y0199110D01*
X0134061Y0198950D01*
X0134233Y0198786D01*
X0134402Y0198617D01*
X0134566Y0198445D01*
X0134726Y0198269D01*
X0134881Y0198089D01*
X0135032Y0197906D01*
X0135179Y0197718D01*
X0135321Y0197528D01*
X0135459Y0197333D01*
X0135591Y0197136D01*
X0135719Y0196936D01*
X0135842Y0196732D01*
X0135960Y0196526D01*
X0136074Y0196316D01*
X0136182Y0196104D01*
X0136284Y0195890D01*
X0136382Y0195673D01*
X0136474Y0195454D01*
X0136561Y0195232D01*
X0136643Y0195009D01*
X0136719Y0194784D01*
X0136790Y0194557D01*
X0136855Y0194328D01*
X0136915Y0194098D01*
X0136969Y0193866D01*
X0137018Y0193633D01*
X0137061Y0193399D01*
X0137098Y0193164D01*
X0137129Y0192928D01*
X0137155Y0192692D01*
X0137175Y0192455D01*
X0137190Y0192218D01*
X0137198Y0191980D01*
X0137201Y0191742D01*
X0137201Y0016467D01*
X0137198Y0016229D01*
X0137190Y0015991D01*
X0137175Y0015754D01*
X0137155Y0015517D01*
X0137129Y0015281D01*
X0137098Y0015045D01*
X0137061Y0014810D01*
X0137018Y0014576D01*
X0136969Y0014343D01*
X0136915Y0014111D01*
X0136855Y0013881D01*
X0136790Y0013652D01*
X0136719Y0013425D01*
X0136643Y0013200D01*
X0136561Y0012977D01*
X0136474Y0012755D01*
X0136382Y0012536D01*
X0136284Y0012319D01*
X0136182Y0012105D01*
X0136074Y0011893D01*
X0135960Y0011683D01*
X0135842Y0011477D01*
X0135719Y0011273D01*
X0135591Y0011073D01*
X0135459Y0010876D01*
X0135321Y0010681D01*
X0135179Y0010491D01*
X0135032Y0010303D01*
X0134881Y0010120D01*
X0134726Y0009940D01*
X0134566Y0009764D01*
X0134402Y0009592D01*
X0134233Y0009423D01*
X0134061Y0009259D01*
X0133885Y0009099D01*
X0133705Y0008944D01*
X0133522Y0008793D01*
X0133334Y0008646D01*
X0133144Y0008504D01*
X0132949Y0008366D01*
X0132752Y0008234D01*
X0132552Y0008106D01*
X0132348Y0007983D01*
X0132142Y0007865D01*
X0131932Y0007751D01*
X0131720Y0007643D01*
X0131506Y0007541D01*
X0131289Y0007443D01*
X0131070Y0007351D01*
X0130848Y0007264D01*
X0130625Y0007182D01*
X0130400Y0007106D01*
X0130173Y0007035D01*
X0129944Y0006970D01*
X0129714Y0006910D01*
X0129482Y0006856D01*
X0129249Y0006807D01*
X0129015Y0006764D01*
X0128780Y0006727D01*
X0128544Y0006696D01*
X0128308Y0006670D01*
X0128071Y0006650D01*
X0127834Y0006635D01*
X0127596Y0006627D01*
X0127358Y0006624D01*
X0010843Y0006624D01*
X0010605Y0006627D01*
X0010367Y0006635D01*
X0010130Y0006650D01*
X0009893Y0006670D01*
X0009657Y0006696D01*
X0009421Y0006727D01*
X0009186Y0006764D01*
X0008952Y0006807D01*
X0008719Y0006856D01*
X0008487Y0006910D01*
X0008257Y0006970D01*
X0008028Y0007035D01*
X0007801Y0007106D01*
X0007576Y0007182D01*
X0007353Y0007264D01*
X0007131Y0007351D01*
X0006912Y0007443D01*
X0006695Y0007541D01*
X0006481Y0007643D01*
X0006269Y0007751D01*
X0006059Y0007865D01*
X0005853Y0007983D01*
X0005649Y0008106D01*
X0005449Y0008234D01*
X0005252Y0008366D01*
X0005057Y0008504D01*
X0004867Y0008646D01*
X0004679Y0008793D01*
X0004496Y0008944D01*
X0004316Y0009099D01*
X0004140Y0009259D01*
X0003968Y0009423D01*
X0003799Y0009592D01*
X0003635Y0009764D01*
X0003475Y0009940D01*
X0003320Y0010120D01*
X0003169Y0010303D01*
X0003022Y0010491D01*
X0002880Y0010681D01*
X0002742Y0010876D01*
X0002610Y0011073D01*
X0002482Y0011273D01*
X0002359Y0011477D01*
X0002241Y0011683D01*
X0002127Y0011893D01*
X0002019Y0012105D01*
X0001917Y0012319D01*
X0001819Y0012536D01*
X0001727Y0012755D01*
X0001640Y0012977D01*
X0001558Y0013200D01*
X0001482Y0013425D01*
X0001411Y0013652D01*
X0001346Y0013881D01*
X0001286Y0014111D01*
X0001232Y0014343D01*
X0001183Y0014576D01*
X0001140Y0014810D01*
X0001103Y0015045D01*
X0001072Y0015281D01*
X0001046Y0015517D01*
X0001026Y0015754D01*
X0001011Y0015991D01*
X0001003Y0016229D01*
X0001000Y0016467D01*
X0108835Y0015423D02*
X0108837Y0015524D01*
X0108843Y0015625D01*
X0108853Y0015726D01*
X0108867Y0015826D01*
X0108885Y0015925D01*
X0108907Y0016024D01*
X0108932Y0016122D01*
X0108962Y0016219D01*
X0108995Y0016314D01*
X0109032Y0016408D01*
X0109073Y0016501D01*
X0109117Y0016592D01*
X0109165Y0016681D01*
X0109217Y0016768D01*
X0109272Y0016853D01*
X0109330Y0016935D01*
X0109391Y0017016D01*
X0109456Y0017094D01*
X0109523Y0017169D01*
X0109593Y0017241D01*
X0109667Y0017311D01*
X0109743Y0017378D01*
X0109821Y0017442D01*
X0109902Y0017502D01*
X0109985Y0017559D01*
X0110071Y0017613D01*
X0110159Y0017664D01*
X0110248Y0017711D01*
X0110339Y0017755D01*
X0110432Y0017794D01*
X0110527Y0017831D01*
X0110622Y0017863D01*
X0110719Y0017892D01*
X0110818Y0017916D01*
X0110916Y0017937D01*
X0111016Y0017954D01*
X0111116Y0017967D01*
X0111217Y0017976D01*
X0111318Y0017981D01*
X0111419Y0017982D01*
X0111520Y0017979D01*
X0111621Y0017972D01*
X0111722Y0017961D01*
X0111822Y0017946D01*
X0111921Y0017927D01*
X0112020Y0017904D01*
X0112117Y0017878D01*
X0112214Y0017847D01*
X0112309Y0017813D01*
X0112402Y0017775D01*
X0112495Y0017733D01*
X0112585Y0017688D01*
X0112674Y0017639D01*
X0112760Y0017587D01*
X0112844Y0017531D01*
X0112927Y0017472D01*
X0113006Y0017410D01*
X0113084Y0017345D01*
X0113158Y0017277D01*
X0113230Y0017205D01*
X0113299Y0017132D01*
X0113365Y0017055D01*
X0113428Y0016976D01*
X0113488Y0016894D01*
X0113544Y0016810D01*
X0113597Y0016724D01*
X0113647Y0016636D01*
X0113693Y0016546D01*
X0113736Y0016455D01*
X0113775Y0016361D01*
X0113810Y0016266D01*
X0113841Y0016170D01*
X0113869Y0016073D01*
X0113893Y0015975D01*
X0113913Y0015876D01*
X0113929Y0015776D01*
X0113941Y0015675D01*
X0113949Y0015575D01*
X0113953Y0015474D01*
X0113953Y0015372D01*
X0113949Y0015271D01*
X0113941Y0015171D01*
X0113929Y0015070D01*
X0113913Y0014970D01*
X0113893Y0014871D01*
X0113869Y0014773D01*
X0113841Y0014676D01*
X0113810Y0014580D01*
X0113775Y0014485D01*
X0113736Y0014391D01*
X0113693Y0014300D01*
X0113647Y0014210D01*
X0113597Y0014122D01*
X0113544Y0014036D01*
X0113488Y0013952D01*
X0113428Y0013870D01*
X0113365Y0013791D01*
X0113299Y0013714D01*
X0113230Y0013641D01*
X0113158Y0013569D01*
X0113084Y0013501D01*
X0113006Y0013436D01*
X0112927Y0013374D01*
X0112844Y0013315D01*
X0112760Y0013259D01*
X0112673Y0013207D01*
X0112585Y0013158D01*
X0112495Y0013113D01*
X0112402Y0013071D01*
X0112309Y0013033D01*
X0112214Y0012999D01*
X0112117Y0012968D01*
X0112020Y0012942D01*
X0111921Y0012919D01*
X0111822Y0012900D01*
X0111722Y0012885D01*
X0111621Y0012874D01*
X0111520Y0012867D01*
X0111419Y0012864D01*
X0111318Y0012865D01*
X0111217Y0012870D01*
X0111116Y0012879D01*
X0111016Y0012892D01*
X0110916Y0012909D01*
X0110818Y0012930D01*
X0110719Y0012954D01*
X0110622Y0012983D01*
X0110527Y0013015D01*
X0110432Y0013052D01*
X0110339Y0013091D01*
X0110248Y0013135D01*
X0110159Y0013182D01*
X0110071Y0013233D01*
X0109985Y0013287D01*
X0109902Y0013344D01*
X0109821Y0013404D01*
X0109743Y0013468D01*
X0109667Y0013535D01*
X0109593Y0013605D01*
X0109523Y0013677D01*
X0109456Y0013752D01*
X0109391Y0013830D01*
X0109330Y0013911D01*
X0109272Y0013993D01*
X0109217Y0014078D01*
X0109165Y0014165D01*
X0109117Y0014254D01*
X0109073Y0014345D01*
X0109032Y0014438D01*
X0108995Y0014532D01*
X0108962Y0014627D01*
X0108932Y0014724D01*
X0108907Y0014822D01*
X0108885Y0014921D01*
X0108867Y0015020D01*
X0108853Y0015120D01*
X0108843Y0015221D01*
X0108837Y0015322D01*
X0108835Y0015423D01*
X0108835Y0042982D02*
X0108837Y0043083D01*
X0108843Y0043184D01*
X0108853Y0043285D01*
X0108867Y0043385D01*
X0108885Y0043484D01*
X0108907Y0043583D01*
X0108932Y0043681D01*
X0108962Y0043778D01*
X0108995Y0043873D01*
X0109032Y0043967D01*
X0109073Y0044060D01*
X0109117Y0044151D01*
X0109165Y0044240D01*
X0109217Y0044327D01*
X0109272Y0044412D01*
X0109330Y0044494D01*
X0109391Y0044575D01*
X0109456Y0044653D01*
X0109523Y0044728D01*
X0109593Y0044800D01*
X0109667Y0044870D01*
X0109743Y0044937D01*
X0109821Y0045001D01*
X0109902Y0045061D01*
X0109985Y0045118D01*
X0110071Y0045172D01*
X0110159Y0045223D01*
X0110248Y0045270D01*
X0110339Y0045314D01*
X0110432Y0045353D01*
X0110527Y0045390D01*
X0110622Y0045422D01*
X0110719Y0045451D01*
X0110818Y0045475D01*
X0110916Y0045496D01*
X0111016Y0045513D01*
X0111116Y0045526D01*
X0111217Y0045535D01*
X0111318Y0045540D01*
X0111419Y0045541D01*
X0111520Y0045538D01*
X0111621Y0045531D01*
X0111722Y0045520D01*
X0111822Y0045505D01*
X0111921Y0045486D01*
X0112020Y0045463D01*
X0112117Y0045437D01*
X0112214Y0045406D01*
X0112309Y0045372D01*
X0112402Y0045334D01*
X0112495Y0045292D01*
X0112585Y0045247D01*
X0112674Y0045198D01*
X0112760Y0045146D01*
X0112844Y0045090D01*
X0112927Y0045031D01*
X0113006Y0044969D01*
X0113084Y0044904D01*
X0113158Y0044836D01*
X0113230Y0044764D01*
X0113299Y0044691D01*
X0113365Y0044614D01*
X0113428Y0044535D01*
X0113488Y0044453D01*
X0113544Y0044369D01*
X0113597Y0044283D01*
X0113647Y0044195D01*
X0113693Y0044105D01*
X0113736Y0044014D01*
X0113775Y0043920D01*
X0113810Y0043825D01*
X0113841Y0043729D01*
X0113869Y0043632D01*
X0113893Y0043534D01*
X0113913Y0043435D01*
X0113929Y0043335D01*
X0113941Y0043234D01*
X0113949Y0043134D01*
X0113953Y0043033D01*
X0113953Y0042931D01*
X0113949Y0042830D01*
X0113941Y0042730D01*
X0113929Y0042629D01*
X0113913Y0042529D01*
X0113893Y0042430D01*
X0113869Y0042332D01*
X0113841Y0042235D01*
X0113810Y0042139D01*
X0113775Y0042044D01*
X0113736Y0041950D01*
X0113693Y0041859D01*
X0113647Y0041769D01*
X0113597Y0041681D01*
X0113544Y0041595D01*
X0113488Y0041511D01*
X0113428Y0041429D01*
X0113365Y0041350D01*
X0113299Y0041273D01*
X0113230Y0041200D01*
X0113158Y0041128D01*
X0113084Y0041060D01*
X0113006Y0040995D01*
X0112927Y0040933D01*
X0112844Y0040874D01*
X0112760Y0040818D01*
X0112673Y0040766D01*
X0112585Y0040717D01*
X0112495Y0040672D01*
X0112402Y0040630D01*
X0112309Y0040592D01*
X0112214Y0040558D01*
X0112117Y0040527D01*
X0112020Y0040501D01*
X0111921Y0040478D01*
X0111822Y0040459D01*
X0111722Y0040444D01*
X0111621Y0040433D01*
X0111520Y0040426D01*
X0111419Y0040423D01*
X0111318Y0040424D01*
X0111217Y0040429D01*
X0111116Y0040438D01*
X0111016Y0040451D01*
X0110916Y0040468D01*
X0110818Y0040489D01*
X0110719Y0040513D01*
X0110622Y0040542D01*
X0110527Y0040574D01*
X0110432Y0040611D01*
X0110339Y0040650D01*
X0110248Y0040694D01*
X0110159Y0040741D01*
X0110071Y0040792D01*
X0109985Y0040846D01*
X0109902Y0040903D01*
X0109821Y0040963D01*
X0109743Y0041027D01*
X0109667Y0041094D01*
X0109593Y0041164D01*
X0109523Y0041236D01*
X0109456Y0041311D01*
X0109391Y0041389D01*
X0109330Y0041470D01*
X0109272Y0041552D01*
X0109217Y0041637D01*
X0109165Y0041724D01*
X0109117Y0041813D01*
X0109073Y0041904D01*
X0109032Y0041997D01*
X0108995Y0042091D01*
X0108962Y0042186D01*
X0108932Y0042283D01*
X0108907Y0042381D01*
X0108885Y0042480D01*
X0108867Y0042579D01*
X0108853Y0042679D01*
X0108843Y0042780D01*
X0108837Y0042881D01*
X0108835Y0042982D01*
X0115094Y0075463D02*
X0115096Y0075551D01*
X0115102Y0075639D01*
X0115112Y0075727D01*
X0115126Y0075815D01*
X0115143Y0075901D01*
X0115165Y0075987D01*
X0115190Y0076071D01*
X0115220Y0076155D01*
X0115252Y0076237D01*
X0115289Y0076317D01*
X0115329Y0076396D01*
X0115373Y0076473D01*
X0115420Y0076548D01*
X0115470Y0076620D01*
X0115524Y0076691D01*
X0115580Y0076758D01*
X0115640Y0076824D01*
X0115702Y0076886D01*
X0115768Y0076946D01*
X0115835Y0077002D01*
X0115906Y0077056D01*
X0115978Y0077106D01*
X0116053Y0077153D01*
X0116130Y0077197D01*
X0116209Y0077237D01*
X0116289Y0077274D01*
X0116371Y0077306D01*
X0116455Y0077336D01*
X0116539Y0077361D01*
X0116625Y0077383D01*
X0116711Y0077400D01*
X0116799Y0077414D01*
X0116887Y0077424D01*
X0116975Y0077430D01*
X0117063Y0077432D01*
X0117151Y0077430D01*
X0117239Y0077424D01*
X0117327Y0077414D01*
X0117415Y0077400D01*
X0117501Y0077383D01*
X0117587Y0077361D01*
X0117671Y0077336D01*
X0117755Y0077306D01*
X0117837Y0077274D01*
X0117917Y0077237D01*
X0117996Y0077197D01*
X0118073Y0077153D01*
X0118148Y0077106D01*
X0118220Y0077056D01*
X0118291Y0077002D01*
X0118358Y0076946D01*
X0118424Y0076886D01*
X0118486Y0076824D01*
X0118546Y0076758D01*
X0118602Y0076691D01*
X0118656Y0076620D01*
X0118706Y0076548D01*
X0118753Y0076473D01*
X0118797Y0076396D01*
X0118837Y0076317D01*
X0118874Y0076237D01*
X0118906Y0076155D01*
X0118936Y0076071D01*
X0118961Y0075987D01*
X0118983Y0075901D01*
X0119000Y0075815D01*
X0119014Y0075727D01*
X0119024Y0075639D01*
X0119030Y0075551D01*
X0119032Y0075463D01*
X0119030Y0075375D01*
X0119024Y0075287D01*
X0119014Y0075199D01*
X0119000Y0075111D01*
X0118983Y0075025D01*
X0118961Y0074939D01*
X0118936Y0074855D01*
X0118906Y0074771D01*
X0118874Y0074689D01*
X0118837Y0074609D01*
X0118797Y0074530D01*
X0118753Y0074453D01*
X0118706Y0074378D01*
X0118656Y0074306D01*
X0118602Y0074235D01*
X0118546Y0074168D01*
X0118486Y0074102D01*
X0118424Y0074040D01*
X0118358Y0073980D01*
X0118291Y0073924D01*
X0118220Y0073870D01*
X0118148Y0073820D01*
X0118073Y0073773D01*
X0117996Y0073729D01*
X0117917Y0073689D01*
X0117837Y0073652D01*
X0117755Y0073620D01*
X0117671Y0073590D01*
X0117587Y0073565D01*
X0117501Y0073543D01*
X0117415Y0073526D01*
X0117327Y0073512D01*
X0117239Y0073502D01*
X0117151Y0073496D01*
X0117063Y0073494D01*
X0116975Y0073496D01*
X0116887Y0073502D01*
X0116799Y0073512D01*
X0116711Y0073526D01*
X0116625Y0073543D01*
X0116539Y0073565D01*
X0116455Y0073590D01*
X0116371Y0073620D01*
X0116289Y0073652D01*
X0116209Y0073689D01*
X0116130Y0073729D01*
X0116053Y0073773D01*
X0115978Y0073820D01*
X0115906Y0073870D01*
X0115835Y0073924D01*
X0115768Y0073980D01*
X0115702Y0074040D01*
X0115640Y0074102D01*
X0115580Y0074168D01*
X0115524Y0074235D01*
X0115470Y0074306D01*
X0115420Y0074378D01*
X0115373Y0074453D01*
X0115329Y0074530D01*
X0115289Y0074609D01*
X0115252Y0074689D01*
X0115220Y0074771D01*
X0115190Y0074855D01*
X0115165Y0074939D01*
X0115143Y0075025D01*
X0115126Y0075111D01*
X0115112Y0075199D01*
X0115102Y0075287D01*
X0115096Y0075375D01*
X0115094Y0075463D01*
X0115094Y0092785D02*
X0115096Y0092873D01*
X0115102Y0092961D01*
X0115112Y0093049D01*
X0115126Y0093137D01*
X0115143Y0093223D01*
X0115165Y0093309D01*
X0115190Y0093393D01*
X0115220Y0093477D01*
X0115252Y0093559D01*
X0115289Y0093639D01*
X0115329Y0093718D01*
X0115373Y0093795D01*
X0115420Y0093870D01*
X0115470Y0093942D01*
X0115524Y0094013D01*
X0115580Y0094080D01*
X0115640Y0094146D01*
X0115702Y0094208D01*
X0115768Y0094268D01*
X0115835Y0094324D01*
X0115906Y0094378D01*
X0115978Y0094428D01*
X0116053Y0094475D01*
X0116130Y0094519D01*
X0116209Y0094559D01*
X0116289Y0094596D01*
X0116371Y0094628D01*
X0116455Y0094658D01*
X0116539Y0094683D01*
X0116625Y0094705D01*
X0116711Y0094722D01*
X0116799Y0094736D01*
X0116887Y0094746D01*
X0116975Y0094752D01*
X0117063Y0094754D01*
X0117151Y0094752D01*
X0117239Y0094746D01*
X0117327Y0094736D01*
X0117415Y0094722D01*
X0117501Y0094705D01*
X0117587Y0094683D01*
X0117671Y0094658D01*
X0117755Y0094628D01*
X0117837Y0094596D01*
X0117917Y0094559D01*
X0117996Y0094519D01*
X0118073Y0094475D01*
X0118148Y0094428D01*
X0118220Y0094378D01*
X0118291Y0094324D01*
X0118358Y0094268D01*
X0118424Y0094208D01*
X0118486Y0094146D01*
X0118546Y0094080D01*
X0118602Y0094013D01*
X0118656Y0093942D01*
X0118706Y0093870D01*
X0118753Y0093795D01*
X0118797Y0093718D01*
X0118837Y0093639D01*
X0118874Y0093559D01*
X0118906Y0093477D01*
X0118936Y0093393D01*
X0118961Y0093309D01*
X0118983Y0093223D01*
X0119000Y0093137D01*
X0119014Y0093049D01*
X0119024Y0092961D01*
X0119030Y0092873D01*
X0119032Y0092785D01*
X0119030Y0092697D01*
X0119024Y0092609D01*
X0119014Y0092521D01*
X0119000Y0092433D01*
X0118983Y0092347D01*
X0118961Y0092261D01*
X0118936Y0092177D01*
X0118906Y0092093D01*
X0118874Y0092011D01*
X0118837Y0091931D01*
X0118797Y0091852D01*
X0118753Y0091775D01*
X0118706Y0091700D01*
X0118656Y0091628D01*
X0118602Y0091557D01*
X0118546Y0091490D01*
X0118486Y0091424D01*
X0118424Y0091362D01*
X0118358Y0091302D01*
X0118291Y0091246D01*
X0118220Y0091192D01*
X0118148Y0091142D01*
X0118073Y0091095D01*
X0117996Y0091051D01*
X0117917Y0091011D01*
X0117837Y0090974D01*
X0117755Y0090942D01*
X0117671Y0090912D01*
X0117587Y0090887D01*
X0117501Y0090865D01*
X0117415Y0090848D01*
X0117327Y0090834D01*
X0117239Y0090824D01*
X0117151Y0090818D01*
X0117063Y0090816D01*
X0116975Y0090818D01*
X0116887Y0090824D01*
X0116799Y0090834D01*
X0116711Y0090848D01*
X0116625Y0090865D01*
X0116539Y0090887D01*
X0116455Y0090912D01*
X0116371Y0090942D01*
X0116289Y0090974D01*
X0116209Y0091011D01*
X0116130Y0091051D01*
X0116053Y0091095D01*
X0115978Y0091142D01*
X0115906Y0091192D01*
X0115835Y0091246D01*
X0115768Y0091302D01*
X0115702Y0091362D01*
X0115640Y0091424D01*
X0115580Y0091490D01*
X0115524Y0091557D01*
X0115470Y0091628D01*
X0115420Y0091700D01*
X0115373Y0091775D01*
X0115329Y0091852D01*
X0115289Y0091931D01*
X0115252Y0092011D01*
X0115220Y0092093D01*
X0115190Y0092177D01*
X0115165Y0092261D01*
X0115143Y0092347D01*
X0115126Y0092433D01*
X0115112Y0092521D01*
X0115102Y0092609D01*
X0115096Y0092697D01*
X0115094Y0092785D01*
D11*
X0038500Y0030561D03*
X0038500Y0022687D03*
D12*
X0042457Y0061624D03*
X0049543Y0061624D03*
X0097457Y0046624D03*
X0097457Y0036624D03*
X0104543Y0036624D03*
X0104543Y0046624D03*
X0112457Y0131624D03*
X0119543Y0131624D03*
D13*
X0098500Y0027667D03*
X0098500Y0020581D03*
X0048500Y0023081D03*
X0048500Y0030167D03*
X0048500Y0035581D03*
X0048500Y0042667D03*
X0031000Y0048081D03*
X0031000Y0055167D03*
D14*
X0014700Y0144124D02*
X0007300Y0144124D01*
X0007300Y0154124D02*
X0014700Y0154124D01*
X0014700Y0164124D02*
X0007300Y0164124D01*
X0007300Y0174124D02*
X0014700Y0174124D01*
X0014700Y0184124D02*
X0007300Y0184124D01*
X0007300Y0194124D02*
X0014700Y0194124D01*
D15*
X0086000Y0104124D03*
X0086000Y0094124D03*
X0123500Y0114124D03*
X0123500Y0124124D03*
D16*
X0128500Y0162884D03*
X0128500Y0170364D03*
X0116000Y0035364D03*
X0116000Y0027884D03*
X0106000Y0028652D03*
X0106000Y0021171D03*
X0033500Y0062884D03*
X0033500Y0070364D03*
D17*
X0044760Y0069124D03*
X0052240Y0069124D03*
X0082260Y0069124D03*
X0089740Y0069124D03*
D18*
X0113677Y0139341D03*
X0113677Y0147215D03*
X0113677Y0155089D03*
X0113677Y0162963D03*
X0113677Y0170837D03*
X0113677Y0178711D03*
X0113677Y0186585D03*
X0113677Y0194459D03*
X0049110Y0194459D03*
X0049110Y0186585D03*
X0049110Y0178711D03*
X0049110Y0170837D03*
X0049110Y0162963D03*
X0049110Y0155089D03*
X0049110Y0147215D03*
X0049110Y0139341D03*
D19*
X0060528Y0131073D03*
X0068402Y0131073D03*
X0076276Y0131073D03*
X0084150Y0131073D03*
X0092024Y0131073D03*
X0099898Y0131073D03*
D20*
X0089750Y0061624D02*
X0082250Y0061624D01*
D21*
X0086000Y0056624D03*
X0086000Y0051624D03*
X0086000Y0046624D03*
X0086000Y0041624D03*
X0086000Y0036624D03*
X0086000Y0031624D03*
X0086000Y0026624D03*
X0061000Y0026624D03*
X0061000Y0031624D03*
X0061000Y0036624D03*
X0061000Y0041624D03*
X0061000Y0046624D03*
X0061000Y0051624D03*
X0061000Y0056624D03*
X0061000Y0061624D03*
D22*
X0044642Y0054675D03*
X0044642Y0048573D03*
X0037358Y0048573D03*
X0037358Y0054675D03*
D23*
X0037358Y0059026D01*
X0033500Y0062884D01*
X0037358Y0048573D02*
X0037358Y0042982D01*
X0036000Y0041624D01*
X0031000Y0041624D01*
X0032564Y0039056D02*
X0031591Y0038652D01*
X0030409Y0038652D01*
X0029317Y0039105D01*
X0028481Y0039941D01*
X0028028Y0041033D01*
X0028028Y0042215D01*
X0028481Y0043307D01*
X0029317Y0044143D01*
X0030409Y0044596D01*
X0031591Y0044596D01*
X0032564Y0044193D01*
X0034790Y0044193D01*
X0034790Y0045119D01*
X0034734Y0045119D01*
X0034474Y0045378D01*
X0034018Y0044922D01*
X0027982Y0044922D01*
X0027054Y0045850D01*
X0027054Y0046624D01*
X0018500Y0046624D01*
X0018500Y0014124D01*
X0021000Y0011624D01*
X0038500Y0011624D01*
X0038500Y0022687D01*
X0038500Y0022687D01*
X0038500Y0017903D01*
X0038123Y0017903D01*
X0037380Y0018021D01*
X0036663Y0018253D01*
X0035992Y0018595D01*
X0035383Y0019038D01*
X0034851Y0019570D01*
X0034408Y0020180D01*
X0034066Y0020850D01*
X0033834Y0021567D01*
X0033716Y0022310D01*
X0033716Y0022687D01*
X0038500Y0022687D01*
X0038500Y0022687D01*
X0033716Y0022687D01*
X0033716Y0023064D01*
X0033834Y0023807D01*
X0034066Y0024524D01*
X0034408Y0025195D01*
X0034851Y0025804D01*
X0035383Y0026336D01*
X0035992Y0026779D01*
X0036074Y0026820D01*
X0036017Y0026844D01*
X0034783Y0028078D01*
X0034116Y0029689D01*
X0034116Y0031433D01*
X0034783Y0033045D01*
X0036017Y0034278D01*
X0037628Y0034945D01*
X0038500Y0034945D01*
X0038500Y0040492D01*
X0038177Y0040169D01*
X0037455Y0039447D01*
X0036511Y0039056D01*
X0032564Y0039056D01*
X0035901Y0034162D02*
X0018500Y0034162D01*
X0018500Y0032195D02*
X0034431Y0032195D01*
X0034116Y0030228D02*
X0018500Y0030228D01*
X0018500Y0028261D02*
X0034707Y0028261D01*
X0035341Y0026294D02*
X0018500Y0026294D01*
X0018500Y0024327D02*
X0034002Y0024327D01*
X0033716Y0022360D02*
X0018500Y0022360D01*
X0018500Y0020393D02*
X0034299Y0020393D01*
X0036324Y0018426D02*
X0018500Y0018426D01*
X0018500Y0016459D02*
X0038500Y0016459D01*
X0038500Y0014492D02*
X0018500Y0014492D01*
X0020099Y0012525D02*
X0038500Y0012525D01*
X0038500Y0018426D02*
X0038500Y0018426D01*
X0038500Y0020393D02*
X0038500Y0020393D01*
X0038500Y0022360D02*
X0038500Y0022360D01*
X0038500Y0036129D02*
X0018500Y0036129D01*
X0018500Y0038096D02*
X0038500Y0038096D01*
X0038500Y0040063D02*
X0038072Y0040063D01*
X0036866Y0048081D02*
X0037358Y0048573D01*
X0036866Y0048081D02*
X0031000Y0048081D01*
X0029171Y0043997D02*
X0018500Y0043997D01*
X0018500Y0042030D02*
X0028028Y0042030D01*
X0028430Y0040063D02*
X0018500Y0040063D01*
X0018500Y0045964D02*
X0027054Y0045964D01*
X0044642Y0048573D02*
X0046591Y0046624D01*
X0061000Y0046624D01*
X0049543Y0061624D02*
X0052240Y0064321D01*
X0052240Y0069124D01*
X0073500Y0049124D02*
X0073500Y0039124D01*
X0076000Y0034124D02*
X0078500Y0031624D01*
X0086000Y0031624D01*
X0086000Y0026624D02*
X0086000Y0021624D01*
X0097457Y0036624D02*
X0097457Y0040581D01*
X0098500Y0041624D01*
X0106000Y0041624D01*
X0111000Y0036624D01*
X0114740Y0036624D01*
X0116000Y0035364D01*
X0116000Y0041624D01*
X0128500Y0041624D01*
X0131000Y0044124D01*
X0131000Y0126624D01*
X0126000Y0131624D01*
X0119543Y0131624D01*
X0119543Y0138081D01*
X0118500Y0139124D01*
X0128500Y0139124D01*
X0133500Y0144124D01*
X0133500Y0160384D01*
X0128500Y0162884D01*
X0128500Y0170364D02*
X0131000Y0174124D01*
X0126000Y0179124D01*
X0116591Y0179124D01*
X0113677Y0178711D01*
X0113677Y0194459D02*
X0123165Y0194459D01*
X0128500Y0189124D01*
X0122909Y0147215D02*
X0113677Y0147215D01*
X0113677Y0139341D02*
X0113894Y0139124D01*
X0118500Y0139124D01*
X0122909Y0147215D02*
X0126000Y0146624D01*
X0113677Y0139341D02*
X0105783Y0139341D01*
X0101000Y0144124D01*
X0101000Y0149124D01*
X0092024Y0150600D02*
X0081000Y0161624D01*
X0076276Y0178848D02*
X0073500Y0179124D01*
X0076276Y0178848D02*
X0076276Y0131073D01*
X0084150Y0131073D02*
X0084150Y0140974D01*
X0083500Y0141624D01*
X0092024Y0150600D02*
X0092024Y0131073D01*
X0068402Y0131073D02*
X0068402Y0141526D01*
X0068500Y0141624D01*
X0061000Y0146624D02*
X0060528Y0146152D01*
X0060528Y0131073D01*
X0023500Y0171624D02*
X0041000Y0186624D01*
X0049071Y0186624D01*
X0049110Y0186585D01*
X0048776Y0194124D02*
X0031000Y0194124D01*
X0026000Y0189124D01*
X0023500Y0184124D01*
X0023500Y0171624D02*
X0021000Y0171624D01*
X0048776Y0194124D02*
X0049110Y0194459D01*
X0097457Y0046624D02*
X0097457Y0042667D01*
X0098500Y0041624D01*
X0086000Y0041624D01*
D24*
X0083500Y0141624D03*
X0081000Y0161624D03*
X0073500Y0179124D03*
X0061000Y0146624D03*
X0068500Y0141624D03*
D25*
X0056000Y0154124D03*
X0058500Y0171624D03*
X0063500Y0179124D03*
X0068500Y0179124D03*
X0066000Y0194124D03*
X0071000Y0194124D03*
X0076000Y0194124D03*
X0086000Y0191624D03*
X0088500Y0181624D03*
X0091000Y0174124D03*
X0101000Y0156624D03*
X0101000Y0149124D03*
X0098500Y0141624D03*
X0106000Y0121624D03*
X0116000Y0104124D03*
X0091000Y0111624D03*
X0091000Y0089124D03*
X0091000Y0084124D03*
X0076000Y0094124D03*
X0076000Y0099124D03*
X0076000Y0104124D03*
X0076000Y0109124D03*
X0071000Y0109124D03*
X0071000Y0104124D03*
X0071000Y0099124D03*
X0071000Y0094124D03*
X0066000Y0104124D03*
X0066000Y0109124D03*
X0048500Y0134124D03*
X0038500Y0116624D03*
X0033500Y0101624D03*
X0033500Y0096624D03*
X0028500Y0096624D03*
X0028500Y0101624D03*
X0011000Y0134124D03*
X0028500Y0144124D03*
X0028500Y0149124D03*
X0028500Y0154124D03*
X0033500Y0154124D03*
X0033500Y0149124D03*
X0033500Y0144124D03*
X0028500Y0161624D03*
X0031000Y0169124D03*
X0023500Y0184124D03*
X0021000Y0171624D03*
X0023500Y0196624D03*
X0103500Y0171624D03*
X0126000Y0146624D03*
X0128500Y0189124D03*
X0051000Y0051624D03*
X0031000Y0041624D03*
X0023500Y0031624D03*
X0023500Y0026624D03*
X0023500Y0051624D03*
X0051000Y0016624D03*
X0071000Y0036624D03*
X0076000Y0034124D03*
X0086000Y0021624D03*
X0108500Y0034124D03*
X0123500Y0031624D03*
X0123500Y0026624D03*
X0123500Y0021624D03*
X0128500Y0021624D03*
X0128500Y0026624D03*
X0128500Y0031624D03*
X0128500Y0036624D03*
X0123500Y0036624D03*
D26*
X0106000Y0059124D02*
X0106000Y0121624D01*
X0101000Y0116624D02*
X0098500Y0119124D01*
X0056000Y0119124D01*
X0051000Y0124124D01*
X0051000Y0131624D01*
X0048500Y0134124D01*
X0041000Y0124124D02*
X0041000Y0144124D01*
X0043500Y0146624D01*
X0048520Y0146624D01*
X0049110Y0147215D01*
X0050075Y0154124D02*
X0049110Y0155089D01*
X0050075Y0154124D02*
X0056000Y0154124D01*
X0059839Y0162963D02*
X0049110Y0162963D01*
X0049110Y0170837D02*
X0041000Y0170837D01*
X0036000Y0165837D01*
X0036000Y0124124D01*
X0048500Y0111624D01*
X0053500Y0111624D01*
X0053500Y0070384D01*
X0052240Y0069124D01*
X0044760Y0069124D02*
X0044760Y0110364D01*
X0038500Y0116624D01*
X0041000Y0124124D02*
X0048500Y0116624D01*
X0093500Y0116624D01*
X0096000Y0114124D01*
X0096000Y0069124D01*
X0089740Y0069124D01*
X0096000Y0064124D02*
X0093500Y0061624D01*
X0086000Y0061624D01*
X0086000Y0056624D02*
X0098500Y0056624D01*
X0103500Y0061624D01*
X0103500Y0106624D01*
X0101000Y0109124D01*
X0101000Y0116624D01*
X0091000Y0111624D02*
X0083500Y0111624D01*
X0081000Y0109124D01*
X0081000Y0089124D01*
X0078500Y0086624D01*
X0063500Y0086624D01*
X0061000Y0084124D01*
X0061000Y0061624D01*
X0086000Y0051624D02*
X0098500Y0051624D01*
X0106000Y0059124D01*
X0096000Y0064124D02*
X0096000Y0069124D01*
X0093500Y0156624D02*
X0081000Y0169124D01*
X0081000Y0174124D01*
X0091000Y0174124D01*
X0088500Y0181624D02*
X0088500Y0189124D01*
X0086000Y0191624D01*
X0081000Y0181624D02*
X0076000Y0186624D01*
X0049150Y0186624D01*
X0049110Y0186585D01*
X0049110Y0178711D02*
X0035587Y0178711D01*
X0021000Y0164124D01*
X0021000Y0154124D01*
X0023500Y0154124D01*
X0023500Y0136624D01*
X0021000Y0136624D01*
X0021000Y0066624D01*
X0023500Y0064124D01*
X0032260Y0064124D01*
X0033500Y0062884D01*
X0013500Y0134124D02*
X0011000Y0134124D01*
X0013500Y0134124D02*
X0021000Y0141624D01*
X0021000Y0149124D01*
X0018500Y0151624D01*
X0013500Y0151624D01*
X0011000Y0154124D01*
X0059839Y0162963D02*
X0063500Y0166624D01*
X0063500Y0179124D01*
X0081000Y0181624D02*
X0081000Y0174124D01*
X0093500Y0156624D02*
X0101000Y0156624D01*
X0103500Y0171624D02*
X0112890Y0171624D01*
X0113677Y0170837D01*
D27*
X0107242Y0174478D02*
X0106492Y0173729D01*
X0106492Y0173494D01*
X0105402Y0173494D01*
X0105011Y0173885D01*
X0104030Y0174291D01*
X0102970Y0174291D01*
X0101989Y0173885D01*
X0101239Y0173135D01*
X0100833Y0172155D01*
X0100833Y0171094D01*
X0101239Y0170113D01*
X0101989Y0169363D01*
X0102970Y0168957D01*
X0104030Y0168957D01*
X0105011Y0169363D01*
X0105402Y0169754D01*
X0106492Y0169754D01*
X0106492Y0167944D01*
X0107242Y0167195D01*
X0120113Y0167195D01*
X0120862Y0167944D01*
X0120862Y0173729D01*
X0120113Y0174478D01*
X0107242Y0174478D01*
X0107242Y0175069D02*
X0106492Y0175818D01*
X0106492Y0181603D01*
X0107242Y0182352D01*
X0120113Y0182352D01*
X0120862Y0181603D01*
X0120862Y0181388D01*
X0126938Y0181388D01*
X0132441Y0175884D01*
X0133034Y0175490D01*
X0133084Y0175241D01*
X0133264Y0175062D01*
X0133264Y0174350D01*
X0133404Y0173651D01*
X0133264Y0173440D01*
X0133264Y0173186D01*
X0132929Y0172852D01*
X0132929Y0167275D01*
X0132278Y0166624D01*
X0132929Y0165973D01*
X0132929Y0163200D01*
X0133500Y0162915D01*
X0133500Y0197320D01*
X0133263Y0197647D01*
X0131230Y0199124D01*
X0018500Y0199124D01*
X0018500Y0197366D01*
X0018921Y0196945D01*
X0019680Y0195115D01*
X0019680Y0193134D01*
X0018921Y0191303D01*
X0018500Y0190882D01*
X0018500Y0187366D01*
X0018921Y0186945D01*
X0019680Y0185115D01*
X0019680Y0183134D01*
X0018921Y0181303D01*
X0018500Y0180882D01*
X0018500Y0177366D01*
X0018921Y0176945D01*
X0019680Y0175115D01*
X0019680Y0173964D01*
X0020470Y0174291D01*
X0021530Y0174291D01*
X0022504Y0173888D01*
X0022663Y0173888D01*
X0039461Y0188286D01*
X0040062Y0188888D01*
X0040163Y0188888D01*
X0040239Y0188953D01*
X0041087Y0188888D01*
X0041925Y0188888D01*
X0041925Y0189477D01*
X0042675Y0190226D01*
X0055546Y0190226D01*
X0056295Y0189477D01*
X0056295Y0188494D01*
X0076775Y0188494D01*
X0077870Y0187399D01*
X0082870Y0182399D01*
X0082870Y0175994D01*
X0089098Y0175994D01*
X0089489Y0176385D01*
X0090470Y0176791D01*
X0091530Y0176791D01*
X0092511Y0176385D01*
X0093261Y0175635D01*
X0093667Y0174655D01*
X0093667Y0173594D01*
X0093261Y0172613D01*
X0092511Y0171863D01*
X0091530Y0171457D01*
X0090470Y0171457D01*
X0089489Y0171863D01*
X0089098Y0172254D01*
X0082870Y0172254D01*
X0082870Y0169899D01*
X0094275Y0158494D01*
X0099098Y0158494D01*
X0099489Y0158885D01*
X0100470Y0159291D01*
X0101530Y0159291D01*
X0102511Y0158885D01*
X0103261Y0158135D01*
X0103667Y0157155D01*
X0103667Y0156094D01*
X0103261Y0155113D01*
X0102511Y0154363D01*
X0101530Y0153957D01*
X0100470Y0153957D01*
X0099489Y0154363D01*
X0099098Y0154754D01*
X0092725Y0154754D01*
X0080225Y0167254D01*
X0079130Y0168349D01*
X0079130Y0180849D01*
X0075225Y0184754D01*
X0056295Y0184754D01*
X0056295Y0183692D01*
X0055546Y0182943D01*
X0042675Y0182943D01*
X0041925Y0183692D01*
X0041925Y0184360D01*
X0041837Y0184360D01*
X0037428Y0180581D01*
X0041925Y0180581D01*
X0041925Y0181603D01*
X0042675Y0182352D01*
X0055546Y0182352D01*
X0056295Y0181603D01*
X0056295Y0175818D01*
X0055546Y0175069D01*
X0042675Y0175069D01*
X0041925Y0175818D01*
X0041925Y0176841D01*
X0036361Y0176841D01*
X0022870Y0163349D01*
X0022870Y0155994D01*
X0024275Y0155994D01*
X0025370Y0154899D01*
X0025370Y0135849D01*
X0024275Y0134754D01*
X0022870Y0134754D01*
X0022870Y0067399D01*
X0024275Y0065994D01*
X0029092Y0065994D01*
X0029608Y0066511D01*
X0029434Y0066611D01*
X0029156Y0066889D01*
X0028960Y0067229D01*
X0028858Y0067609D01*
X0028858Y0069872D01*
X0033008Y0069872D01*
X0033008Y0070856D01*
X0028858Y0070856D01*
X0028858Y0073120D01*
X0028960Y0073499D01*
X0029156Y0073839D01*
X0029434Y0074117D01*
X0029774Y0074314D01*
X0030154Y0074415D01*
X0033008Y0074415D01*
X0033008Y0070856D01*
X0033992Y0070856D01*
X0038142Y0070856D01*
X0038142Y0073120D01*
X0038040Y0073499D01*
X0037844Y0073839D01*
X0037566Y0074117D01*
X0037226Y0074314D01*
X0036846Y0074415D01*
X0033992Y0074415D01*
X0033992Y0070856D01*
X0033992Y0069872D01*
X0038142Y0069872D01*
X0038142Y0067609D01*
X0038040Y0067229D01*
X0037844Y0066889D01*
X0037566Y0066611D01*
X0037392Y0066511D01*
X0037929Y0065973D01*
X0037929Y0061656D01*
X0039390Y0060196D01*
X0039390Y0061329D01*
X0042161Y0061329D01*
X0042161Y0061919D01*
X0039390Y0061919D01*
X0039390Y0064183D01*
X0039491Y0064562D01*
X0039688Y0064902D01*
X0039966Y0065180D01*
X0040306Y0065377D01*
X0040685Y0065478D01*
X0040921Y0065478D01*
X0040921Y0072804D01*
X0041671Y0073553D01*
X0042890Y0073553D01*
X0042890Y0109590D01*
X0038522Y0113957D01*
X0037970Y0113957D01*
X0036989Y0114363D01*
X0036239Y0115113D01*
X0035833Y0116094D01*
X0035833Y0117155D01*
X0036239Y0118135D01*
X0036989Y0118885D01*
X0037970Y0119291D01*
X0038188Y0119291D01*
X0035225Y0122254D01*
X0034130Y0123349D01*
X0034130Y0166611D01*
X0040225Y0172707D01*
X0041925Y0172707D01*
X0041925Y0173729D01*
X0042675Y0174478D01*
X0055546Y0174478D01*
X0056295Y0173729D01*
X0056295Y0167944D01*
X0055546Y0167195D01*
X0042675Y0167195D01*
X0041925Y0167944D01*
X0041925Y0168967D01*
X0041775Y0168967D01*
X0037870Y0165062D01*
X0037870Y0124899D01*
X0039130Y0123639D01*
X0039130Y0144899D01*
X0041630Y0147399D01*
X0041925Y0147694D01*
X0041925Y0150107D01*
X0042675Y0150856D01*
X0055546Y0150856D01*
X0056295Y0150107D01*
X0056295Y0144322D01*
X0055546Y0143573D01*
X0043093Y0143573D01*
X0042870Y0143349D01*
X0042870Y0143158D01*
X0043008Y0143195D01*
X0048618Y0143195D01*
X0048618Y0139833D01*
X0049602Y0139833D01*
X0049602Y0143195D01*
X0055212Y0143195D01*
X0055592Y0143093D01*
X0055932Y0142897D01*
X0056210Y0142619D01*
X0056406Y0142279D01*
X0056508Y0141899D01*
X0056508Y0139833D01*
X0049602Y0139833D01*
X0049602Y0138848D01*
X0056508Y0138848D01*
X0056508Y0136782D01*
X0056406Y0136402D01*
X0056210Y0136062D01*
X0055932Y0135784D01*
X0055592Y0135588D01*
X0055212Y0135486D01*
X0050822Y0135486D01*
X0051167Y0134655D01*
X0051167Y0134102D01*
X0051775Y0133494D01*
X0051775Y0133494D01*
X0052870Y0132399D01*
X0052870Y0124899D01*
X0056775Y0120994D01*
X0099275Y0120994D01*
X0100370Y0119899D01*
X0102870Y0117399D01*
X0102870Y0109899D01*
X0104130Y0108639D01*
X0104130Y0119722D01*
X0103739Y0120113D01*
X0103333Y0121094D01*
X0103333Y0122155D01*
X0103739Y0123135D01*
X0104489Y0123885D01*
X0105470Y0124291D01*
X0106530Y0124291D01*
X0107511Y0123885D01*
X0108261Y0123135D01*
X0108667Y0122155D01*
X0108667Y0121094D01*
X0108261Y0120113D01*
X0107870Y0119722D01*
X0107870Y0058349D01*
X0106775Y0057254D01*
X0099674Y0050153D01*
X0100311Y0049516D01*
X0100311Y0046624D01*
X0104248Y0046624D01*
X0104248Y0046919D01*
X0101476Y0046919D01*
X0101476Y0049183D01*
X0101578Y0049562D01*
X0101775Y0049902D01*
X0102052Y0050180D01*
X0102393Y0050377D01*
X0102772Y0050478D01*
X0104248Y0050478D01*
X0104248Y0046919D01*
X0104839Y0046919D01*
X0107610Y0046919D01*
X0107610Y0049183D01*
X0107509Y0049562D01*
X0107312Y0049902D01*
X0107034Y0050180D01*
X0106694Y0050377D01*
X0106315Y0050478D01*
X0104839Y0050478D01*
X0104839Y0046919D01*
X0104839Y0046624D01*
X0109599Y0046624D01*
X0110588Y0047033D01*
X0112200Y0047033D01*
X0113188Y0046624D01*
X0128736Y0046624D01*
X0128736Y0125686D01*
X0127894Y0126529D01*
X0128480Y0125115D01*
X0128480Y0123134D01*
X0127721Y0121303D01*
X0126321Y0119903D01*
X0124629Y0119202D01*
X0124716Y0119188D01*
X0125493Y0118936D01*
X0126221Y0118565D01*
X0126882Y0118084D01*
X0127460Y0117506D01*
X0127941Y0116845D01*
X0128312Y0116117D01*
X0128564Y0115340D01*
X0128692Y0114533D01*
X0128692Y0114432D01*
X0123808Y0114432D01*
X0123808Y0113816D01*
X0128692Y0113816D01*
X0128692Y0113715D01*
X0128564Y0112908D01*
X0128312Y0112131D01*
X0127941Y0111403D01*
X0127460Y0110742D01*
X0126882Y0110164D01*
X0126221Y0109683D01*
X0125493Y0109312D01*
X0124716Y0109060D01*
X0123909Y0108932D01*
X0123808Y0108932D01*
X0123808Y0113816D01*
X0123192Y0113816D01*
X0123192Y0108932D01*
X0123091Y0108932D01*
X0122284Y0109060D01*
X0121507Y0109312D01*
X0120779Y0109683D01*
X0120118Y0110164D01*
X0119540Y0110742D01*
X0119059Y0111403D01*
X0118688Y0112131D01*
X0118436Y0112908D01*
X0118308Y0113715D01*
X0118308Y0113816D01*
X0123192Y0113816D01*
X0123192Y0114432D01*
X0118308Y0114432D01*
X0118308Y0114533D01*
X0118436Y0115340D01*
X0118688Y0116117D01*
X0119059Y0116845D01*
X0119540Y0117506D01*
X0120118Y0118084D01*
X0120779Y0118565D01*
X0121507Y0118936D01*
X0122284Y0119188D01*
X0122371Y0119202D01*
X0120679Y0119903D01*
X0119279Y0121303D01*
X0118520Y0123134D01*
X0118520Y0125115D01*
X0119279Y0126945D01*
X0120316Y0127982D01*
X0117438Y0127982D01*
X0116689Y0128732D01*
X0116689Y0134516D01*
X0117280Y0135107D01*
X0117280Y0135699D01*
X0107242Y0135699D01*
X0106492Y0136448D01*
X0106492Y0137077D01*
X0104846Y0137077D01*
X0100062Y0141860D01*
X0098736Y0143186D01*
X0098736Y0147620D01*
X0098333Y0148594D01*
X0098333Y0149655D01*
X0098739Y0150635D01*
X0099489Y0151385D01*
X0100470Y0151791D01*
X0101530Y0151791D01*
X0102511Y0151385D01*
X0103261Y0150635D01*
X0103667Y0149655D01*
X0103667Y0148594D01*
X0103264Y0147620D01*
X0103264Y0145062D01*
X0106492Y0141833D01*
X0106492Y0142233D01*
X0107242Y0142982D01*
X0120113Y0142982D01*
X0120862Y0142233D01*
X0120862Y0141388D01*
X0127562Y0141388D01*
X0131236Y0145062D01*
X0131236Y0158985D01*
X0131115Y0159045D01*
X0124820Y0159045D01*
X0124071Y0159795D01*
X0124071Y0165973D01*
X0124722Y0166624D01*
X0124071Y0167275D01*
X0124071Y0173453D01*
X0124820Y0174203D01*
X0127720Y0174203D01*
X0125062Y0176860D01*
X0120862Y0176860D01*
X0120862Y0175818D01*
X0120113Y0175069D01*
X0107242Y0175069D01*
X0106651Y0175659D02*
X0093236Y0175659D01*
X0093658Y0174677D02*
X0127246Y0174677D01*
X0126263Y0175659D02*
X0120703Y0175659D01*
X0120862Y0176642D02*
X0125280Y0176642D01*
X0124311Y0173694D02*
X0120862Y0173694D01*
X0120862Y0172711D02*
X0124071Y0172711D01*
X0124071Y0171728D02*
X0120862Y0171728D01*
X0120862Y0170745D02*
X0124071Y0170745D01*
X0124071Y0169763D02*
X0120862Y0169763D01*
X0120862Y0168780D02*
X0124071Y0168780D01*
X0124071Y0167797D02*
X0120715Y0167797D01*
X0120113Y0166604D02*
X0107242Y0166604D01*
X0106492Y0165855D01*
X0106492Y0160070D01*
X0107242Y0159321D01*
X0120113Y0159321D01*
X0120862Y0160070D01*
X0120862Y0165855D01*
X0120113Y0166604D01*
X0120862Y0165832D02*
X0124071Y0165832D01*
X0124071Y0164849D02*
X0120862Y0164849D01*
X0120862Y0163866D02*
X0124071Y0163866D01*
X0124071Y0162883D02*
X0120862Y0162883D01*
X0120862Y0161901D02*
X0124071Y0161901D01*
X0124071Y0160918D02*
X0120862Y0160918D01*
X0120727Y0159935D02*
X0124071Y0159935D01*
X0120862Y0157981D02*
X0120113Y0158730D01*
X0107242Y0158730D01*
X0106492Y0157981D01*
X0106492Y0152196D01*
X0107242Y0151447D01*
X0120113Y0151447D01*
X0120862Y0152196D01*
X0120862Y0157981D01*
X0120862Y0157970D02*
X0131236Y0157970D01*
X0131236Y0158952D02*
X0102348Y0158952D01*
X0103329Y0157970D02*
X0106492Y0157970D01*
X0106492Y0156987D02*
X0103667Y0156987D01*
X0103630Y0156004D02*
X0106492Y0156004D01*
X0106492Y0155021D02*
X0103169Y0155021D01*
X0101727Y0154039D02*
X0106492Y0154039D01*
X0106492Y0153056D02*
X0092770Y0153056D01*
X0093752Y0152073D02*
X0106616Y0152073D01*
X0107242Y0150856D02*
X0106492Y0150107D01*
X0106492Y0144322D01*
X0107242Y0143573D01*
X0120113Y0143573D01*
X0120862Y0144322D01*
X0120862Y0144951D01*
X0122695Y0144951D01*
X0124187Y0144666D01*
X0124489Y0144363D01*
X0125470Y0143957D01*
X0126530Y0143957D01*
X0127511Y0144363D01*
X0128261Y0145113D01*
X0128667Y0146094D01*
X0128667Y0147155D01*
X0128261Y0148135D01*
X0127511Y0148885D01*
X0126530Y0149291D01*
X0125470Y0149291D01*
X0125039Y0149112D01*
X0124018Y0149307D01*
X0123847Y0149478D01*
X0123124Y0149478D01*
X0122413Y0149614D01*
X0122213Y0149478D01*
X0120862Y0149478D01*
X0120862Y0150107D01*
X0120113Y0150856D01*
X0107242Y0150856D01*
X0106493Y0150107D02*
X0103479Y0150107D01*
X0103667Y0149125D02*
X0106492Y0149125D01*
X0106492Y0148142D02*
X0103480Y0148142D01*
X0103264Y0147159D02*
X0106492Y0147159D01*
X0106492Y0146176D02*
X0103264Y0146176D01*
X0103264Y0145194D02*
X0106492Y0145194D01*
X0106604Y0144211D02*
X0104115Y0144211D01*
X0105097Y0143228D02*
X0129403Y0143228D01*
X0130385Y0144211D02*
X0127143Y0144211D01*
X0128294Y0145194D02*
X0131236Y0145194D01*
X0131236Y0146176D02*
X0128667Y0146176D01*
X0128665Y0147159D02*
X0131236Y0147159D01*
X0131236Y0148142D02*
X0128254Y0148142D01*
X0126932Y0149125D02*
X0131236Y0149125D01*
X0131236Y0150107D02*
X0120862Y0150107D01*
X0120739Y0152073D02*
X0131236Y0152073D01*
X0131236Y0153056D02*
X0120862Y0153056D01*
X0120862Y0154039D02*
X0131236Y0154039D01*
X0131236Y0155021D02*
X0120862Y0155021D01*
X0120862Y0156004D02*
X0131236Y0156004D01*
X0131236Y0156987D02*
X0120862Y0156987D01*
X0124974Y0149125D02*
X0125068Y0149125D01*
X0124857Y0144211D02*
X0120751Y0144211D01*
X0120850Y0142245D02*
X0128420Y0142245D01*
X0131236Y0151090D02*
X0102805Y0151090D01*
X0100273Y0154039D02*
X0091787Y0154039D01*
X0092458Y0155021D02*
X0090804Y0155021D01*
X0091475Y0156004D02*
X0089821Y0156004D01*
X0090493Y0156987D02*
X0088839Y0156987D01*
X0089510Y0157970D02*
X0087856Y0157970D01*
X0088527Y0158952D02*
X0086873Y0158952D01*
X0087544Y0159935D02*
X0085890Y0159935D01*
X0086561Y0160918D02*
X0084908Y0160918D01*
X0085579Y0161901D02*
X0084061Y0161901D01*
X0084061Y0161765D02*
X0084061Y0162233D01*
X0083595Y0163358D01*
X0082734Y0164219D01*
X0081609Y0164685D01*
X0080391Y0164685D01*
X0079266Y0164219D01*
X0078539Y0163492D01*
X0078539Y0178736D01*
X0078621Y0179558D01*
X0078539Y0179657D01*
X0078539Y0179786D01*
X0077956Y0180370D01*
X0077432Y0181008D01*
X0077304Y0181021D01*
X0077213Y0181112D01*
X0076388Y0181112D01*
X0075780Y0181173D01*
X0075234Y0181719D01*
X0074109Y0182185D01*
X0072891Y0182185D01*
X0071766Y0181719D01*
X0070905Y0180858D01*
X0070439Y0179733D01*
X0070439Y0178515D01*
X0070905Y0177390D01*
X0071766Y0176529D01*
X0072891Y0176063D01*
X0074012Y0176063D01*
X0074012Y0138258D01*
X0073383Y0138258D01*
X0072634Y0137508D01*
X0072634Y0124637D01*
X0073383Y0123888D01*
X0079168Y0123888D01*
X0079917Y0124637D01*
X0079917Y0137508D01*
X0079168Y0138258D01*
X0078539Y0138258D01*
X0078539Y0159756D01*
X0079266Y0159029D01*
X0080391Y0158563D01*
X0080859Y0158563D01*
X0089760Y0149663D01*
X0089760Y0138258D01*
X0089131Y0138258D01*
X0088382Y0137508D01*
X0088382Y0124637D01*
X0089131Y0123888D01*
X0094916Y0123888D01*
X0095665Y0124637D01*
X0095665Y0137508D01*
X0094916Y0138258D01*
X0094287Y0138258D01*
X0094287Y0151538D01*
X0084061Y0161765D01*
X0083791Y0162883D02*
X0084596Y0162883D01*
X0083613Y0163866D02*
X0083086Y0163866D01*
X0082630Y0164849D02*
X0078539Y0164849D01*
X0078539Y0165832D02*
X0081648Y0165832D01*
X0080665Y0166814D02*
X0078539Y0166814D01*
X0078539Y0167797D02*
X0079682Y0167797D01*
X0079130Y0168780D02*
X0078539Y0168780D01*
X0078539Y0169763D02*
X0079130Y0169763D01*
X0079130Y0170745D02*
X0078539Y0170745D01*
X0078539Y0171728D02*
X0079130Y0171728D01*
X0079130Y0172711D02*
X0078539Y0172711D01*
X0078539Y0173694D02*
X0079130Y0173694D01*
X0079130Y0174677D02*
X0078539Y0174677D01*
X0078539Y0175659D02*
X0079130Y0175659D01*
X0079130Y0176642D02*
X0078539Y0176642D01*
X0078539Y0177625D02*
X0079130Y0177625D01*
X0079130Y0178608D02*
X0078539Y0178608D01*
X0078594Y0179590D02*
X0079130Y0179590D01*
X0079130Y0180573D02*
X0077789Y0180573D01*
X0078423Y0181556D02*
X0075396Y0181556D01*
X0076458Y0183521D02*
X0056124Y0183521D01*
X0056295Y0184504D02*
X0075475Y0184504D01*
X0076833Y0188435D02*
X0086544Y0188435D01*
X0086630Y0188349D02*
X0086630Y0183526D01*
X0086239Y0183135D01*
X0085833Y0182155D01*
X0085833Y0181094D01*
X0086239Y0180113D01*
X0086989Y0179363D01*
X0087970Y0178957D01*
X0089030Y0178957D01*
X0090011Y0179363D01*
X0090761Y0180113D01*
X0091167Y0181094D01*
X0091167Y0182155D01*
X0090761Y0183135D01*
X0090370Y0183526D01*
X0090370Y0189899D01*
X0089275Y0190994D01*
X0088667Y0191602D01*
X0088667Y0192155D01*
X0088261Y0193135D01*
X0087511Y0193885D01*
X0086530Y0194291D01*
X0085470Y0194291D01*
X0084489Y0193885D01*
X0083739Y0193135D01*
X0083333Y0192155D01*
X0083333Y0191094D01*
X0083739Y0190113D01*
X0084489Y0189363D01*
X0085470Y0188957D01*
X0086022Y0188957D01*
X0086630Y0188349D01*
X0086630Y0187452D02*
X0077816Y0187452D01*
X0078799Y0186470D02*
X0086630Y0186470D01*
X0086630Y0185487D02*
X0079782Y0185487D01*
X0080765Y0184504D02*
X0086630Y0184504D01*
X0086626Y0183521D02*
X0081747Y0183521D01*
X0082730Y0182539D02*
X0085992Y0182539D01*
X0085833Y0181556D02*
X0082870Y0181556D01*
X0082870Y0180573D02*
X0086049Y0180573D01*
X0086762Y0179590D02*
X0082870Y0179590D01*
X0082870Y0178608D02*
X0106492Y0178608D01*
X0106492Y0179590D02*
X0090238Y0179590D01*
X0090951Y0180573D02*
X0106492Y0180573D01*
X0106492Y0181556D02*
X0091167Y0181556D01*
X0091008Y0182539D02*
X0133500Y0182539D01*
X0133500Y0183521D02*
X0120691Y0183521D01*
X0120862Y0183692D02*
X0120113Y0182943D01*
X0107242Y0182943D01*
X0106492Y0183692D01*
X0106492Y0189477D01*
X0107242Y0190226D01*
X0120113Y0190226D01*
X0120862Y0189477D01*
X0120862Y0183692D01*
X0120862Y0184504D02*
X0133500Y0184504D01*
X0133500Y0185487D02*
X0120862Y0185487D01*
X0120862Y0186470D02*
X0127939Y0186470D01*
X0127970Y0186457D02*
X0129030Y0186457D01*
X0130011Y0186863D01*
X0130761Y0187613D01*
X0131167Y0188594D01*
X0131167Y0189655D01*
X0130761Y0190635D01*
X0130011Y0191385D01*
X0129037Y0191788D01*
X0124103Y0196722D01*
X0120862Y0196722D01*
X0120862Y0197351D01*
X0120113Y0198100D01*
X0107242Y0198100D01*
X0106492Y0197351D01*
X0106492Y0191566D01*
X0107242Y0190817D01*
X0120113Y0190817D01*
X0120862Y0191566D01*
X0120862Y0192195D01*
X0122228Y0192195D01*
X0125836Y0188587D01*
X0126239Y0187613D01*
X0126989Y0186863D01*
X0127970Y0186457D01*
X0129061Y0186470D02*
X0133500Y0186470D01*
X0133500Y0187452D02*
X0130600Y0187452D01*
X0131101Y0188435D02*
X0133500Y0188435D01*
X0133500Y0189418D02*
X0131167Y0189418D01*
X0130858Y0190401D02*
X0133500Y0190401D01*
X0133500Y0191384D02*
X0130012Y0191384D01*
X0128459Y0192366D02*
X0133500Y0192366D01*
X0133500Y0193349D02*
X0127476Y0193349D01*
X0126494Y0194332D02*
X0133500Y0194332D01*
X0133500Y0195315D02*
X0125511Y0195315D01*
X0124528Y0196297D02*
X0133500Y0196297D01*
X0133500Y0197280D02*
X0120862Y0197280D01*
X0120679Y0191384D02*
X0123039Y0191384D01*
X0124022Y0190401D02*
X0089868Y0190401D01*
X0090370Y0189418D02*
X0106492Y0189418D01*
X0106492Y0188435D02*
X0090370Y0188435D01*
X0090370Y0187452D02*
X0106492Y0187452D01*
X0106492Y0186470D02*
X0090370Y0186470D01*
X0090370Y0185487D02*
X0106492Y0185487D01*
X0106492Y0184504D02*
X0090370Y0184504D01*
X0090374Y0183521D02*
X0106663Y0183521D01*
X0106492Y0177625D02*
X0082870Y0177625D01*
X0082870Y0176642D02*
X0090110Y0176642D01*
X0091890Y0176642D02*
X0106492Y0176642D01*
X0106492Y0173694D02*
X0105202Y0173694D01*
X0101798Y0173694D02*
X0093667Y0173694D01*
X0093301Y0172711D02*
X0101064Y0172711D01*
X0100833Y0171728D02*
X0092185Y0171728D01*
X0089815Y0171728D02*
X0082870Y0171728D01*
X0082870Y0170745D02*
X0100977Y0170745D01*
X0101590Y0169763D02*
X0083006Y0169763D01*
X0083989Y0168780D02*
X0106492Y0168780D01*
X0106639Y0167797D02*
X0084971Y0167797D01*
X0085954Y0166814D02*
X0124532Y0166814D01*
X0131683Y0176642D02*
X0133500Y0176642D01*
X0133500Y0175659D02*
X0132780Y0175659D01*
X0133264Y0174677D02*
X0133500Y0174677D01*
X0133500Y0173694D02*
X0133396Y0173694D01*
X0133500Y0172711D02*
X0132929Y0172711D01*
X0132929Y0171728D02*
X0133500Y0171728D01*
X0133500Y0170745D02*
X0132929Y0170745D01*
X0132929Y0169763D02*
X0133500Y0169763D01*
X0133500Y0168780D02*
X0132929Y0168780D01*
X0132929Y0167797D02*
X0133500Y0167797D01*
X0133500Y0166814D02*
X0132468Y0166814D01*
X0132929Y0165832D02*
X0133500Y0165832D01*
X0133500Y0164849D02*
X0132929Y0164849D01*
X0132929Y0163866D02*
X0133500Y0163866D01*
X0133500Y0177625D02*
X0130701Y0177625D01*
X0129718Y0178608D02*
X0133500Y0178608D01*
X0133500Y0179590D02*
X0128735Y0179590D01*
X0127752Y0180573D02*
X0133500Y0180573D01*
X0133500Y0181556D02*
X0120862Y0181556D01*
X0120862Y0187452D02*
X0126400Y0187452D01*
X0125899Y0188435D02*
X0120862Y0188435D01*
X0120862Y0189418D02*
X0125005Y0189418D01*
X0132415Y0198263D02*
X0018500Y0198263D01*
X0018586Y0197280D02*
X0041925Y0197280D01*
X0041925Y0197351D02*
X0041925Y0196388D01*
X0030062Y0196388D01*
X0024777Y0191103D01*
X0024395Y0190975D01*
X0024140Y0190465D01*
X0023736Y0190062D01*
X0023736Y0189658D01*
X0022128Y0186442D01*
X0021989Y0186385D01*
X0021239Y0185635D01*
X0020833Y0184655D01*
X0020833Y0183594D01*
X0021239Y0182613D01*
X0021989Y0181863D01*
X0022970Y0181457D01*
X0024030Y0181457D01*
X0025011Y0181863D01*
X0025761Y0182613D01*
X0026167Y0183594D01*
X0026167Y0184396D01*
X0027860Y0187783D01*
X0031938Y0191860D01*
X0041925Y0191860D01*
X0041925Y0191566D01*
X0042675Y0190817D01*
X0055546Y0190817D01*
X0056295Y0191566D01*
X0056295Y0197351D01*
X0055546Y0198100D01*
X0042675Y0198100D01*
X0041925Y0197351D01*
X0042108Y0191384D02*
X0031461Y0191384D01*
X0030478Y0190401D02*
X0083620Y0190401D01*
X0083333Y0191384D02*
X0056112Y0191384D01*
X0056295Y0192366D02*
X0083421Y0192366D01*
X0083953Y0193349D02*
X0056295Y0193349D01*
X0056295Y0194332D02*
X0106492Y0194332D01*
X0106492Y0195315D02*
X0056295Y0195315D01*
X0056295Y0196297D02*
X0106492Y0196297D01*
X0106492Y0197280D02*
X0056295Y0197280D01*
X0056295Y0189418D02*
X0084434Y0189418D01*
X0088047Y0193349D02*
X0106492Y0193349D01*
X0106492Y0192366D02*
X0088579Y0192366D01*
X0088885Y0191384D02*
X0106675Y0191384D01*
X0106492Y0165832D02*
X0086937Y0165832D01*
X0087920Y0164849D02*
X0106492Y0164849D01*
X0106492Y0163866D02*
X0088903Y0163866D01*
X0089885Y0162883D02*
X0106492Y0162883D01*
X0106492Y0161901D02*
X0090868Y0161901D01*
X0091851Y0160918D02*
X0106492Y0160918D01*
X0106627Y0159935D02*
X0092834Y0159935D01*
X0093816Y0158952D02*
X0099652Y0158952D01*
X0099195Y0151090D02*
X0094287Y0151090D01*
X0094287Y0150107D02*
X0098521Y0150107D01*
X0098333Y0149125D02*
X0094287Y0149125D01*
X0094287Y0148142D02*
X0098520Y0148142D01*
X0098736Y0147159D02*
X0094287Y0147159D01*
X0094287Y0146176D02*
X0098736Y0146176D01*
X0098736Y0145194D02*
X0094287Y0145194D01*
X0094287Y0144211D02*
X0098736Y0144211D01*
X0098736Y0143228D02*
X0094287Y0143228D01*
X0094287Y0142245D02*
X0099677Y0142245D01*
X0100660Y0141263D02*
X0094287Y0141263D01*
X0094287Y0140280D02*
X0101643Y0140280D01*
X0102625Y0139297D02*
X0094287Y0139297D01*
X0094287Y0138314D02*
X0103608Y0138314D01*
X0103539Y0137508D02*
X0102790Y0138258D01*
X0097005Y0138258D01*
X0096256Y0137508D01*
X0096256Y0124637D01*
X0097005Y0123888D01*
X0102790Y0123888D01*
X0103539Y0124637D01*
X0103539Y0137508D01*
X0103539Y0137332D02*
X0104591Y0137332D01*
X0103539Y0136349D02*
X0106592Y0136349D01*
X0103539Y0135366D02*
X0110288Y0135366D01*
X0110306Y0135377D02*
X0109966Y0135180D01*
X0109688Y0134902D01*
X0109491Y0134562D01*
X0109390Y0134183D01*
X0109390Y0131919D01*
X0112161Y0131919D01*
X0112161Y0131329D01*
X0109390Y0131329D01*
X0109390Y0129065D01*
X0109491Y0128686D01*
X0109688Y0128346D01*
X0109966Y0128068D01*
X0110306Y0127871D01*
X0110685Y0127770D01*
X0112161Y0127770D01*
X0112161Y0131329D01*
X0112752Y0131329D01*
X0112752Y0131919D01*
X0115524Y0131919D01*
X0115524Y0134183D01*
X0115422Y0134562D01*
X0115225Y0134902D01*
X0114948Y0135180D01*
X0114607Y0135377D01*
X0114228Y0135478D01*
X0112752Y0135478D01*
X0112752Y0131919D01*
X0112161Y0131919D01*
X0112161Y0135478D01*
X0110685Y0135478D01*
X0110306Y0135377D01*
X0109444Y0134383D02*
X0103539Y0134383D01*
X0103539Y0133400D02*
X0109390Y0133400D01*
X0109390Y0132418D02*
X0103539Y0132418D01*
X0103539Y0131435D02*
X0112161Y0131435D01*
X0112752Y0131435D02*
X0116689Y0131435D01*
X0116689Y0132418D02*
X0115524Y0132418D01*
X0115524Y0133400D02*
X0116689Y0133400D01*
X0116689Y0134383D02*
X0115470Y0134383D01*
X0114626Y0135366D02*
X0117280Y0135366D01*
X0115524Y0131329D02*
X0112752Y0131329D01*
X0112752Y0127770D01*
X0114228Y0127770D01*
X0114607Y0127871D01*
X0114948Y0128068D01*
X0115225Y0128346D01*
X0115422Y0128686D01*
X0115524Y0129065D01*
X0115524Y0131329D01*
X0115524Y0130452D02*
X0116689Y0130452D01*
X0116689Y0129469D02*
X0115524Y0129469D01*
X0115307Y0128487D02*
X0116934Y0128487D01*
X0119103Y0126521D02*
X0103539Y0126521D01*
X0103539Y0125538D02*
X0118696Y0125538D01*
X0118520Y0124556D02*
X0103458Y0124556D01*
X0104177Y0123573D02*
X0054196Y0123573D01*
X0055179Y0122590D02*
X0103513Y0122590D01*
X0103333Y0121607D02*
X0056161Y0121607D01*
X0057635Y0123888D02*
X0063420Y0123888D01*
X0064169Y0124637D01*
X0064169Y0137508D01*
X0063420Y0138258D01*
X0062791Y0138258D01*
X0062791Y0144087D01*
X0063595Y0144890D01*
X0064061Y0146015D01*
X0064061Y0147233D01*
X0063595Y0148358D01*
X0062734Y0149219D01*
X0061609Y0149685D01*
X0060391Y0149685D01*
X0059266Y0149219D01*
X0058405Y0148358D01*
X0057939Y0147233D01*
X0057939Y0146015D01*
X0058264Y0145232D01*
X0058264Y0138258D01*
X0057635Y0138258D01*
X0056886Y0137508D01*
X0056886Y0124637D01*
X0057635Y0123888D01*
X0056968Y0124556D02*
X0053213Y0124556D01*
X0052870Y0125538D02*
X0056886Y0125538D01*
X0056886Y0126521D02*
X0052870Y0126521D01*
X0052870Y0127504D02*
X0056886Y0127504D01*
X0056886Y0128487D02*
X0052870Y0128487D01*
X0052870Y0129469D02*
X0056886Y0129469D01*
X0056886Y0130452D02*
X0052870Y0130452D01*
X0052870Y0131435D02*
X0056886Y0131435D01*
X0056886Y0132418D02*
X0052851Y0132418D01*
X0051868Y0133400D02*
X0056886Y0133400D01*
X0056886Y0134383D02*
X0051167Y0134383D01*
X0050872Y0135366D02*
X0056886Y0135366D01*
X0056886Y0136349D02*
X0056375Y0136349D01*
X0056508Y0137332D02*
X0056886Y0137332D01*
X0056508Y0138314D02*
X0058264Y0138314D01*
X0058264Y0139297D02*
X0049602Y0139297D01*
X0049602Y0140280D02*
X0048618Y0140280D01*
X0048618Y0141263D02*
X0049602Y0141263D01*
X0049602Y0142245D02*
X0048618Y0142245D01*
X0042870Y0143228D02*
X0058264Y0143228D01*
X0058264Y0142245D02*
X0056415Y0142245D01*
X0056508Y0141263D02*
X0058264Y0141263D01*
X0058264Y0140280D02*
X0056508Y0140280D01*
X0056184Y0144211D02*
X0058264Y0144211D01*
X0058264Y0145194D02*
X0056295Y0145194D01*
X0056295Y0146176D02*
X0057939Y0146176D01*
X0057939Y0147159D02*
X0056295Y0147159D01*
X0056295Y0148142D02*
X0058316Y0148142D01*
X0059172Y0149125D02*
X0056295Y0149125D01*
X0056295Y0150107D02*
X0074012Y0150107D01*
X0074012Y0149125D02*
X0062828Y0149125D01*
X0063684Y0148142D02*
X0074012Y0148142D01*
X0074012Y0147159D02*
X0064061Y0147159D01*
X0064061Y0146176D02*
X0074012Y0146176D01*
X0074012Y0145194D02*
X0063720Y0145194D01*
X0062915Y0144211D02*
X0066758Y0144211D01*
X0066766Y0144219D02*
X0065905Y0143358D01*
X0065439Y0142233D01*
X0065439Y0141015D01*
X0065905Y0139890D01*
X0066138Y0139658D01*
X0066138Y0138258D01*
X0065509Y0138258D01*
X0064760Y0137508D01*
X0064760Y0124637D01*
X0065509Y0123888D01*
X0071294Y0123888D01*
X0072043Y0124637D01*
X0072043Y0137508D01*
X0071294Y0138258D01*
X0070665Y0138258D01*
X0070665Y0139461D01*
X0071095Y0139890D01*
X0071561Y0141015D01*
X0071561Y0142233D01*
X0071095Y0143358D01*
X0070234Y0144219D01*
X0069109Y0144685D01*
X0067891Y0144685D01*
X0066766Y0144219D01*
X0065852Y0143228D02*
X0062791Y0143228D01*
X0062791Y0142245D02*
X0065445Y0142245D01*
X0065439Y0141263D02*
X0062791Y0141263D01*
X0062791Y0140280D02*
X0065744Y0140280D01*
X0066138Y0139297D02*
X0062791Y0139297D01*
X0062791Y0138314D02*
X0066138Y0138314D01*
X0064760Y0137332D02*
X0064169Y0137332D01*
X0064169Y0136349D02*
X0064760Y0136349D01*
X0064760Y0135366D02*
X0064169Y0135366D01*
X0064169Y0134383D02*
X0064760Y0134383D01*
X0064760Y0133400D02*
X0064169Y0133400D01*
X0064169Y0132418D02*
X0064760Y0132418D01*
X0064760Y0131435D02*
X0064169Y0131435D01*
X0064169Y0130452D02*
X0064760Y0130452D01*
X0064760Y0129469D02*
X0064169Y0129469D01*
X0064169Y0128487D02*
X0064760Y0128487D01*
X0064760Y0127504D02*
X0064169Y0127504D01*
X0064169Y0126521D02*
X0064760Y0126521D01*
X0064760Y0125538D02*
X0064169Y0125538D01*
X0064088Y0124556D02*
X0064842Y0124556D01*
X0071962Y0124556D02*
X0072716Y0124556D01*
X0072634Y0125538D02*
X0072043Y0125538D01*
X0072043Y0126521D02*
X0072634Y0126521D01*
X0072634Y0127504D02*
X0072043Y0127504D01*
X0072043Y0128487D02*
X0072634Y0128487D01*
X0072634Y0129469D02*
X0072043Y0129469D01*
X0072043Y0130452D02*
X0072634Y0130452D01*
X0072634Y0131435D02*
X0072043Y0131435D01*
X0072043Y0132418D02*
X0072634Y0132418D01*
X0072634Y0133400D02*
X0072043Y0133400D01*
X0072043Y0134383D02*
X0072634Y0134383D01*
X0072634Y0135366D02*
X0072043Y0135366D01*
X0072043Y0136349D02*
X0072634Y0136349D01*
X0072634Y0137332D02*
X0072043Y0137332D01*
X0070665Y0138314D02*
X0074012Y0138314D01*
X0074012Y0139297D02*
X0070665Y0139297D01*
X0071256Y0140280D02*
X0074012Y0140280D01*
X0074012Y0141263D02*
X0071561Y0141263D01*
X0071555Y0142245D02*
X0074012Y0142245D01*
X0074012Y0143228D02*
X0071148Y0143228D01*
X0070241Y0144211D02*
X0074012Y0144211D01*
X0078539Y0144211D02*
X0081758Y0144211D01*
X0081766Y0144219D02*
X0080905Y0143358D01*
X0080439Y0142233D01*
X0080439Y0141015D01*
X0080905Y0139890D01*
X0081766Y0139029D01*
X0081886Y0138980D01*
X0081886Y0138258D01*
X0081257Y0138258D01*
X0080508Y0137508D01*
X0080508Y0124637D01*
X0081257Y0123888D01*
X0087042Y0123888D01*
X0087791Y0124637D01*
X0087791Y0137508D01*
X0087042Y0138258D01*
X0086413Y0138258D01*
X0086413Y0140660D01*
X0086561Y0141015D01*
X0086561Y0142233D01*
X0086095Y0143358D01*
X0085234Y0144219D01*
X0084109Y0144685D01*
X0082891Y0144685D01*
X0081766Y0144219D01*
X0080852Y0143228D02*
X0078539Y0143228D01*
X0078539Y0142245D02*
X0080445Y0142245D01*
X0080439Y0141263D02*
X0078539Y0141263D01*
X0078539Y0140280D02*
X0080744Y0140280D01*
X0081499Y0139297D02*
X0078539Y0139297D01*
X0078539Y0138314D02*
X0081886Y0138314D01*
X0080508Y0137332D02*
X0079917Y0137332D01*
X0079917Y0136349D02*
X0080508Y0136349D01*
X0080508Y0135366D02*
X0079917Y0135366D01*
X0079917Y0134383D02*
X0080508Y0134383D01*
X0080508Y0133400D02*
X0079917Y0133400D01*
X0079917Y0132418D02*
X0080508Y0132418D01*
X0080508Y0131435D02*
X0079917Y0131435D01*
X0079917Y0130452D02*
X0080508Y0130452D01*
X0080508Y0129469D02*
X0079917Y0129469D01*
X0079917Y0128487D02*
X0080508Y0128487D01*
X0080508Y0127504D02*
X0079917Y0127504D01*
X0079917Y0126521D02*
X0080508Y0126521D01*
X0080508Y0125538D02*
X0079917Y0125538D01*
X0079836Y0124556D02*
X0080590Y0124556D01*
X0082725Y0113494D02*
X0081630Y0112399D01*
X0081630Y0112399D01*
X0079130Y0109899D01*
X0079130Y0089899D01*
X0077725Y0088494D01*
X0062725Y0088494D01*
X0061630Y0087399D01*
X0059130Y0084899D01*
X0059130Y0064154D01*
X0055470Y0064154D01*
X0054720Y0063404D01*
X0054720Y0059844D01*
X0055440Y0059124D01*
X0054995Y0058678D01*
X0052398Y0061275D01*
X0052398Y0061277D01*
X0054504Y0063383D01*
X0054504Y0064695D01*
X0055329Y0064695D01*
X0056079Y0065444D01*
X0056079Y0072804D01*
X0055370Y0073512D01*
X0055370Y0112399D01*
X0054275Y0113494D01*
X0049275Y0113494D01*
X0048015Y0114754D01*
X0049275Y0114754D01*
X0092725Y0114754D01*
X0094130Y0113349D01*
X0094130Y0070994D01*
X0093579Y0070994D01*
X0093579Y0072804D01*
X0092829Y0073553D01*
X0086651Y0073553D01*
X0086113Y0073016D01*
X0086013Y0073190D01*
X0085735Y0073468D01*
X0085395Y0073664D01*
X0085015Y0073766D01*
X0082752Y0073766D01*
X0082752Y0069616D01*
X0081768Y0069616D01*
X0081768Y0073766D01*
X0079504Y0073766D01*
X0079125Y0073664D01*
X0078785Y0073468D01*
X0078507Y0073190D01*
X0078310Y0072850D01*
X0078209Y0072470D01*
X0078209Y0069616D01*
X0081768Y0069616D01*
X0081768Y0068632D01*
X0082752Y0068632D01*
X0082752Y0064482D01*
X0085015Y0064482D01*
X0085395Y0064584D01*
X0085735Y0064780D01*
X0086013Y0065058D01*
X0086113Y0065232D01*
X0086651Y0064695D01*
X0092829Y0064695D01*
X0093579Y0065444D01*
X0093579Y0067254D01*
X0094130Y0067254D01*
X0094130Y0064899D01*
X0092725Y0063494D01*
X0091457Y0063494D01*
X0091183Y0063768D01*
X0090253Y0064154D01*
X0081747Y0064154D01*
X0080817Y0063768D01*
X0080106Y0063057D01*
X0079720Y0062127D01*
X0079720Y0061121D01*
X0080106Y0060191D01*
X0080817Y0059480D01*
X0081604Y0059154D01*
X0080470Y0059154D01*
X0079720Y0058404D01*
X0079720Y0054844D01*
X0080440Y0054124D01*
X0079720Y0053404D01*
X0079720Y0049844D01*
X0080440Y0049124D01*
X0079720Y0048404D01*
X0079720Y0046624D01*
X0067280Y0046624D01*
X0067280Y0048404D01*
X0066655Y0049029D01*
X0066916Y0049180D01*
X0067194Y0049458D01*
X0067390Y0049798D01*
X0067492Y0050178D01*
X0067492Y0051491D01*
X0061133Y0051491D01*
X0061133Y0051757D01*
X0067492Y0051757D01*
X0067492Y0053070D01*
X0067390Y0053450D01*
X0067194Y0053790D01*
X0066916Y0054068D01*
X0066655Y0054219D01*
X0067280Y0054844D01*
X0067280Y0058404D01*
X0066560Y0059124D01*
X0067280Y0059844D01*
X0067280Y0063404D01*
X0066530Y0064154D01*
X0062870Y0064154D01*
X0062870Y0083349D01*
X0064275Y0084754D01*
X0079275Y0084754D01*
X0082870Y0088349D01*
X0082870Y0090212D01*
X0083179Y0089903D01*
X0085009Y0089144D01*
X0086990Y0089144D01*
X0088821Y0089903D01*
X0090221Y0091303D01*
X0090980Y0093134D01*
X0090980Y0095115D01*
X0090221Y0096945D01*
X0088821Y0098345D01*
X0086990Y0099104D01*
X0085009Y0099104D01*
X0083179Y0098345D01*
X0082870Y0098036D01*
X0082870Y0100212D01*
X0083179Y0099903D01*
X0085009Y0099144D01*
X0086990Y0099144D01*
X0088821Y0099903D01*
X0090221Y0101303D01*
X0090980Y0103134D01*
X0090980Y0105115D01*
X0090221Y0106945D01*
X0088821Y0108345D01*
X0086990Y0109104D01*
X0085009Y0109104D01*
X0083179Y0108345D01*
X0082870Y0108036D01*
X0082870Y0108349D01*
X0084275Y0109754D01*
X0089098Y0109754D01*
X0089489Y0109363D01*
X0090470Y0108957D01*
X0091530Y0108957D01*
X0092511Y0109363D01*
X0093261Y0110113D01*
X0093667Y0111094D01*
X0093667Y0112155D01*
X0093261Y0113135D01*
X0092511Y0113885D01*
X0091530Y0114291D01*
X0090470Y0114291D01*
X0089489Y0113885D01*
X0089098Y0113494D01*
X0082725Y0113494D01*
X0081994Y0112762D02*
X0055006Y0112762D01*
X0055370Y0111780D02*
X0081011Y0111780D01*
X0080028Y0110797D02*
X0055370Y0110797D01*
X0055370Y0109814D02*
X0079130Y0109814D01*
X0079130Y0108831D02*
X0055370Y0108831D01*
X0055370Y0107849D02*
X0079130Y0107849D01*
X0079130Y0106866D02*
X0055370Y0106866D01*
X0055370Y0105883D02*
X0079130Y0105883D01*
X0079130Y0104900D02*
X0055370Y0104900D01*
X0055370Y0103918D02*
X0079130Y0103918D01*
X0079130Y0102935D02*
X0055370Y0102935D01*
X0055370Y0101952D02*
X0079130Y0101952D01*
X0079130Y0100969D02*
X0055370Y0100969D01*
X0055370Y0099987D02*
X0079130Y0099987D01*
X0079130Y0099004D02*
X0055370Y0099004D01*
X0055370Y0098021D02*
X0079130Y0098021D01*
X0079130Y0097038D02*
X0055370Y0097038D01*
X0055370Y0096055D02*
X0079130Y0096055D01*
X0079130Y0095073D02*
X0055370Y0095073D01*
X0055370Y0094090D02*
X0079130Y0094090D01*
X0079130Y0093107D02*
X0055370Y0093107D01*
X0055370Y0092124D02*
X0079130Y0092124D01*
X0079130Y0091142D02*
X0055370Y0091142D01*
X0055370Y0090159D02*
X0079130Y0090159D01*
X0078407Y0089176D02*
X0055370Y0089176D01*
X0055370Y0088193D02*
X0062425Y0088193D01*
X0061442Y0087211D02*
X0055370Y0087211D01*
X0055370Y0086228D02*
X0060459Y0086228D01*
X0059476Y0085245D02*
X0055370Y0085245D01*
X0055370Y0084262D02*
X0059130Y0084262D01*
X0059130Y0083280D02*
X0055370Y0083280D01*
X0055370Y0082297D02*
X0059130Y0082297D01*
X0059130Y0081314D02*
X0055370Y0081314D01*
X0055370Y0080331D02*
X0059130Y0080331D01*
X0059130Y0079348D02*
X0055370Y0079348D01*
X0055370Y0078366D02*
X0059130Y0078366D01*
X0059130Y0077383D02*
X0055370Y0077383D01*
X0055370Y0076400D02*
X0059130Y0076400D01*
X0059130Y0075417D02*
X0055370Y0075417D01*
X0055370Y0074435D02*
X0059130Y0074435D01*
X0059130Y0073452D02*
X0055430Y0073452D01*
X0056079Y0072469D02*
X0059130Y0072469D01*
X0059130Y0071486D02*
X0056079Y0071486D01*
X0056079Y0070504D02*
X0059130Y0070504D01*
X0059130Y0069521D02*
X0056079Y0069521D01*
X0056079Y0068538D02*
X0059130Y0068538D01*
X0059130Y0067555D02*
X0056079Y0067555D01*
X0056079Y0066573D02*
X0059130Y0066573D01*
X0059130Y0065590D02*
X0056079Y0065590D01*
X0054504Y0064607D02*
X0059130Y0064607D01*
X0062870Y0064607D02*
X0079085Y0064607D01*
X0079125Y0064584D02*
X0079504Y0064482D01*
X0081768Y0064482D01*
X0081768Y0068632D01*
X0078209Y0068632D01*
X0078209Y0065778D01*
X0078310Y0065398D01*
X0078507Y0065058D01*
X0078785Y0064780D01*
X0079125Y0064584D01*
X0078259Y0065590D02*
X0062870Y0065590D01*
X0062870Y0066573D02*
X0078209Y0066573D01*
X0078209Y0067555D02*
X0062870Y0067555D01*
X0062870Y0068538D02*
X0078209Y0068538D01*
X0078209Y0070504D02*
X0062870Y0070504D01*
X0062870Y0071486D02*
X0078209Y0071486D01*
X0078209Y0072469D02*
X0062870Y0072469D01*
X0062870Y0073452D02*
X0078769Y0073452D01*
X0081768Y0073452D02*
X0082752Y0073452D01*
X0082752Y0072469D02*
X0081768Y0072469D01*
X0081768Y0071486D02*
X0082752Y0071486D01*
X0082752Y0070504D02*
X0081768Y0070504D01*
X0081768Y0069521D02*
X0062870Y0069521D01*
X0062870Y0074435D02*
X0094130Y0074435D01*
X0094130Y0075417D02*
X0062870Y0075417D01*
X0062870Y0076400D02*
X0094130Y0076400D01*
X0094130Y0077383D02*
X0062870Y0077383D01*
X0062870Y0078366D02*
X0094130Y0078366D01*
X0094130Y0079348D02*
X0062870Y0079348D01*
X0062870Y0080331D02*
X0094130Y0080331D01*
X0094130Y0081314D02*
X0062870Y0081314D01*
X0062870Y0082297D02*
X0094130Y0082297D01*
X0094130Y0083280D02*
X0062870Y0083280D01*
X0063783Y0084262D02*
X0094130Y0084262D01*
X0094130Y0085245D02*
X0079766Y0085245D01*
X0080749Y0086228D02*
X0094130Y0086228D01*
X0094130Y0087211D02*
X0081731Y0087211D01*
X0082714Y0088193D02*
X0094130Y0088193D01*
X0094130Y0089176D02*
X0087067Y0089176D01*
X0089077Y0090159D02*
X0094130Y0090159D01*
X0094130Y0091142D02*
X0090060Y0091142D01*
X0090562Y0092124D02*
X0094130Y0092124D01*
X0094130Y0093107D02*
X0090969Y0093107D01*
X0090980Y0094090D02*
X0094130Y0094090D01*
X0094130Y0095073D02*
X0090980Y0095073D01*
X0090590Y0096055D02*
X0094130Y0096055D01*
X0094130Y0097038D02*
X0090128Y0097038D01*
X0089145Y0098021D02*
X0094130Y0098021D01*
X0094130Y0099004D02*
X0087231Y0099004D01*
X0088905Y0099987D02*
X0094130Y0099987D01*
X0094130Y0100969D02*
X0089887Y0100969D01*
X0090490Y0101952D02*
X0094130Y0101952D01*
X0094130Y0102935D02*
X0090897Y0102935D01*
X0090980Y0103918D02*
X0094130Y0103918D01*
X0094130Y0104900D02*
X0090980Y0104900D01*
X0090661Y0105883D02*
X0094130Y0105883D01*
X0094130Y0106866D02*
X0090254Y0106866D01*
X0089317Y0107849D02*
X0094130Y0107849D01*
X0094130Y0108831D02*
X0087647Y0108831D01*
X0084353Y0108831D02*
X0083352Y0108831D01*
X0089350Y0113745D02*
X0049023Y0113745D01*
X0048041Y0114728D02*
X0092751Y0114728D01*
X0092650Y0113745D02*
X0093734Y0113745D01*
X0093415Y0112762D02*
X0094130Y0112762D01*
X0094130Y0111780D02*
X0093667Y0111780D01*
X0093544Y0110797D02*
X0094130Y0110797D01*
X0094130Y0109814D02*
X0092962Y0109814D01*
X0100627Y0119642D02*
X0104130Y0119642D01*
X0104130Y0118659D02*
X0101610Y0118659D01*
X0102592Y0117676D02*
X0104130Y0117676D01*
X0104130Y0116694D02*
X0102870Y0116694D01*
X0102870Y0115711D02*
X0104130Y0115711D01*
X0104130Y0114728D02*
X0102870Y0114728D01*
X0102870Y0113745D02*
X0104130Y0113745D01*
X0104130Y0112762D02*
X0102870Y0112762D01*
X0102870Y0111780D02*
X0104130Y0111780D01*
X0104130Y0110797D02*
X0102870Y0110797D01*
X0102955Y0109814D02*
X0104130Y0109814D01*
X0104130Y0108831D02*
X0103937Y0108831D01*
X0107870Y0108831D02*
X0128736Y0108831D01*
X0128736Y0107849D02*
X0107870Y0107849D01*
X0107870Y0106866D02*
X0128736Y0106866D01*
X0128736Y0105883D02*
X0107870Y0105883D01*
X0107870Y0104900D02*
X0128736Y0104900D01*
X0128736Y0103918D02*
X0107870Y0103918D01*
X0107870Y0102935D02*
X0128736Y0102935D01*
X0128736Y0101952D02*
X0107870Y0101952D01*
X0107870Y0100969D02*
X0128736Y0100969D01*
X0128736Y0099987D02*
X0107870Y0099987D01*
X0107870Y0099004D02*
X0128736Y0099004D01*
X0128736Y0098021D02*
X0107870Y0098021D01*
X0107870Y0097038D02*
X0128736Y0097038D01*
X0128736Y0096055D02*
X0118211Y0096055D01*
X0117751Y0096246D02*
X0119023Y0095719D01*
X0119997Y0094746D01*
X0120524Y0093474D01*
X0120524Y0092097D01*
X0119997Y0090825D01*
X0119023Y0089852D01*
X0117751Y0089325D01*
X0116375Y0089325D01*
X0115103Y0089852D01*
X0114129Y0090825D01*
X0113602Y0092097D01*
X0113602Y0093474D01*
X0114129Y0094746D01*
X0115103Y0095719D01*
X0116375Y0096246D01*
X0117751Y0096246D01*
X0115915Y0096055D02*
X0107870Y0096055D01*
X0107870Y0095073D02*
X0114456Y0095073D01*
X0113858Y0094090D02*
X0107870Y0094090D01*
X0107870Y0093107D02*
X0113602Y0093107D01*
X0113602Y0092124D02*
X0107870Y0092124D01*
X0107870Y0091142D02*
X0113998Y0091142D01*
X0114795Y0090159D02*
X0107870Y0090159D01*
X0107870Y0089176D02*
X0128736Y0089176D01*
X0128736Y0088193D02*
X0107870Y0088193D01*
X0107870Y0087211D02*
X0128736Y0087211D01*
X0128736Y0086228D02*
X0107870Y0086228D01*
X0107870Y0085245D02*
X0128736Y0085245D01*
X0128736Y0084262D02*
X0107870Y0084262D01*
X0107870Y0083280D02*
X0128736Y0083280D01*
X0128736Y0082297D02*
X0107870Y0082297D01*
X0107870Y0081314D02*
X0128736Y0081314D01*
X0128736Y0080331D02*
X0107870Y0080331D01*
X0107870Y0079348D02*
X0128736Y0079348D01*
X0128736Y0078366D02*
X0119054Y0078366D01*
X0119023Y0078396D02*
X0117751Y0078923D01*
X0116375Y0078923D01*
X0115103Y0078396D01*
X0114129Y0077423D01*
X0113602Y0076151D01*
X0113602Y0074774D01*
X0114129Y0073502D01*
X0115103Y0072529D01*
X0116375Y0072002D01*
X0117751Y0072002D01*
X0119023Y0072529D01*
X0119997Y0073502D01*
X0120524Y0074774D01*
X0120524Y0076151D01*
X0119997Y0077423D01*
X0119023Y0078396D01*
X0120013Y0077383D02*
X0128736Y0077383D01*
X0128736Y0076400D02*
X0120420Y0076400D01*
X0120524Y0075417D02*
X0128736Y0075417D01*
X0128736Y0074435D02*
X0120383Y0074435D01*
X0119946Y0073452D02*
X0128736Y0073452D01*
X0128736Y0072469D02*
X0118879Y0072469D01*
X0115247Y0072469D02*
X0107870Y0072469D01*
X0107870Y0071486D02*
X0128736Y0071486D01*
X0128736Y0070504D02*
X0107870Y0070504D01*
X0107870Y0069521D02*
X0128736Y0069521D01*
X0128736Y0068538D02*
X0107870Y0068538D01*
X0107870Y0067555D02*
X0128736Y0067555D01*
X0128736Y0066573D02*
X0107870Y0066573D01*
X0107870Y0065590D02*
X0128736Y0065590D01*
X0128736Y0064607D02*
X0107870Y0064607D01*
X0107870Y0063624D02*
X0128736Y0063624D01*
X0128736Y0062642D02*
X0107870Y0062642D01*
X0107870Y0061659D02*
X0128736Y0061659D01*
X0128736Y0060676D02*
X0107870Y0060676D01*
X0107870Y0059693D02*
X0128736Y0059693D01*
X0128736Y0058710D02*
X0107870Y0058710D01*
X0107248Y0057728D02*
X0128736Y0057728D01*
X0128736Y0056745D02*
X0106266Y0056745D01*
X0105283Y0055762D02*
X0128736Y0055762D01*
X0128736Y0054779D02*
X0104300Y0054779D01*
X0103317Y0053797D02*
X0128736Y0053797D01*
X0128736Y0052814D02*
X0102335Y0052814D01*
X0101352Y0051831D02*
X0128736Y0051831D01*
X0128736Y0050848D02*
X0100369Y0050848D01*
X0099962Y0049866D02*
X0101753Y0049866D01*
X0101476Y0048883D02*
X0100311Y0048883D01*
X0100311Y0047900D02*
X0101476Y0047900D01*
X0100311Y0046917D02*
X0104248Y0046917D01*
X0104839Y0046917D02*
X0110307Y0046917D01*
X0112480Y0046917D02*
X0128736Y0046917D01*
X0128736Y0047900D02*
X0107610Y0047900D01*
X0107610Y0048883D02*
X0128736Y0048883D01*
X0128736Y0049866D02*
X0107333Y0049866D01*
X0104839Y0049866D02*
X0104248Y0049866D01*
X0104248Y0048883D02*
X0104839Y0048883D01*
X0104839Y0047900D02*
X0104248Y0047900D01*
X0101524Y0039360D02*
X0100311Y0039360D01*
X0100311Y0033732D01*
X0099561Y0032982D01*
X0095352Y0032982D01*
X0095272Y0033063D01*
X0095272Y0030185D01*
X0095608Y0030522D01*
X0101392Y0030522D01*
X0101571Y0030343D01*
X0101571Y0031741D01*
X0102320Y0032490D01*
X0109680Y0032490D01*
X0110429Y0031741D01*
X0110429Y0030088D01*
X0111571Y0030001D01*
X0111571Y0030973D01*
X0112222Y0031624D01*
X0111571Y0032275D01*
X0111571Y0034360D01*
X0110062Y0034360D01*
X0108736Y0035686D01*
X0107503Y0036919D01*
X0104839Y0036919D01*
X0104839Y0036329D01*
X0107610Y0036329D01*
X0107610Y0034065D01*
X0107509Y0033686D01*
X0107312Y0033346D01*
X0107034Y0033068D01*
X0106694Y0032871D01*
X0106315Y0032770D01*
X0104839Y0032770D01*
X0104839Y0036329D01*
X0104248Y0036329D01*
X0101476Y0036329D01*
X0101476Y0034065D01*
X0101578Y0033686D01*
X0101775Y0033346D01*
X0102052Y0033068D01*
X0102393Y0032871D01*
X0102772Y0032770D01*
X0104248Y0032770D01*
X0104248Y0036329D01*
X0104248Y0036919D01*
X0101476Y0036919D01*
X0101476Y0039183D01*
X0101524Y0039360D01*
X0101476Y0039055D02*
X0100311Y0039055D01*
X0100311Y0038072D02*
X0101476Y0038072D01*
X0101476Y0037090D02*
X0100311Y0037090D01*
X0100311Y0036107D02*
X0101476Y0036107D01*
X0101476Y0035124D02*
X0100311Y0035124D01*
X0100311Y0034141D02*
X0101476Y0034141D01*
X0101962Y0033159D02*
X0099738Y0033159D01*
X0102006Y0032176D02*
X0095272Y0032176D01*
X0095272Y0031193D02*
X0101571Y0031193D01*
X0104248Y0033159D02*
X0104839Y0033159D01*
X0104839Y0034141D02*
X0104248Y0034141D01*
X0104248Y0035124D02*
X0104839Y0035124D01*
X0104839Y0036107D02*
X0104248Y0036107D01*
X0107610Y0036107D02*
X0108316Y0036107D01*
X0107610Y0035124D02*
X0109298Y0035124D01*
X0107610Y0034141D02*
X0111571Y0034141D01*
X0111571Y0033159D02*
X0107125Y0033159D01*
X0109994Y0032176D02*
X0111670Y0032176D01*
X0111791Y0031193D02*
X0110429Y0031193D01*
X0110429Y0030210D02*
X0111571Y0030210D01*
X0111571Y0026447D02*
X0110429Y0026535D01*
X0110429Y0025563D01*
X0109892Y0025025D01*
X0110066Y0024924D01*
X0110344Y0024646D01*
X0110540Y0024306D01*
X0110642Y0023927D01*
X0110642Y0021663D01*
X0106492Y0021663D01*
X0106492Y0020679D01*
X0106492Y0017120D01*
X0107712Y0017120D01*
X0107343Y0016229D01*
X0107343Y0014617D01*
X0107959Y0013128D01*
X0109099Y0011989D01*
X0110588Y0011372D01*
X0112200Y0011372D01*
X0113689Y0011989D01*
X0114828Y0013128D01*
X0115445Y0014617D01*
X0115445Y0016229D01*
X0114828Y0017718D01*
X0113689Y0018858D01*
X0112200Y0019474D01*
X0110642Y0019474D01*
X0110642Y0020679D01*
X0106492Y0020679D01*
X0105508Y0020679D01*
X0105508Y0017120D01*
X0102654Y0017120D01*
X0102274Y0017222D01*
X0101934Y0017418D01*
X0101656Y0017696D01*
X0101637Y0017730D01*
X0101438Y0017615D01*
X0101059Y0017514D01*
X0098795Y0017514D01*
X0098795Y0020285D01*
X0098205Y0020285D01*
X0098205Y0017514D01*
X0095941Y0017514D01*
X0095562Y0017615D01*
X0095222Y0017812D01*
X0094944Y0018090D01*
X0094747Y0018430D01*
X0094646Y0018809D01*
X0094646Y0020285D01*
X0098205Y0020285D01*
X0098205Y0020876D01*
X0098205Y0023648D01*
X0095941Y0023648D01*
X0095562Y0023546D01*
X0095222Y0023349D01*
X0094944Y0023072D01*
X0094747Y0022731D01*
X0094646Y0022352D01*
X0094646Y0020876D01*
X0098205Y0020876D01*
X0098795Y0020876D01*
X0098795Y0023648D01*
X0101059Y0023648D01*
X0101358Y0023567D01*
X0101358Y0023927D01*
X0101460Y0024306D01*
X0101656Y0024646D01*
X0101934Y0024924D01*
X0102108Y0025025D01*
X0101856Y0025277D01*
X0101392Y0024813D01*
X0095608Y0024813D01*
X0094858Y0025563D01*
X0094858Y0025896D01*
X0094223Y0025896D01*
X0093185Y0026933D01*
X0092280Y0027839D01*
X0092280Y0024844D01*
X0091530Y0024094D01*
X0088264Y0024094D01*
X0088264Y0023128D01*
X0088667Y0022155D01*
X0088667Y0021094D01*
X0088261Y0020113D01*
X0087511Y0019363D01*
X0086530Y0018957D01*
X0085470Y0018957D01*
X0084489Y0019363D01*
X0083739Y0020113D01*
X0083333Y0021094D01*
X0083333Y0022155D01*
X0083736Y0023128D01*
X0083736Y0024094D01*
X0080470Y0024094D01*
X0079720Y0024844D01*
X0079720Y0028404D01*
X0080440Y0029124D01*
X0080204Y0029360D01*
X0077562Y0029360D01*
X0076236Y0030686D01*
X0075463Y0031460D01*
X0074489Y0031863D01*
X0073739Y0032613D01*
X0073333Y0033594D01*
X0073333Y0034655D01*
X0073739Y0035635D01*
X0074489Y0036385D01*
X0075470Y0036791D01*
X0076530Y0036791D01*
X0077511Y0036385D01*
X0078261Y0035635D01*
X0078664Y0034661D01*
X0079438Y0033888D01*
X0080204Y0033888D01*
X0080440Y0034124D01*
X0079720Y0034844D01*
X0079720Y0038404D01*
X0080440Y0039124D01*
X0079720Y0039844D01*
X0079720Y0041624D01*
X0061133Y0041624D01*
X0061133Y0041491D01*
X0067492Y0041491D01*
X0067492Y0040178D01*
X0067390Y0039798D01*
X0067194Y0039458D01*
X0066916Y0039180D01*
X0066655Y0039029D01*
X0067280Y0038404D01*
X0067280Y0034844D01*
X0066560Y0034124D01*
X0067280Y0033404D01*
X0067280Y0029844D01*
X0066560Y0029124D01*
X0067280Y0028404D01*
X0067280Y0024844D01*
X0066530Y0024094D01*
X0055470Y0024094D01*
X0054720Y0024844D01*
X0054720Y0024852D01*
X0052777Y0024852D01*
X0052142Y0024217D01*
X0052142Y0020976D01*
X0051392Y0020226D01*
X0045608Y0020226D01*
X0044858Y0020976D01*
X0044858Y0025186D01*
X0045608Y0025935D01*
X0048849Y0025935D01*
X0050227Y0027313D01*
X0045608Y0027313D01*
X0044858Y0028063D01*
X0044858Y0032272D01*
X0045460Y0032874D01*
X0044858Y0033476D01*
X0044858Y0037686D01*
X0045608Y0038435D01*
X0051392Y0038435D01*
X0051432Y0038396D01*
X0054720Y0038396D01*
X0054720Y0038404D01*
X0055345Y0039029D01*
X0055084Y0039180D01*
X0054806Y0039458D01*
X0054610Y0039798D01*
X0054508Y0040178D01*
X0054508Y0041491D01*
X0060867Y0041491D01*
X0060867Y0041624D01*
X0052354Y0041624D01*
X0052354Y0040896D01*
X0052253Y0040517D01*
X0052056Y0040176D01*
X0051778Y0039899D01*
X0051438Y0039702D01*
X0051059Y0039600D01*
X0048795Y0039600D01*
X0048795Y0041624D01*
X0048205Y0041624D01*
X0048205Y0039600D01*
X0045941Y0039600D01*
X0045562Y0039702D01*
X0045222Y0039899D01*
X0044944Y0040176D01*
X0044747Y0040517D01*
X0044646Y0040896D01*
X0044646Y0041624D01*
X0043500Y0041624D01*
X0043500Y0009124D01*
X0131284Y0009124D01*
X0133263Y0010562D01*
X0133500Y0010888D01*
X0133500Y0041624D01*
X0131701Y0041624D01*
X0129438Y0039360D01*
X0118264Y0039360D01*
X0118264Y0039203D01*
X0119680Y0039203D01*
X0120429Y0038453D01*
X0120429Y0032275D01*
X0119778Y0031624D01*
X0120429Y0030973D01*
X0120429Y0024795D01*
X0119680Y0024045D01*
X0112320Y0024045D01*
X0111571Y0024795D01*
X0111571Y0026447D01*
X0111571Y0026279D02*
X0110429Y0026279D01*
X0110163Y0025297D02*
X0111571Y0025297D01*
X0112052Y0024314D02*
X0110536Y0024314D01*
X0110642Y0023331D02*
X0133500Y0023331D01*
X0133500Y0024314D02*
X0119948Y0024314D01*
X0120429Y0025297D02*
X0133500Y0025297D01*
X0133500Y0026279D02*
X0120429Y0026279D01*
X0120429Y0027262D02*
X0133500Y0027262D01*
X0133500Y0028245D02*
X0120429Y0028245D01*
X0120429Y0029228D02*
X0133500Y0029228D01*
X0133500Y0030210D02*
X0120429Y0030210D01*
X0120209Y0031193D02*
X0133500Y0031193D01*
X0133500Y0032176D02*
X0120330Y0032176D01*
X0120429Y0033159D02*
X0133500Y0033159D01*
X0133500Y0034141D02*
X0120429Y0034141D01*
X0120429Y0035124D02*
X0133500Y0035124D01*
X0133500Y0036107D02*
X0120429Y0036107D01*
X0120429Y0037090D02*
X0133500Y0037090D01*
X0133500Y0038072D02*
X0120429Y0038072D01*
X0119827Y0039055D02*
X0133500Y0039055D01*
X0133500Y0040038D02*
X0130115Y0040038D01*
X0131098Y0041021D02*
X0133500Y0041021D01*
X0133500Y0022348D02*
X0110642Y0022348D01*
X0110642Y0020383D02*
X0133500Y0020383D01*
X0133500Y0021365D02*
X0106492Y0021365D01*
X0106000Y0021171D02*
X0106000Y0020581D01*
X0098500Y0020581D01*
X0098795Y0020383D02*
X0101358Y0020383D01*
X0101358Y0020285D02*
X0098795Y0020285D01*
X0098795Y0020876D01*
X0102354Y0020876D01*
X0102354Y0021663D01*
X0105508Y0021663D01*
X0105508Y0020679D01*
X0101358Y0020679D01*
X0101358Y0020285D01*
X0102354Y0021365D02*
X0105508Y0021365D01*
X0105508Y0020383D02*
X0106492Y0020383D01*
X0106492Y0019400D02*
X0105508Y0019400D01*
X0105508Y0018417D02*
X0106492Y0018417D01*
X0106492Y0017434D02*
X0105508Y0017434D01*
X0107435Y0016452D02*
X0043500Y0016452D01*
X0043500Y0017434D02*
X0101918Y0017434D01*
X0098795Y0018417D02*
X0098205Y0018417D01*
X0098205Y0019400D02*
X0098795Y0019400D01*
X0098205Y0020383D02*
X0088372Y0020383D01*
X0088667Y0021365D02*
X0094646Y0021365D01*
X0094646Y0022348D02*
X0088587Y0022348D01*
X0088264Y0023331D02*
X0095203Y0023331D01*
X0095124Y0025297D02*
X0092280Y0025297D01*
X0092280Y0026279D02*
X0093839Y0026279D01*
X0092856Y0027262D02*
X0092280Y0027262D01*
X0093500Y0029124D02*
X0094957Y0027667D01*
X0098500Y0027667D01*
X0106000Y0027667D01*
X0106000Y0028652D01*
X0116000Y0027884D01*
X0112379Y0019400D02*
X0133500Y0019400D01*
X0133500Y0018417D02*
X0114129Y0018417D01*
X0114946Y0017434D02*
X0133500Y0017434D01*
X0133500Y0016452D02*
X0115353Y0016452D01*
X0115445Y0015469D02*
X0133500Y0015469D01*
X0133500Y0014486D02*
X0115390Y0014486D01*
X0114983Y0013503D02*
X0133500Y0013503D01*
X0133500Y0012521D02*
X0114220Y0012521D01*
X0112600Y0011538D02*
X0133500Y0011538D01*
X0133253Y0010555D02*
X0043500Y0010555D01*
X0043500Y0009572D02*
X0131901Y0009572D01*
X0110188Y0011538D02*
X0043500Y0011538D01*
X0043500Y0012521D02*
X0108567Y0012521D01*
X0107804Y0013503D02*
X0043500Y0013503D01*
X0043500Y0014486D02*
X0107397Y0014486D01*
X0107343Y0015469D02*
X0043500Y0015469D01*
X0043500Y0018417D02*
X0094755Y0018417D01*
X0094646Y0019400D02*
X0087548Y0019400D01*
X0084452Y0019400D02*
X0043500Y0019400D01*
X0043500Y0020383D02*
X0045451Y0020383D01*
X0044858Y0021365D02*
X0043500Y0021365D01*
X0043500Y0022348D02*
X0044858Y0022348D01*
X0044858Y0023331D02*
X0043500Y0023331D01*
X0043500Y0024314D02*
X0044858Y0024314D01*
X0044969Y0025297D02*
X0043500Y0025297D01*
X0043500Y0026279D02*
X0049193Y0026279D01*
X0050176Y0027262D02*
X0043500Y0027262D01*
X0043500Y0028245D02*
X0044858Y0028245D01*
X0044858Y0029228D02*
X0043500Y0029228D01*
X0043500Y0030210D02*
X0044858Y0030210D01*
X0044858Y0031193D02*
X0043500Y0031193D01*
X0043500Y0032176D02*
X0044858Y0032176D01*
X0045176Y0033159D02*
X0043500Y0033159D01*
X0043500Y0034141D02*
X0044858Y0034141D01*
X0044858Y0035124D02*
X0043500Y0035124D01*
X0043500Y0036107D02*
X0044858Y0036107D01*
X0044858Y0037090D02*
X0043500Y0037090D01*
X0043500Y0038072D02*
X0045245Y0038072D01*
X0045082Y0040038D02*
X0043500Y0040038D01*
X0043500Y0041021D02*
X0044646Y0041021D01*
X0043500Y0039055D02*
X0055300Y0039055D01*
X0054545Y0040038D02*
X0051918Y0040038D01*
X0052354Y0041021D02*
X0054508Y0041021D01*
X0049543Y0041624D02*
X0061000Y0041624D01*
X0061000Y0036624D02*
X0049543Y0036624D01*
X0048500Y0035581D01*
X0049957Y0031624D02*
X0061000Y0031624D01*
X0061000Y0026624D02*
X0052043Y0026624D01*
X0048500Y0023081D01*
X0051549Y0020383D02*
X0083627Y0020383D01*
X0083333Y0021365D02*
X0052142Y0021365D01*
X0052142Y0022348D02*
X0083413Y0022348D01*
X0083736Y0023331D02*
X0052142Y0023331D01*
X0052239Y0024314D02*
X0055251Y0024314D01*
X0048500Y0030167D02*
X0049957Y0031624D01*
X0048795Y0040038D02*
X0048205Y0040038D01*
X0048205Y0041021D02*
X0048795Y0041021D01*
X0049543Y0041624D02*
X0048500Y0042667D01*
X0047890Y0048888D02*
X0047890Y0050973D01*
X0047352Y0051511D01*
X0047526Y0051611D01*
X0047804Y0051889D01*
X0048001Y0052229D01*
X0048102Y0052609D01*
X0048102Y0054232D01*
X0045085Y0054232D01*
X0045085Y0055118D01*
X0048102Y0055118D01*
X0048102Y0056742D01*
X0048001Y0057121D01*
X0047804Y0057461D01*
X0047526Y0057739D01*
X0047186Y0057936D01*
X0046807Y0058037D01*
X0045085Y0058037D01*
X0045085Y0055118D01*
X0044199Y0055118D01*
X0044199Y0057770D01*
X0044228Y0057770D01*
X0044607Y0057871D01*
X0044948Y0058068D01*
X0045225Y0058346D01*
X0045422Y0058686D01*
X0045524Y0059065D01*
X0045524Y0061329D01*
X0042752Y0061329D01*
X0042752Y0061919D01*
X0045524Y0061919D01*
X0045524Y0064183D01*
X0045422Y0064562D01*
X0045345Y0064695D01*
X0046868Y0064695D01*
X0046689Y0064516D01*
X0046689Y0058732D01*
X0047438Y0057982D01*
X0050680Y0057982D01*
X0052772Y0055890D01*
X0053809Y0054852D01*
X0054720Y0054852D01*
X0054720Y0054844D01*
X0055345Y0054219D01*
X0055084Y0054068D01*
X0054806Y0053790D01*
X0054610Y0053450D01*
X0054508Y0053070D01*
X0054508Y0051757D01*
X0060867Y0051757D01*
X0060867Y0051491D01*
X0054508Y0051491D01*
X0054508Y0050178D01*
X0054610Y0049798D01*
X0054806Y0049458D01*
X0055084Y0049180D01*
X0055345Y0049029D01*
X0055204Y0048888D01*
X0047890Y0048888D01*
X0047890Y0049866D02*
X0054591Y0049866D01*
X0054508Y0050848D02*
X0047890Y0050848D01*
X0047746Y0051831D02*
X0054508Y0051831D01*
X0054508Y0052814D02*
X0048102Y0052814D01*
X0048102Y0053797D02*
X0054812Y0053797D01*
X0054785Y0054779D02*
X0045085Y0054779D01*
X0044199Y0054779D02*
X0040606Y0054779D01*
X0041181Y0055118D02*
X0044199Y0055118D01*
X0044199Y0054232D01*
X0041181Y0054232D01*
X0041181Y0052609D01*
X0041283Y0052229D01*
X0041479Y0051889D01*
X0041757Y0051611D01*
X0041931Y0051511D01*
X0041394Y0050973D01*
X0041394Y0046624D01*
X0040606Y0046624D01*
X0040606Y0050973D01*
X0039955Y0051624D01*
X0040606Y0052275D01*
X0040606Y0057075D01*
X0039857Y0057825D01*
X0039622Y0057825D01*
X0039622Y0058460D01*
X0039688Y0058346D01*
X0039966Y0058068D01*
X0040306Y0057871D01*
X0040685Y0057770D01*
X0041810Y0057770D01*
X0041757Y0057739D01*
X0041479Y0057461D01*
X0041283Y0057121D01*
X0041181Y0056742D01*
X0041181Y0055118D01*
X0041181Y0055762D02*
X0040606Y0055762D01*
X0040606Y0056745D02*
X0041182Y0056745D01*
X0041745Y0057728D02*
X0039954Y0057728D01*
X0039390Y0060676D02*
X0038909Y0060676D01*
X0037929Y0061659D02*
X0042161Y0061659D01*
X0042752Y0061659D02*
X0046689Y0061659D01*
X0046689Y0062642D02*
X0045524Y0062642D01*
X0045524Y0063624D02*
X0046689Y0063624D01*
X0046780Y0064607D02*
X0045396Y0064607D01*
X0045524Y0060676D02*
X0046689Y0060676D01*
X0046689Y0059693D02*
X0045524Y0059693D01*
X0045429Y0058710D02*
X0046710Y0058710D01*
X0047538Y0057728D02*
X0050934Y0057728D01*
X0051917Y0056745D02*
X0048101Y0056745D01*
X0048102Y0055762D02*
X0052900Y0055762D01*
X0054543Y0056624D02*
X0061000Y0056624D01*
X0067280Y0056745D02*
X0079720Y0056745D01*
X0079720Y0057728D02*
X0067280Y0057728D01*
X0066973Y0058710D02*
X0080027Y0058710D01*
X0080603Y0059693D02*
X0067129Y0059693D01*
X0067280Y0060676D02*
X0079905Y0060676D01*
X0079720Y0061659D02*
X0067280Y0061659D01*
X0067280Y0062642D02*
X0079934Y0062642D01*
X0080673Y0063624D02*
X0067059Y0063624D01*
X0067280Y0055762D02*
X0079720Y0055762D01*
X0079785Y0054779D02*
X0067215Y0054779D01*
X0067188Y0053797D02*
X0080113Y0053797D01*
X0079720Y0052814D02*
X0067492Y0052814D01*
X0067492Y0051831D02*
X0079720Y0051831D01*
X0079720Y0050848D02*
X0067492Y0050848D01*
X0067409Y0049866D02*
X0079720Y0049866D01*
X0080199Y0048883D02*
X0066801Y0048883D01*
X0067280Y0047900D02*
X0079720Y0047900D01*
X0079720Y0046917D02*
X0067280Y0046917D01*
X0067492Y0041021D02*
X0079720Y0041021D01*
X0079720Y0040038D02*
X0067455Y0040038D01*
X0066700Y0039055D02*
X0080372Y0039055D01*
X0079720Y0038072D02*
X0067280Y0038072D01*
X0067280Y0037090D02*
X0079720Y0037090D01*
X0079720Y0036107D02*
X0077789Y0036107D01*
X0078472Y0035124D02*
X0079720Y0035124D01*
X0079184Y0034141D02*
X0080423Y0034141D01*
X0080337Y0029228D02*
X0066663Y0029228D01*
X0067280Y0030210D02*
X0076712Y0030210D01*
X0075729Y0031193D02*
X0067280Y0031193D01*
X0067280Y0032176D02*
X0074177Y0032176D01*
X0073513Y0033159D02*
X0067280Y0033159D01*
X0066577Y0034141D02*
X0073333Y0034141D01*
X0073528Y0035124D02*
X0067280Y0035124D01*
X0067280Y0036107D02*
X0074211Y0036107D01*
X0079720Y0028245D02*
X0067280Y0028245D01*
X0067280Y0027262D02*
X0079720Y0027262D01*
X0079720Y0026279D02*
X0067280Y0026279D01*
X0067280Y0025297D02*
X0079720Y0025297D01*
X0080251Y0024314D02*
X0066749Y0024314D01*
X0054543Y0056624D02*
X0049543Y0061624D01*
X0052780Y0061659D02*
X0054720Y0061659D01*
X0054720Y0062642D02*
X0053762Y0062642D01*
X0054504Y0063624D02*
X0054941Y0063624D01*
X0054720Y0060676D02*
X0052997Y0060676D01*
X0053980Y0059693D02*
X0054871Y0059693D01*
X0054962Y0058710D02*
X0055027Y0058710D01*
X0045085Y0057728D02*
X0044199Y0057728D01*
X0044199Y0056745D02*
X0045085Y0056745D01*
X0045085Y0055762D02*
X0044199Y0055762D01*
X0041181Y0053797D02*
X0040606Y0053797D01*
X0040606Y0052814D02*
X0041181Y0052814D01*
X0041537Y0051831D02*
X0040162Y0051831D01*
X0040606Y0050848D02*
X0041394Y0050848D01*
X0041394Y0049866D02*
X0040606Y0049866D01*
X0040606Y0048883D02*
X0041394Y0048883D01*
X0041394Y0047900D02*
X0040606Y0047900D01*
X0040606Y0046917D02*
X0041394Y0046917D01*
X0034761Y0051624D02*
X0034110Y0050973D01*
X0034110Y0050717D01*
X0033892Y0050935D01*
X0028108Y0050935D01*
X0027358Y0050186D01*
X0027358Y0046624D01*
X0018500Y0046624D01*
X0018500Y0136479D01*
X0019130Y0137109D01*
X0019130Y0065849D01*
X0022725Y0062254D01*
X0029071Y0062254D01*
X0029071Y0059795D01*
X0029820Y0059045D01*
X0034137Y0059045D01*
X0035094Y0058088D01*
X0035094Y0057825D01*
X0034860Y0057825D01*
X0034606Y0057571D01*
X0034556Y0057658D01*
X0034278Y0057936D01*
X0033938Y0058133D01*
X0033559Y0058234D01*
X0031295Y0058234D01*
X0031295Y0055463D01*
X0030705Y0055463D01*
X0030705Y0058234D01*
X0028441Y0058234D01*
X0028062Y0058133D01*
X0027722Y0057936D01*
X0027444Y0057658D01*
X0027247Y0057318D01*
X0027146Y0056939D01*
X0027146Y0055463D01*
X0030705Y0055463D01*
X0030705Y0054872D01*
X0031295Y0054872D01*
X0031295Y0052100D01*
X0033559Y0052100D01*
X0033938Y0052202D01*
X0034110Y0052301D01*
X0034110Y0052275D01*
X0034761Y0051624D01*
X0034554Y0051831D02*
X0018500Y0051831D01*
X0018500Y0050848D02*
X0028021Y0050848D01*
X0027358Y0049866D02*
X0018500Y0049866D01*
X0018500Y0048883D02*
X0027358Y0048883D01*
X0027358Y0047900D02*
X0018500Y0047900D01*
X0018500Y0046917D02*
X0027358Y0046917D01*
X0028441Y0052100D02*
X0028062Y0052202D01*
X0027722Y0052399D01*
X0027444Y0052676D01*
X0027247Y0053017D01*
X0027146Y0053396D01*
X0027146Y0054872D01*
X0030705Y0054872D01*
X0030705Y0052100D01*
X0028441Y0052100D01*
X0027364Y0052814D02*
X0018500Y0052814D01*
X0018500Y0053797D02*
X0027146Y0053797D01*
X0027146Y0054779D02*
X0018500Y0054779D01*
X0018500Y0055762D02*
X0027146Y0055762D01*
X0027146Y0056745D02*
X0018500Y0056745D01*
X0018500Y0057728D02*
X0027513Y0057728D01*
X0029172Y0059693D02*
X0018500Y0059693D01*
X0018500Y0058710D02*
X0034472Y0058710D01*
X0034487Y0057728D02*
X0034763Y0057728D01*
X0031295Y0057728D02*
X0030705Y0057728D01*
X0030705Y0056745D02*
X0031295Y0056745D01*
X0031295Y0055762D02*
X0030705Y0055762D01*
X0030705Y0054779D02*
X0031295Y0054779D01*
X0031295Y0053797D02*
X0030705Y0053797D01*
X0030705Y0052814D02*
X0031295Y0052814D01*
X0033979Y0050848D02*
X0034110Y0050848D01*
X0029071Y0060676D02*
X0018500Y0060676D01*
X0018500Y0061659D02*
X0029071Y0061659D01*
X0029501Y0066573D02*
X0023696Y0066573D01*
X0022870Y0067555D02*
X0028873Y0067555D01*
X0028858Y0068538D02*
X0022870Y0068538D01*
X0022870Y0069521D02*
X0028858Y0069521D01*
X0028858Y0071486D02*
X0022870Y0071486D01*
X0022870Y0070504D02*
X0033008Y0070504D01*
X0033008Y0071486D02*
X0033992Y0071486D01*
X0033992Y0070504D02*
X0040921Y0070504D01*
X0040921Y0071486D02*
X0038142Y0071486D01*
X0038142Y0072469D02*
X0040921Y0072469D01*
X0041570Y0073452D02*
X0038053Y0073452D01*
X0038142Y0069521D02*
X0040921Y0069521D01*
X0040921Y0068538D02*
X0038142Y0068538D01*
X0038127Y0067555D02*
X0040921Y0067555D01*
X0040921Y0066573D02*
X0037499Y0066573D01*
X0037929Y0065590D02*
X0040921Y0065590D01*
X0039517Y0064607D02*
X0037929Y0064607D01*
X0037929Y0063624D02*
X0039390Y0063624D01*
X0039390Y0062642D02*
X0037929Y0062642D01*
X0033992Y0072469D02*
X0033008Y0072469D01*
X0033008Y0073452D02*
X0033992Y0073452D01*
X0028947Y0073452D02*
X0022870Y0073452D01*
X0022870Y0074435D02*
X0042890Y0074435D01*
X0042890Y0075417D02*
X0022870Y0075417D01*
X0022870Y0076400D02*
X0042890Y0076400D01*
X0042890Y0077383D02*
X0022870Y0077383D01*
X0022870Y0078366D02*
X0042890Y0078366D01*
X0042890Y0079348D02*
X0022870Y0079348D01*
X0022870Y0080331D02*
X0042890Y0080331D01*
X0042890Y0081314D02*
X0022870Y0081314D01*
X0022870Y0082297D02*
X0042890Y0082297D01*
X0042890Y0083280D02*
X0022870Y0083280D01*
X0022870Y0084262D02*
X0042890Y0084262D01*
X0042890Y0085245D02*
X0022870Y0085245D01*
X0022870Y0086228D02*
X0042890Y0086228D01*
X0042890Y0087211D02*
X0022870Y0087211D01*
X0022870Y0088193D02*
X0042890Y0088193D01*
X0042890Y0089176D02*
X0022870Y0089176D01*
X0022870Y0090159D02*
X0042890Y0090159D01*
X0042890Y0091142D02*
X0022870Y0091142D01*
X0022870Y0092124D02*
X0042890Y0092124D01*
X0042890Y0093107D02*
X0022870Y0093107D01*
X0022870Y0094090D02*
X0042890Y0094090D01*
X0042890Y0095073D02*
X0022870Y0095073D01*
X0022870Y0096055D02*
X0042890Y0096055D01*
X0042890Y0097038D02*
X0022870Y0097038D01*
X0022870Y0098021D02*
X0042890Y0098021D01*
X0042890Y0099004D02*
X0022870Y0099004D01*
X0022870Y0099987D02*
X0042890Y0099987D01*
X0042890Y0100969D02*
X0022870Y0100969D01*
X0022870Y0101952D02*
X0042890Y0101952D01*
X0042890Y0102935D02*
X0022870Y0102935D01*
X0022870Y0103918D02*
X0042890Y0103918D01*
X0042890Y0104900D02*
X0022870Y0104900D01*
X0022870Y0105883D02*
X0042890Y0105883D01*
X0042890Y0106866D02*
X0022870Y0106866D01*
X0022870Y0107849D02*
X0042890Y0107849D01*
X0042890Y0108831D02*
X0022870Y0108831D01*
X0022870Y0109814D02*
X0042665Y0109814D01*
X0041682Y0110797D02*
X0022870Y0110797D01*
X0022870Y0111780D02*
X0040700Y0111780D01*
X0039717Y0112762D02*
X0022870Y0112762D01*
X0022870Y0113745D02*
X0038734Y0113745D01*
X0036624Y0114728D02*
X0022870Y0114728D01*
X0022870Y0115711D02*
X0035992Y0115711D01*
X0035833Y0116694D02*
X0022870Y0116694D01*
X0022870Y0117676D02*
X0036049Y0117676D01*
X0036763Y0118659D02*
X0022870Y0118659D01*
X0022870Y0119642D02*
X0037838Y0119642D01*
X0036855Y0120625D02*
X0022870Y0120625D01*
X0022870Y0121607D02*
X0035872Y0121607D01*
X0034889Y0122590D02*
X0022870Y0122590D01*
X0022870Y0123573D02*
X0034130Y0123573D01*
X0034130Y0124556D02*
X0022870Y0124556D01*
X0022870Y0125538D02*
X0034130Y0125538D01*
X0034130Y0126521D02*
X0022870Y0126521D01*
X0022870Y0127504D02*
X0034130Y0127504D01*
X0034130Y0128487D02*
X0022870Y0128487D01*
X0022870Y0129469D02*
X0034130Y0129469D01*
X0034130Y0130452D02*
X0022870Y0130452D01*
X0022870Y0131435D02*
X0034130Y0131435D01*
X0034130Y0132418D02*
X0022870Y0132418D01*
X0022870Y0133400D02*
X0034130Y0133400D01*
X0034130Y0134383D02*
X0022870Y0134383D01*
X0024887Y0135366D02*
X0034130Y0135366D01*
X0034130Y0136349D02*
X0025370Y0136349D01*
X0025370Y0137332D02*
X0034130Y0137332D01*
X0034130Y0138314D02*
X0025370Y0138314D01*
X0025370Y0139297D02*
X0034130Y0139297D01*
X0034130Y0140280D02*
X0025370Y0140280D01*
X0025370Y0141263D02*
X0034130Y0141263D01*
X0034130Y0142245D02*
X0025370Y0142245D01*
X0025370Y0143228D02*
X0034130Y0143228D01*
X0034130Y0144211D02*
X0025370Y0144211D01*
X0025370Y0145194D02*
X0034130Y0145194D01*
X0034130Y0146176D02*
X0025370Y0146176D01*
X0025370Y0147159D02*
X0034130Y0147159D01*
X0034130Y0148142D02*
X0025370Y0148142D01*
X0025370Y0149125D02*
X0034130Y0149125D01*
X0034130Y0150107D02*
X0025370Y0150107D01*
X0025370Y0151090D02*
X0034130Y0151090D01*
X0034130Y0152073D02*
X0025370Y0152073D01*
X0025370Y0153056D02*
X0034130Y0153056D01*
X0034130Y0154039D02*
X0025370Y0154039D01*
X0025247Y0155021D02*
X0034130Y0155021D01*
X0034130Y0156004D02*
X0022870Y0156004D01*
X0022870Y0156987D02*
X0034130Y0156987D01*
X0034130Y0157970D02*
X0022870Y0157970D01*
X0022870Y0158952D02*
X0034130Y0158952D01*
X0034130Y0159935D02*
X0022870Y0159935D01*
X0022870Y0160918D02*
X0034130Y0160918D01*
X0034130Y0161901D02*
X0022870Y0161901D01*
X0022870Y0162883D02*
X0034130Y0162883D01*
X0034130Y0163866D02*
X0023387Y0163866D01*
X0024370Y0164849D02*
X0034130Y0164849D01*
X0034130Y0165832D02*
X0025352Y0165832D01*
X0026335Y0166814D02*
X0034333Y0166814D01*
X0035316Y0167797D02*
X0027318Y0167797D01*
X0028301Y0168780D02*
X0036299Y0168780D01*
X0037281Y0169763D02*
X0029283Y0169763D01*
X0030266Y0170745D02*
X0038264Y0170745D01*
X0039247Y0171728D02*
X0031249Y0171728D01*
X0032232Y0172711D02*
X0041925Y0172711D01*
X0041925Y0173694D02*
X0033214Y0173694D01*
X0034197Y0174677D02*
X0061630Y0174677D01*
X0061630Y0175659D02*
X0056136Y0175659D01*
X0056295Y0176642D02*
X0061630Y0176642D01*
X0061630Y0177222D02*
X0061630Y0167399D01*
X0059064Y0164833D01*
X0056295Y0164833D01*
X0056295Y0165855D01*
X0055546Y0166604D01*
X0042675Y0166604D01*
X0041925Y0165855D01*
X0041925Y0160070D01*
X0042675Y0159321D01*
X0055546Y0159321D01*
X0056295Y0160070D01*
X0056295Y0161093D01*
X0060613Y0161093D01*
X0061709Y0162188D01*
X0065370Y0165849D01*
X0065370Y0177222D01*
X0065761Y0177613D01*
X0066167Y0178594D01*
X0066167Y0179655D01*
X0065761Y0180635D01*
X0065011Y0181385D01*
X0064030Y0181791D01*
X0062970Y0181791D01*
X0061989Y0181385D01*
X0061239Y0180635D01*
X0060833Y0179655D01*
X0060833Y0178594D01*
X0061239Y0177613D01*
X0061630Y0177222D01*
X0061234Y0177625D02*
X0056295Y0177625D01*
X0056295Y0178608D02*
X0060833Y0178608D01*
X0060833Y0179590D02*
X0056295Y0179590D01*
X0056295Y0180573D02*
X0061214Y0180573D01*
X0062402Y0181556D02*
X0056295Y0181556D01*
X0056295Y0173694D02*
X0061630Y0173694D01*
X0061630Y0172711D02*
X0056295Y0172711D01*
X0056295Y0171728D02*
X0061630Y0171728D01*
X0061630Y0170745D02*
X0056295Y0170745D01*
X0056295Y0169763D02*
X0061630Y0169763D01*
X0061630Y0168780D02*
X0056295Y0168780D01*
X0056148Y0167797D02*
X0061630Y0167797D01*
X0061046Y0166814D02*
X0039623Y0166814D01*
X0040605Y0167797D02*
X0042072Y0167797D01*
X0041925Y0168780D02*
X0041588Y0168780D01*
X0041925Y0165832D02*
X0038640Y0165832D01*
X0037870Y0164849D02*
X0041925Y0164849D01*
X0041925Y0163866D02*
X0037870Y0163866D01*
X0037870Y0162883D02*
X0041925Y0162883D01*
X0041925Y0161901D02*
X0037870Y0161901D01*
X0037870Y0160918D02*
X0041925Y0160918D01*
X0042060Y0159935D02*
X0037870Y0159935D01*
X0037870Y0158952D02*
X0074012Y0158952D01*
X0074012Y0157970D02*
X0056295Y0157970D01*
X0056295Y0157981D02*
X0055546Y0158730D01*
X0042675Y0158730D01*
X0041925Y0157981D01*
X0041925Y0152196D01*
X0042675Y0151447D01*
X0055546Y0151447D01*
X0055556Y0151457D01*
X0056530Y0151457D01*
X0057511Y0151863D01*
X0058261Y0152613D01*
X0058667Y0153594D01*
X0058667Y0154655D01*
X0058261Y0155635D01*
X0057511Y0156385D01*
X0056530Y0156791D01*
X0056295Y0156791D01*
X0056295Y0157981D01*
X0056295Y0156987D02*
X0074012Y0156987D01*
X0074012Y0156004D02*
X0057892Y0156004D01*
X0058515Y0155021D02*
X0074012Y0155021D01*
X0074012Y0154039D02*
X0058667Y0154039D01*
X0058444Y0153056D02*
X0074012Y0153056D01*
X0074012Y0152073D02*
X0057721Y0152073D01*
X0056160Y0159935D02*
X0074012Y0159935D01*
X0074012Y0160918D02*
X0056295Y0160918D01*
X0056295Y0164849D02*
X0059080Y0164849D01*
X0060063Y0165832D02*
X0056295Y0165832D01*
X0061421Y0161901D02*
X0074012Y0161901D01*
X0074012Y0162883D02*
X0062404Y0162883D01*
X0063387Y0163866D02*
X0074012Y0163866D01*
X0074012Y0164849D02*
X0064370Y0164849D01*
X0065352Y0165832D02*
X0074012Y0165832D01*
X0074012Y0166814D02*
X0065370Y0166814D01*
X0065370Y0167797D02*
X0074012Y0167797D01*
X0074012Y0168780D02*
X0065370Y0168780D01*
X0065370Y0169763D02*
X0074012Y0169763D01*
X0074012Y0170745D02*
X0065370Y0170745D01*
X0065370Y0171728D02*
X0074012Y0171728D01*
X0074012Y0172711D02*
X0065370Y0172711D01*
X0065370Y0173694D02*
X0074012Y0173694D01*
X0074012Y0174677D02*
X0065370Y0174677D01*
X0065370Y0175659D02*
X0074012Y0175659D01*
X0071654Y0176642D02*
X0065370Y0176642D01*
X0065766Y0177625D02*
X0070808Y0177625D01*
X0070439Y0178608D02*
X0066167Y0178608D01*
X0066167Y0179590D02*
X0070439Y0179590D01*
X0070787Y0180573D02*
X0065786Y0180573D01*
X0064598Y0181556D02*
X0071603Y0181556D01*
X0077441Y0182539D02*
X0039712Y0182539D01*
X0040859Y0183521D02*
X0042096Y0183521D01*
X0041925Y0181556D02*
X0038566Y0181556D01*
X0036195Y0185487D02*
X0026712Y0185487D01*
X0026221Y0184504D02*
X0035048Y0184504D01*
X0033902Y0183521D02*
X0026137Y0183521D01*
X0025686Y0182539D02*
X0032755Y0182539D01*
X0031609Y0181556D02*
X0024269Y0181556D01*
X0022731Y0181556D02*
X0019026Y0181556D01*
X0019433Y0182539D02*
X0021314Y0182539D01*
X0020863Y0183521D02*
X0019680Y0183521D01*
X0019680Y0184504D02*
X0020833Y0184504D01*
X0021178Y0185487D02*
X0019525Y0185487D01*
X0019118Y0186470D02*
X0022142Y0186470D01*
X0022633Y0187452D02*
X0018500Y0187452D01*
X0018500Y0188435D02*
X0023125Y0188435D01*
X0023616Y0189418D02*
X0018500Y0189418D01*
X0018500Y0190401D02*
X0024075Y0190401D01*
X0025058Y0191384D02*
X0018955Y0191384D01*
X0019362Y0192366D02*
X0026041Y0192366D01*
X0027024Y0193349D02*
X0019680Y0193349D01*
X0019680Y0194332D02*
X0028006Y0194332D01*
X0028989Y0195315D02*
X0019597Y0195315D01*
X0019190Y0196297D02*
X0029972Y0196297D01*
X0029495Y0189418D02*
X0041925Y0189418D01*
X0039610Y0188435D02*
X0028513Y0188435D01*
X0027695Y0187452D02*
X0038488Y0187452D01*
X0037341Y0186470D02*
X0027204Y0186470D01*
X0030462Y0180573D02*
X0018500Y0180573D01*
X0018500Y0179590D02*
X0029316Y0179590D01*
X0028169Y0178608D02*
X0018500Y0178608D01*
X0018500Y0177625D02*
X0027022Y0177625D01*
X0025876Y0176642D02*
X0019047Y0176642D01*
X0019454Y0175659D02*
X0024729Y0175659D01*
X0023583Y0174677D02*
X0019680Y0174677D01*
X0035180Y0175659D02*
X0042084Y0175659D01*
X0041925Y0176642D02*
X0036163Y0176642D01*
X0037870Y0157970D02*
X0041925Y0157970D01*
X0041925Y0156987D02*
X0037870Y0156987D01*
X0037870Y0156004D02*
X0041925Y0156004D01*
X0041925Y0155021D02*
X0037870Y0155021D01*
X0037870Y0154039D02*
X0041925Y0154039D01*
X0041925Y0153056D02*
X0037870Y0153056D01*
X0037870Y0152073D02*
X0042049Y0152073D01*
X0041926Y0150107D02*
X0037870Y0150107D01*
X0037870Y0149125D02*
X0041925Y0149125D01*
X0041925Y0148142D02*
X0037870Y0148142D01*
X0037870Y0147159D02*
X0041390Y0147159D01*
X0040408Y0146176D02*
X0037870Y0146176D01*
X0037870Y0145194D02*
X0039425Y0145194D01*
X0039130Y0144211D02*
X0037870Y0144211D01*
X0037870Y0143228D02*
X0039130Y0143228D01*
X0039130Y0142245D02*
X0037870Y0142245D01*
X0037870Y0141263D02*
X0039130Y0141263D01*
X0039130Y0140280D02*
X0037870Y0140280D01*
X0037870Y0139297D02*
X0039130Y0139297D01*
X0039130Y0138314D02*
X0037870Y0138314D01*
X0037870Y0137332D02*
X0039130Y0137332D01*
X0039130Y0136349D02*
X0037870Y0136349D01*
X0037870Y0135366D02*
X0039130Y0135366D01*
X0039130Y0134383D02*
X0037870Y0134383D01*
X0037870Y0133400D02*
X0039130Y0133400D01*
X0039130Y0132418D02*
X0037870Y0132418D01*
X0037870Y0131435D02*
X0039130Y0131435D01*
X0039130Y0130452D02*
X0037870Y0130452D01*
X0037870Y0129469D02*
X0039130Y0129469D01*
X0039130Y0128487D02*
X0037870Y0128487D01*
X0037870Y0127504D02*
X0039130Y0127504D01*
X0039130Y0126521D02*
X0037870Y0126521D01*
X0037870Y0125538D02*
X0039130Y0125538D01*
X0039130Y0124556D02*
X0038213Y0124556D01*
X0037870Y0151090D02*
X0074012Y0151090D01*
X0078539Y0151090D02*
X0088332Y0151090D01*
X0087350Y0152073D02*
X0078539Y0152073D01*
X0078539Y0153056D02*
X0086367Y0153056D01*
X0085384Y0154039D02*
X0078539Y0154039D01*
X0078539Y0155021D02*
X0084401Y0155021D01*
X0083419Y0156004D02*
X0078539Y0156004D01*
X0078539Y0156987D02*
X0082436Y0156987D01*
X0081453Y0157970D02*
X0078539Y0157970D01*
X0078539Y0158952D02*
X0079452Y0158952D01*
X0078914Y0163866D02*
X0078539Y0163866D01*
X0078539Y0150107D02*
X0089315Y0150107D01*
X0089760Y0149125D02*
X0078539Y0149125D01*
X0078539Y0148142D02*
X0089760Y0148142D01*
X0089760Y0147159D02*
X0078539Y0147159D01*
X0078539Y0146176D02*
X0089760Y0146176D01*
X0089760Y0145194D02*
X0078539Y0145194D01*
X0085241Y0144211D02*
X0089760Y0144211D01*
X0089760Y0143228D02*
X0086148Y0143228D01*
X0086555Y0142245D02*
X0089760Y0142245D01*
X0089760Y0141263D02*
X0086561Y0141263D01*
X0086413Y0140280D02*
X0089760Y0140280D01*
X0089760Y0139297D02*
X0086413Y0139297D01*
X0086413Y0138314D02*
X0089760Y0138314D01*
X0088382Y0137332D02*
X0087791Y0137332D01*
X0087791Y0136349D02*
X0088382Y0136349D01*
X0088382Y0135366D02*
X0087791Y0135366D01*
X0087791Y0134383D02*
X0088382Y0134383D01*
X0088382Y0133400D02*
X0087791Y0133400D01*
X0087791Y0132418D02*
X0088382Y0132418D01*
X0088382Y0131435D02*
X0087791Y0131435D01*
X0087791Y0130452D02*
X0088382Y0130452D01*
X0088382Y0129469D02*
X0087791Y0129469D01*
X0087791Y0128487D02*
X0088382Y0128487D01*
X0088382Y0127504D02*
X0087791Y0127504D01*
X0087791Y0126521D02*
X0088382Y0126521D01*
X0088382Y0125538D02*
X0087791Y0125538D01*
X0087710Y0124556D02*
X0088464Y0124556D01*
X0095584Y0124556D02*
X0096338Y0124556D01*
X0096256Y0125538D02*
X0095665Y0125538D01*
X0095665Y0126521D02*
X0096256Y0126521D01*
X0096256Y0127504D02*
X0095665Y0127504D01*
X0095665Y0128487D02*
X0096256Y0128487D01*
X0096256Y0129469D02*
X0095665Y0129469D01*
X0095665Y0130452D02*
X0096256Y0130452D01*
X0096256Y0131435D02*
X0095665Y0131435D01*
X0095665Y0132418D02*
X0096256Y0132418D01*
X0096256Y0133400D02*
X0095665Y0133400D01*
X0095665Y0134383D02*
X0096256Y0134383D01*
X0096256Y0135366D02*
X0095665Y0135366D01*
X0095665Y0136349D02*
X0096256Y0136349D01*
X0096256Y0137332D02*
X0095665Y0137332D01*
X0103539Y0130452D02*
X0109390Y0130452D01*
X0109390Y0129469D02*
X0103539Y0129469D01*
X0103539Y0128487D02*
X0109606Y0128487D01*
X0112161Y0128487D02*
X0112752Y0128487D01*
X0112752Y0129469D02*
X0112161Y0129469D01*
X0112161Y0130452D02*
X0112752Y0130452D01*
X0112752Y0132418D02*
X0112161Y0132418D01*
X0112161Y0133400D02*
X0112752Y0133400D01*
X0112752Y0134383D02*
X0112161Y0134383D01*
X0112161Y0135366D02*
X0112752Y0135366D01*
X0106505Y0142245D02*
X0106080Y0142245D01*
X0103539Y0127504D02*
X0119838Y0127504D01*
X0118520Y0123573D02*
X0107823Y0123573D01*
X0108487Y0122590D02*
X0118746Y0122590D01*
X0119153Y0121607D02*
X0108667Y0121607D01*
X0108473Y0120625D02*
X0119957Y0120625D01*
X0121309Y0119642D02*
X0107870Y0119642D01*
X0107870Y0118659D02*
X0120964Y0118659D01*
X0119709Y0117676D02*
X0107870Y0117676D01*
X0107870Y0116694D02*
X0118982Y0116694D01*
X0118556Y0115711D02*
X0107870Y0115711D01*
X0107870Y0114728D02*
X0118339Y0114728D01*
X0118308Y0113745D02*
X0107870Y0113745D01*
X0107870Y0112762D02*
X0118483Y0112762D01*
X0118867Y0111780D02*
X0107870Y0111780D01*
X0107870Y0110797D02*
X0119499Y0110797D01*
X0120599Y0109814D02*
X0107870Y0109814D01*
X0103527Y0120625D02*
X0099644Y0120625D01*
X0084769Y0099004D02*
X0082870Y0099004D01*
X0082870Y0099987D02*
X0083095Y0099987D01*
X0082923Y0090159D02*
X0082870Y0090159D01*
X0082870Y0089176D02*
X0084933Y0089176D01*
X0085751Y0073452D02*
X0086550Y0073452D01*
X0082752Y0068538D02*
X0081768Y0068538D01*
X0081768Y0067555D02*
X0082752Y0067555D01*
X0082752Y0066573D02*
X0081768Y0066573D01*
X0081768Y0065590D02*
X0082752Y0065590D01*
X0082752Y0064607D02*
X0081768Y0064607D01*
X0085435Y0064607D02*
X0093838Y0064607D01*
X0093579Y0065590D02*
X0094130Y0065590D01*
X0094130Y0066573D02*
X0093579Y0066573D01*
X0092856Y0063624D02*
X0091327Y0063624D01*
X0093579Y0071486D02*
X0094130Y0071486D01*
X0094130Y0072469D02*
X0093579Y0072469D01*
X0094130Y0073452D02*
X0092930Y0073452D01*
X0107870Y0073452D02*
X0114180Y0073452D01*
X0113743Y0074435D02*
X0107870Y0074435D01*
X0107870Y0075417D02*
X0113602Y0075417D01*
X0113706Y0076400D02*
X0107870Y0076400D01*
X0107870Y0077383D02*
X0114113Y0077383D01*
X0115072Y0078366D02*
X0107870Y0078366D01*
X0119331Y0090159D02*
X0128736Y0090159D01*
X0128736Y0091142D02*
X0120128Y0091142D01*
X0120524Y0092124D02*
X0128736Y0092124D01*
X0128736Y0093107D02*
X0120524Y0093107D01*
X0120268Y0094090D02*
X0128736Y0094090D01*
X0128736Y0095073D02*
X0119670Y0095073D01*
X0123192Y0109814D02*
X0123808Y0109814D01*
X0123808Y0110797D02*
X0123192Y0110797D01*
X0123192Y0111780D02*
X0123808Y0111780D01*
X0123808Y0112762D02*
X0123192Y0112762D01*
X0123192Y0113745D02*
X0123808Y0113745D01*
X0126401Y0109814D02*
X0128736Y0109814D01*
X0128736Y0110797D02*
X0127501Y0110797D01*
X0128133Y0111780D02*
X0128736Y0111780D01*
X0128736Y0112762D02*
X0128517Y0112762D01*
X0128692Y0113745D02*
X0128736Y0113745D01*
X0128736Y0114728D02*
X0128661Y0114728D01*
X0128736Y0115711D02*
X0128444Y0115711D01*
X0128736Y0116694D02*
X0128018Y0116694D01*
X0128736Y0117676D02*
X0127291Y0117676D01*
X0126036Y0118659D02*
X0128736Y0118659D01*
X0128736Y0119642D02*
X0125691Y0119642D01*
X0127043Y0120625D02*
X0128736Y0120625D01*
X0128736Y0121607D02*
X0127847Y0121607D01*
X0128254Y0122590D02*
X0128736Y0122590D01*
X0128736Y0123573D02*
X0128480Y0123573D01*
X0128480Y0124556D02*
X0128736Y0124556D01*
X0128736Y0125538D02*
X0128304Y0125538D01*
X0127901Y0126521D02*
X0127897Y0126521D01*
X0091000Y0036624D02*
X0086000Y0036624D01*
X0091000Y0036624D02*
X0093500Y0034124D01*
X0093500Y0029124D01*
X0095272Y0030210D02*
X0095296Y0030210D01*
X0091749Y0024314D02*
X0101464Y0024314D01*
X0098795Y0023331D02*
X0098205Y0023331D01*
X0098205Y0022348D02*
X0098795Y0022348D01*
X0098795Y0021365D02*
X0098205Y0021365D01*
X0028858Y0072469D02*
X0022870Y0072469D01*
X0019130Y0072469D02*
X0018500Y0072469D01*
X0018500Y0071486D02*
X0019130Y0071486D01*
X0019130Y0070504D02*
X0018500Y0070504D01*
X0018500Y0069521D02*
X0019130Y0069521D01*
X0019130Y0068538D02*
X0018500Y0068538D01*
X0018500Y0067555D02*
X0019130Y0067555D01*
X0019130Y0066573D02*
X0018500Y0066573D01*
X0018500Y0065590D02*
X0019390Y0065590D01*
X0018500Y0064607D02*
X0020372Y0064607D01*
X0021355Y0063624D02*
X0018500Y0063624D01*
X0018500Y0062642D02*
X0022338Y0062642D01*
X0019130Y0073452D02*
X0018500Y0073452D01*
X0018500Y0074435D02*
X0019130Y0074435D01*
X0019130Y0075417D02*
X0018500Y0075417D01*
X0018500Y0076400D02*
X0019130Y0076400D01*
X0019130Y0077383D02*
X0018500Y0077383D01*
X0018500Y0078366D02*
X0019130Y0078366D01*
X0019130Y0079348D02*
X0018500Y0079348D01*
X0018500Y0080331D02*
X0019130Y0080331D01*
X0019130Y0081314D02*
X0018500Y0081314D01*
X0018500Y0082297D02*
X0019130Y0082297D01*
X0019130Y0083280D02*
X0018500Y0083280D01*
X0018500Y0084262D02*
X0019130Y0084262D01*
X0019130Y0085245D02*
X0018500Y0085245D01*
X0018500Y0086228D02*
X0019130Y0086228D01*
X0019130Y0087211D02*
X0018500Y0087211D01*
X0018500Y0088193D02*
X0019130Y0088193D01*
X0019130Y0089176D02*
X0018500Y0089176D01*
X0018500Y0090159D02*
X0019130Y0090159D01*
X0019130Y0091142D02*
X0018500Y0091142D01*
X0018500Y0092124D02*
X0019130Y0092124D01*
X0019130Y0093107D02*
X0018500Y0093107D01*
X0018500Y0094090D02*
X0019130Y0094090D01*
X0019130Y0095073D02*
X0018500Y0095073D01*
X0018500Y0096055D02*
X0019130Y0096055D01*
X0019130Y0097038D02*
X0018500Y0097038D01*
X0018500Y0098021D02*
X0019130Y0098021D01*
X0019130Y0099004D02*
X0018500Y0099004D01*
X0018500Y0099987D02*
X0019130Y0099987D01*
X0019130Y0100969D02*
X0018500Y0100969D01*
X0018500Y0101952D02*
X0019130Y0101952D01*
X0019130Y0102935D02*
X0018500Y0102935D01*
X0018500Y0103918D02*
X0019130Y0103918D01*
X0019130Y0104900D02*
X0018500Y0104900D01*
X0018500Y0105883D02*
X0019130Y0105883D01*
X0019130Y0106866D02*
X0018500Y0106866D01*
X0018500Y0107849D02*
X0019130Y0107849D01*
X0019130Y0108831D02*
X0018500Y0108831D01*
X0018500Y0109814D02*
X0019130Y0109814D01*
X0019130Y0110797D02*
X0018500Y0110797D01*
X0018500Y0111780D02*
X0019130Y0111780D01*
X0019130Y0112762D02*
X0018500Y0112762D01*
X0018500Y0113745D02*
X0019130Y0113745D01*
X0019130Y0114728D02*
X0018500Y0114728D01*
X0018500Y0115711D02*
X0019130Y0115711D01*
X0019130Y0116694D02*
X0018500Y0116694D01*
X0018500Y0117676D02*
X0019130Y0117676D01*
X0019130Y0118659D02*
X0018500Y0118659D01*
X0018500Y0119642D02*
X0019130Y0119642D01*
X0019130Y0120625D02*
X0018500Y0120625D01*
X0018500Y0121607D02*
X0019130Y0121607D01*
X0019130Y0122590D02*
X0018500Y0122590D01*
X0018500Y0123573D02*
X0019130Y0123573D01*
X0019130Y0124556D02*
X0018500Y0124556D01*
X0018500Y0125538D02*
X0019130Y0125538D01*
X0019130Y0126521D02*
X0018500Y0126521D01*
X0018500Y0127504D02*
X0019130Y0127504D01*
X0019130Y0128487D02*
X0018500Y0128487D01*
X0018500Y0129469D02*
X0019130Y0129469D01*
X0019130Y0130452D02*
X0018500Y0130452D01*
X0018500Y0131435D02*
X0019130Y0131435D01*
X0019130Y0132418D02*
X0018500Y0132418D01*
X0018500Y0133400D02*
X0019130Y0133400D01*
X0019130Y0134383D02*
X0018500Y0134383D01*
X0018500Y0135366D02*
X0019130Y0135366D01*
X0019130Y0136349D02*
X0018500Y0136349D01*
M02*
