G75*
%MOIN*%
%OFA0B0*%
%FSLAX25Y25*%
%IPPOS*%
%LPD*%
%AMOC8*
5,1,8,0,0,1.08239X$1,22.5*
%
%ADD10C,0.00000*%
%ADD11C,0.05600*%
%ADD12R,0.04724X0.03150*%
%ADD13R,0.03150X0.04724*%
%ADD14R,0.04724X0.02165*%
%ADD15R,0.02362X0.08661*%
%ADD16C,0.07400*%
%ADD17C,0.07400*%
%ADD18R,0.05512X0.04331*%
%ADD19R,0.03937X0.04331*%
%ADD20R,0.06299X0.05118*%
%ADD21R,0.05118X0.06299*%
%ADD22R,0.22835X0.24409*%
%ADD23R,0.06299X0.11811*%
%ADD24R,0.12598X0.04724*%
%ADD25R,0.09449X0.07874*%
%ADD26R,0.09087X0.01969*%
%ADD27R,0.09843X0.04724*%
%ADD28C,0.03562*%
%ADD29C,0.01969*%
%ADD30C,0.01181*%
%ADD31C,0.02775*%
D10*
X0001000Y0016467D02*
X0001000Y0191742D01*
X0001003Y0191980D01*
X0001011Y0192218D01*
X0001026Y0192455D01*
X0001046Y0192692D01*
X0001072Y0192928D01*
X0001103Y0193164D01*
X0001140Y0193399D01*
X0001183Y0193633D01*
X0001232Y0193866D01*
X0001286Y0194098D01*
X0001346Y0194328D01*
X0001411Y0194557D01*
X0001482Y0194784D01*
X0001558Y0195009D01*
X0001640Y0195232D01*
X0001727Y0195454D01*
X0001819Y0195673D01*
X0001917Y0195890D01*
X0002019Y0196104D01*
X0002127Y0196316D01*
X0002241Y0196526D01*
X0002359Y0196732D01*
X0002482Y0196936D01*
X0002610Y0197136D01*
X0002742Y0197333D01*
X0002880Y0197528D01*
X0003022Y0197718D01*
X0003169Y0197906D01*
X0003320Y0198089D01*
X0003475Y0198269D01*
X0003635Y0198445D01*
X0003799Y0198617D01*
X0003968Y0198786D01*
X0004140Y0198950D01*
X0004316Y0199110D01*
X0004496Y0199265D01*
X0004679Y0199416D01*
X0004867Y0199563D01*
X0005057Y0199705D01*
X0005252Y0199843D01*
X0005449Y0199975D01*
X0005649Y0200103D01*
X0005853Y0200226D01*
X0006059Y0200344D01*
X0006269Y0200458D01*
X0006481Y0200566D01*
X0006695Y0200668D01*
X0006912Y0200766D01*
X0007131Y0200858D01*
X0007353Y0200945D01*
X0007576Y0201027D01*
X0007801Y0201103D01*
X0008028Y0201174D01*
X0008257Y0201239D01*
X0008487Y0201299D01*
X0008719Y0201353D01*
X0008952Y0201402D01*
X0009186Y0201445D01*
X0009421Y0201482D01*
X0009657Y0201513D01*
X0009893Y0201539D01*
X0010130Y0201559D01*
X0010367Y0201574D01*
X0010605Y0201582D01*
X0010843Y0201585D01*
X0127358Y0201585D01*
X0127596Y0201582D01*
X0127834Y0201574D01*
X0128071Y0201559D01*
X0128308Y0201539D01*
X0128544Y0201513D01*
X0128780Y0201482D01*
X0129015Y0201445D01*
X0129249Y0201402D01*
X0129482Y0201353D01*
X0129714Y0201299D01*
X0129944Y0201239D01*
X0130173Y0201174D01*
X0130400Y0201103D01*
X0130625Y0201027D01*
X0130848Y0200945D01*
X0131070Y0200858D01*
X0131289Y0200766D01*
X0131506Y0200668D01*
X0131720Y0200566D01*
X0131932Y0200458D01*
X0132142Y0200344D01*
X0132348Y0200226D01*
X0132552Y0200103D01*
X0132752Y0199975D01*
X0132949Y0199843D01*
X0133144Y0199705D01*
X0133334Y0199563D01*
X0133522Y0199416D01*
X0133705Y0199265D01*
X0133885Y0199110D01*
X0134061Y0198950D01*
X0134233Y0198786D01*
X0134402Y0198617D01*
X0134566Y0198445D01*
X0134726Y0198269D01*
X0134881Y0198089D01*
X0135032Y0197906D01*
X0135179Y0197718D01*
X0135321Y0197528D01*
X0135459Y0197333D01*
X0135591Y0197136D01*
X0135719Y0196936D01*
X0135842Y0196732D01*
X0135960Y0196526D01*
X0136074Y0196316D01*
X0136182Y0196104D01*
X0136284Y0195890D01*
X0136382Y0195673D01*
X0136474Y0195454D01*
X0136561Y0195232D01*
X0136643Y0195009D01*
X0136719Y0194784D01*
X0136790Y0194557D01*
X0136855Y0194328D01*
X0136915Y0194098D01*
X0136969Y0193866D01*
X0137018Y0193633D01*
X0137061Y0193399D01*
X0137098Y0193164D01*
X0137129Y0192928D01*
X0137155Y0192692D01*
X0137175Y0192455D01*
X0137190Y0192218D01*
X0137198Y0191980D01*
X0137201Y0191742D01*
X0137201Y0016467D01*
X0137198Y0016229D01*
X0137190Y0015991D01*
X0137175Y0015754D01*
X0137155Y0015517D01*
X0137129Y0015281D01*
X0137098Y0015045D01*
X0137061Y0014810D01*
X0137018Y0014576D01*
X0136969Y0014343D01*
X0136915Y0014111D01*
X0136855Y0013881D01*
X0136790Y0013652D01*
X0136719Y0013425D01*
X0136643Y0013200D01*
X0136561Y0012977D01*
X0136474Y0012755D01*
X0136382Y0012536D01*
X0136284Y0012319D01*
X0136182Y0012105D01*
X0136074Y0011893D01*
X0135960Y0011683D01*
X0135842Y0011477D01*
X0135719Y0011273D01*
X0135591Y0011073D01*
X0135459Y0010876D01*
X0135321Y0010681D01*
X0135179Y0010491D01*
X0135032Y0010303D01*
X0134881Y0010120D01*
X0134726Y0009940D01*
X0134566Y0009764D01*
X0134402Y0009592D01*
X0134233Y0009423D01*
X0134061Y0009259D01*
X0133885Y0009099D01*
X0133705Y0008944D01*
X0133522Y0008793D01*
X0133334Y0008646D01*
X0133144Y0008504D01*
X0132949Y0008366D01*
X0132752Y0008234D01*
X0132552Y0008106D01*
X0132348Y0007983D01*
X0132142Y0007865D01*
X0131932Y0007751D01*
X0131720Y0007643D01*
X0131506Y0007541D01*
X0131289Y0007443D01*
X0131070Y0007351D01*
X0130848Y0007264D01*
X0130625Y0007182D01*
X0130400Y0007106D01*
X0130173Y0007035D01*
X0129944Y0006970D01*
X0129714Y0006910D01*
X0129482Y0006856D01*
X0129249Y0006807D01*
X0129015Y0006764D01*
X0128780Y0006727D01*
X0128544Y0006696D01*
X0128308Y0006670D01*
X0128071Y0006650D01*
X0127834Y0006635D01*
X0127596Y0006627D01*
X0127358Y0006624D01*
X0010843Y0006624D01*
X0010605Y0006627D01*
X0010367Y0006635D01*
X0010130Y0006650D01*
X0009893Y0006670D01*
X0009657Y0006696D01*
X0009421Y0006727D01*
X0009186Y0006764D01*
X0008952Y0006807D01*
X0008719Y0006856D01*
X0008487Y0006910D01*
X0008257Y0006970D01*
X0008028Y0007035D01*
X0007801Y0007106D01*
X0007576Y0007182D01*
X0007353Y0007264D01*
X0007131Y0007351D01*
X0006912Y0007443D01*
X0006695Y0007541D01*
X0006481Y0007643D01*
X0006269Y0007751D01*
X0006059Y0007865D01*
X0005853Y0007983D01*
X0005649Y0008106D01*
X0005449Y0008234D01*
X0005252Y0008366D01*
X0005057Y0008504D01*
X0004867Y0008646D01*
X0004679Y0008793D01*
X0004496Y0008944D01*
X0004316Y0009099D01*
X0004140Y0009259D01*
X0003968Y0009423D01*
X0003799Y0009592D01*
X0003635Y0009764D01*
X0003475Y0009940D01*
X0003320Y0010120D01*
X0003169Y0010303D01*
X0003022Y0010491D01*
X0002880Y0010681D01*
X0002742Y0010876D01*
X0002610Y0011073D01*
X0002482Y0011273D01*
X0002359Y0011477D01*
X0002241Y0011683D01*
X0002127Y0011893D01*
X0002019Y0012105D01*
X0001917Y0012319D01*
X0001819Y0012536D01*
X0001727Y0012755D01*
X0001640Y0012977D01*
X0001558Y0013200D01*
X0001482Y0013425D01*
X0001411Y0013652D01*
X0001346Y0013881D01*
X0001286Y0014111D01*
X0001232Y0014343D01*
X0001183Y0014576D01*
X0001140Y0014810D01*
X0001103Y0015045D01*
X0001072Y0015281D01*
X0001046Y0015517D01*
X0001026Y0015754D01*
X0001011Y0015991D01*
X0001003Y0016229D01*
X0001000Y0016467D01*
X0108835Y0015423D02*
X0108837Y0015524D01*
X0108843Y0015625D01*
X0108853Y0015726D01*
X0108867Y0015826D01*
X0108885Y0015925D01*
X0108907Y0016024D01*
X0108932Y0016122D01*
X0108962Y0016219D01*
X0108995Y0016314D01*
X0109032Y0016408D01*
X0109073Y0016501D01*
X0109117Y0016592D01*
X0109165Y0016681D01*
X0109217Y0016768D01*
X0109272Y0016853D01*
X0109330Y0016935D01*
X0109391Y0017016D01*
X0109456Y0017094D01*
X0109523Y0017169D01*
X0109593Y0017241D01*
X0109667Y0017311D01*
X0109743Y0017378D01*
X0109821Y0017442D01*
X0109902Y0017502D01*
X0109985Y0017559D01*
X0110071Y0017613D01*
X0110159Y0017664D01*
X0110248Y0017711D01*
X0110339Y0017755D01*
X0110432Y0017794D01*
X0110527Y0017831D01*
X0110622Y0017863D01*
X0110719Y0017892D01*
X0110818Y0017916D01*
X0110916Y0017937D01*
X0111016Y0017954D01*
X0111116Y0017967D01*
X0111217Y0017976D01*
X0111318Y0017981D01*
X0111419Y0017982D01*
X0111520Y0017979D01*
X0111621Y0017972D01*
X0111722Y0017961D01*
X0111822Y0017946D01*
X0111921Y0017927D01*
X0112020Y0017904D01*
X0112117Y0017878D01*
X0112214Y0017847D01*
X0112309Y0017813D01*
X0112402Y0017775D01*
X0112495Y0017733D01*
X0112585Y0017688D01*
X0112674Y0017639D01*
X0112760Y0017587D01*
X0112844Y0017531D01*
X0112927Y0017472D01*
X0113006Y0017410D01*
X0113084Y0017345D01*
X0113158Y0017277D01*
X0113230Y0017205D01*
X0113299Y0017132D01*
X0113365Y0017055D01*
X0113428Y0016976D01*
X0113488Y0016894D01*
X0113544Y0016810D01*
X0113597Y0016724D01*
X0113647Y0016636D01*
X0113693Y0016546D01*
X0113736Y0016455D01*
X0113775Y0016361D01*
X0113810Y0016266D01*
X0113841Y0016170D01*
X0113869Y0016073D01*
X0113893Y0015975D01*
X0113913Y0015876D01*
X0113929Y0015776D01*
X0113941Y0015675D01*
X0113949Y0015575D01*
X0113953Y0015474D01*
X0113953Y0015372D01*
X0113949Y0015271D01*
X0113941Y0015171D01*
X0113929Y0015070D01*
X0113913Y0014970D01*
X0113893Y0014871D01*
X0113869Y0014773D01*
X0113841Y0014676D01*
X0113810Y0014580D01*
X0113775Y0014485D01*
X0113736Y0014391D01*
X0113693Y0014300D01*
X0113647Y0014210D01*
X0113597Y0014122D01*
X0113544Y0014036D01*
X0113488Y0013952D01*
X0113428Y0013870D01*
X0113365Y0013791D01*
X0113299Y0013714D01*
X0113230Y0013641D01*
X0113158Y0013569D01*
X0113084Y0013501D01*
X0113006Y0013436D01*
X0112927Y0013374D01*
X0112844Y0013315D01*
X0112760Y0013259D01*
X0112673Y0013207D01*
X0112585Y0013158D01*
X0112495Y0013113D01*
X0112402Y0013071D01*
X0112309Y0013033D01*
X0112214Y0012999D01*
X0112117Y0012968D01*
X0112020Y0012942D01*
X0111921Y0012919D01*
X0111822Y0012900D01*
X0111722Y0012885D01*
X0111621Y0012874D01*
X0111520Y0012867D01*
X0111419Y0012864D01*
X0111318Y0012865D01*
X0111217Y0012870D01*
X0111116Y0012879D01*
X0111016Y0012892D01*
X0110916Y0012909D01*
X0110818Y0012930D01*
X0110719Y0012954D01*
X0110622Y0012983D01*
X0110527Y0013015D01*
X0110432Y0013052D01*
X0110339Y0013091D01*
X0110248Y0013135D01*
X0110159Y0013182D01*
X0110071Y0013233D01*
X0109985Y0013287D01*
X0109902Y0013344D01*
X0109821Y0013404D01*
X0109743Y0013468D01*
X0109667Y0013535D01*
X0109593Y0013605D01*
X0109523Y0013677D01*
X0109456Y0013752D01*
X0109391Y0013830D01*
X0109330Y0013911D01*
X0109272Y0013993D01*
X0109217Y0014078D01*
X0109165Y0014165D01*
X0109117Y0014254D01*
X0109073Y0014345D01*
X0109032Y0014438D01*
X0108995Y0014532D01*
X0108962Y0014627D01*
X0108932Y0014724D01*
X0108907Y0014822D01*
X0108885Y0014921D01*
X0108867Y0015020D01*
X0108853Y0015120D01*
X0108843Y0015221D01*
X0108837Y0015322D01*
X0108835Y0015423D01*
X0108835Y0042982D02*
X0108837Y0043083D01*
X0108843Y0043184D01*
X0108853Y0043285D01*
X0108867Y0043385D01*
X0108885Y0043484D01*
X0108907Y0043583D01*
X0108932Y0043681D01*
X0108962Y0043778D01*
X0108995Y0043873D01*
X0109032Y0043967D01*
X0109073Y0044060D01*
X0109117Y0044151D01*
X0109165Y0044240D01*
X0109217Y0044327D01*
X0109272Y0044412D01*
X0109330Y0044494D01*
X0109391Y0044575D01*
X0109456Y0044653D01*
X0109523Y0044728D01*
X0109593Y0044800D01*
X0109667Y0044870D01*
X0109743Y0044937D01*
X0109821Y0045001D01*
X0109902Y0045061D01*
X0109985Y0045118D01*
X0110071Y0045172D01*
X0110159Y0045223D01*
X0110248Y0045270D01*
X0110339Y0045314D01*
X0110432Y0045353D01*
X0110527Y0045390D01*
X0110622Y0045422D01*
X0110719Y0045451D01*
X0110818Y0045475D01*
X0110916Y0045496D01*
X0111016Y0045513D01*
X0111116Y0045526D01*
X0111217Y0045535D01*
X0111318Y0045540D01*
X0111419Y0045541D01*
X0111520Y0045538D01*
X0111621Y0045531D01*
X0111722Y0045520D01*
X0111822Y0045505D01*
X0111921Y0045486D01*
X0112020Y0045463D01*
X0112117Y0045437D01*
X0112214Y0045406D01*
X0112309Y0045372D01*
X0112402Y0045334D01*
X0112495Y0045292D01*
X0112585Y0045247D01*
X0112674Y0045198D01*
X0112760Y0045146D01*
X0112844Y0045090D01*
X0112927Y0045031D01*
X0113006Y0044969D01*
X0113084Y0044904D01*
X0113158Y0044836D01*
X0113230Y0044764D01*
X0113299Y0044691D01*
X0113365Y0044614D01*
X0113428Y0044535D01*
X0113488Y0044453D01*
X0113544Y0044369D01*
X0113597Y0044283D01*
X0113647Y0044195D01*
X0113693Y0044105D01*
X0113736Y0044014D01*
X0113775Y0043920D01*
X0113810Y0043825D01*
X0113841Y0043729D01*
X0113869Y0043632D01*
X0113893Y0043534D01*
X0113913Y0043435D01*
X0113929Y0043335D01*
X0113941Y0043234D01*
X0113949Y0043134D01*
X0113953Y0043033D01*
X0113953Y0042931D01*
X0113949Y0042830D01*
X0113941Y0042730D01*
X0113929Y0042629D01*
X0113913Y0042529D01*
X0113893Y0042430D01*
X0113869Y0042332D01*
X0113841Y0042235D01*
X0113810Y0042139D01*
X0113775Y0042044D01*
X0113736Y0041950D01*
X0113693Y0041859D01*
X0113647Y0041769D01*
X0113597Y0041681D01*
X0113544Y0041595D01*
X0113488Y0041511D01*
X0113428Y0041429D01*
X0113365Y0041350D01*
X0113299Y0041273D01*
X0113230Y0041200D01*
X0113158Y0041128D01*
X0113084Y0041060D01*
X0113006Y0040995D01*
X0112927Y0040933D01*
X0112844Y0040874D01*
X0112760Y0040818D01*
X0112673Y0040766D01*
X0112585Y0040717D01*
X0112495Y0040672D01*
X0112402Y0040630D01*
X0112309Y0040592D01*
X0112214Y0040558D01*
X0112117Y0040527D01*
X0112020Y0040501D01*
X0111921Y0040478D01*
X0111822Y0040459D01*
X0111722Y0040444D01*
X0111621Y0040433D01*
X0111520Y0040426D01*
X0111419Y0040423D01*
X0111318Y0040424D01*
X0111217Y0040429D01*
X0111116Y0040438D01*
X0111016Y0040451D01*
X0110916Y0040468D01*
X0110818Y0040489D01*
X0110719Y0040513D01*
X0110622Y0040542D01*
X0110527Y0040574D01*
X0110432Y0040611D01*
X0110339Y0040650D01*
X0110248Y0040694D01*
X0110159Y0040741D01*
X0110071Y0040792D01*
X0109985Y0040846D01*
X0109902Y0040903D01*
X0109821Y0040963D01*
X0109743Y0041027D01*
X0109667Y0041094D01*
X0109593Y0041164D01*
X0109523Y0041236D01*
X0109456Y0041311D01*
X0109391Y0041389D01*
X0109330Y0041470D01*
X0109272Y0041552D01*
X0109217Y0041637D01*
X0109165Y0041724D01*
X0109117Y0041813D01*
X0109073Y0041904D01*
X0109032Y0041997D01*
X0108995Y0042091D01*
X0108962Y0042186D01*
X0108932Y0042283D01*
X0108907Y0042381D01*
X0108885Y0042480D01*
X0108867Y0042579D01*
X0108853Y0042679D01*
X0108843Y0042780D01*
X0108837Y0042881D01*
X0108835Y0042982D01*
X0115094Y0075463D02*
X0115096Y0075551D01*
X0115102Y0075639D01*
X0115112Y0075727D01*
X0115126Y0075815D01*
X0115143Y0075901D01*
X0115165Y0075987D01*
X0115190Y0076071D01*
X0115220Y0076155D01*
X0115252Y0076237D01*
X0115289Y0076317D01*
X0115329Y0076396D01*
X0115373Y0076473D01*
X0115420Y0076548D01*
X0115470Y0076620D01*
X0115524Y0076691D01*
X0115580Y0076758D01*
X0115640Y0076824D01*
X0115702Y0076886D01*
X0115768Y0076946D01*
X0115835Y0077002D01*
X0115906Y0077056D01*
X0115978Y0077106D01*
X0116053Y0077153D01*
X0116130Y0077197D01*
X0116209Y0077237D01*
X0116289Y0077274D01*
X0116371Y0077306D01*
X0116455Y0077336D01*
X0116539Y0077361D01*
X0116625Y0077383D01*
X0116711Y0077400D01*
X0116799Y0077414D01*
X0116887Y0077424D01*
X0116975Y0077430D01*
X0117063Y0077432D01*
X0117151Y0077430D01*
X0117239Y0077424D01*
X0117327Y0077414D01*
X0117415Y0077400D01*
X0117501Y0077383D01*
X0117587Y0077361D01*
X0117671Y0077336D01*
X0117755Y0077306D01*
X0117837Y0077274D01*
X0117917Y0077237D01*
X0117996Y0077197D01*
X0118073Y0077153D01*
X0118148Y0077106D01*
X0118220Y0077056D01*
X0118291Y0077002D01*
X0118358Y0076946D01*
X0118424Y0076886D01*
X0118486Y0076824D01*
X0118546Y0076758D01*
X0118602Y0076691D01*
X0118656Y0076620D01*
X0118706Y0076548D01*
X0118753Y0076473D01*
X0118797Y0076396D01*
X0118837Y0076317D01*
X0118874Y0076237D01*
X0118906Y0076155D01*
X0118936Y0076071D01*
X0118961Y0075987D01*
X0118983Y0075901D01*
X0119000Y0075815D01*
X0119014Y0075727D01*
X0119024Y0075639D01*
X0119030Y0075551D01*
X0119032Y0075463D01*
X0119030Y0075375D01*
X0119024Y0075287D01*
X0119014Y0075199D01*
X0119000Y0075111D01*
X0118983Y0075025D01*
X0118961Y0074939D01*
X0118936Y0074855D01*
X0118906Y0074771D01*
X0118874Y0074689D01*
X0118837Y0074609D01*
X0118797Y0074530D01*
X0118753Y0074453D01*
X0118706Y0074378D01*
X0118656Y0074306D01*
X0118602Y0074235D01*
X0118546Y0074168D01*
X0118486Y0074102D01*
X0118424Y0074040D01*
X0118358Y0073980D01*
X0118291Y0073924D01*
X0118220Y0073870D01*
X0118148Y0073820D01*
X0118073Y0073773D01*
X0117996Y0073729D01*
X0117917Y0073689D01*
X0117837Y0073652D01*
X0117755Y0073620D01*
X0117671Y0073590D01*
X0117587Y0073565D01*
X0117501Y0073543D01*
X0117415Y0073526D01*
X0117327Y0073512D01*
X0117239Y0073502D01*
X0117151Y0073496D01*
X0117063Y0073494D01*
X0116975Y0073496D01*
X0116887Y0073502D01*
X0116799Y0073512D01*
X0116711Y0073526D01*
X0116625Y0073543D01*
X0116539Y0073565D01*
X0116455Y0073590D01*
X0116371Y0073620D01*
X0116289Y0073652D01*
X0116209Y0073689D01*
X0116130Y0073729D01*
X0116053Y0073773D01*
X0115978Y0073820D01*
X0115906Y0073870D01*
X0115835Y0073924D01*
X0115768Y0073980D01*
X0115702Y0074040D01*
X0115640Y0074102D01*
X0115580Y0074168D01*
X0115524Y0074235D01*
X0115470Y0074306D01*
X0115420Y0074378D01*
X0115373Y0074453D01*
X0115329Y0074530D01*
X0115289Y0074609D01*
X0115252Y0074689D01*
X0115220Y0074771D01*
X0115190Y0074855D01*
X0115165Y0074939D01*
X0115143Y0075025D01*
X0115126Y0075111D01*
X0115112Y0075199D01*
X0115102Y0075287D01*
X0115096Y0075375D01*
X0115094Y0075463D01*
X0115094Y0092785D02*
X0115096Y0092873D01*
X0115102Y0092961D01*
X0115112Y0093049D01*
X0115126Y0093137D01*
X0115143Y0093223D01*
X0115165Y0093309D01*
X0115190Y0093393D01*
X0115220Y0093477D01*
X0115252Y0093559D01*
X0115289Y0093639D01*
X0115329Y0093718D01*
X0115373Y0093795D01*
X0115420Y0093870D01*
X0115470Y0093942D01*
X0115524Y0094013D01*
X0115580Y0094080D01*
X0115640Y0094146D01*
X0115702Y0094208D01*
X0115768Y0094268D01*
X0115835Y0094324D01*
X0115906Y0094378D01*
X0115978Y0094428D01*
X0116053Y0094475D01*
X0116130Y0094519D01*
X0116209Y0094559D01*
X0116289Y0094596D01*
X0116371Y0094628D01*
X0116455Y0094658D01*
X0116539Y0094683D01*
X0116625Y0094705D01*
X0116711Y0094722D01*
X0116799Y0094736D01*
X0116887Y0094746D01*
X0116975Y0094752D01*
X0117063Y0094754D01*
X0117151Y0094752D01*
X0117239Y0094746D01*
X0117327Y0094736D01*
X0117415Y0094722D01*
X0117501Y0094705D01*
X0117587Y0094683D01*
X0117671Y0094658D01*
X0117755Y0094628D01*
X0117837Y0094596D01*
X0117917Y0094559D01*
X0117996Y0094519D01*
X0118073Y0094475D01*
X0118148Y0094428D01*
X0118220Y0094378D01*
X0118291Y0094324D01*
X0118358Y0094268D01*
X0118424Y0094208D01*
X0118486Y0094146D01*
X0118546Y0094080D01*
X0118602Y0094013D01*
X0118656Y0093942D01*
X0118706Y0093870D01*
X0118753Y0093795D01*
X0118797Y0093718D01*
X0118837Y0093639D01*
X0118874Y0093559D01*
X0118906Y0093477D01*
X0118936Y0093393D01*
X0118961Y0093309D01*
X0118983Y0093223D01*
X0119000Y0093137D01*
X0119014Y0093049D01*
X0119024Y0092961D01*
X0119030Y0092873D01*
X0119032Y0092785D01*
X0119030Y0092697D01*
X0119024Y0092609D01*
X0119014Y0092521D01*
X0119000Y0092433D01*
X0118983Y0092347D01*
X0118961Y0092261D01*
X0118936Y0092177D01*
X0118906Y0092093D01*
X0118874Y0092011D01*
X0118837Y0091931D01*
X0118797Y0091852D01*
X0118753Y0091775D01*
X0118706Y0091700D01*
X0118656Y0091628D01*
X0118602Y0091557D01*
X0118546Y0091490D01*
X0118486Y0091424D01*
X0118424Y0091362D01*
X0118358Y0091302D01*
X0118291Y0091246D01*
X0118220Y0091192D01*
X0118148Y0091142D01*
X0118073Y0091095D01*
X0117996Y0091051D01*
X0117917Y0091011D01*
X0117837Y0090974D01*
X0117755Y0090942D01*
X0117671Y0090912D01*
X0117587Y0090887D01*
X0117501Y0090865D01*
X0117415Y0090848D01*
X0117327Y0090834D01*
X0117239Y0090824D01*
X0117151Y0090818D01*
X0117063Y0090816D01*
X0116975Y0090818D01*
X0116887Y0090824D01*
X0116799Y0090834D01*
X0116711Y0090848D01*
X0116625Y0090865D01*
X0116539Y0090887D01*
X0116455Y0090912D01*
X0116371Y0090942D01*
X0116289Y0090974D01*
X0116209Y0091011D01*
X0116130Y0091051D01*
X0116053Y0091095D01*
X0115978Y0091142D01*
X0115906Y0091192D01*
X0115835Y0091246D01*
X0115768Y0091302D01*
X0115702Y0091362D01*
X0115640Y0091424D01*
X0115580Y0091490D01*
X0115524Y0091557D01*
X0115470Y0091628D01*
X0115420Y0091700D01*
X0115373Y0091775D01*
X0115329Y0091852D01*
X0115289Y0091931D01*
X0115252Y0092011D01*
X0115220Y0092093D01*
X0115190Y0092177D01*
X0115165Y0092261D01*
X0115143Y0092347D01*
X0115126Y0092433D01*
X0115112Y0092521D01*
X0115102Y0092609D01*
X0115096Y0092697D01*
X0115094Y0092785D01*
D11*
X0038500Y0030561D03*
X0038500Y0022687D03*
D12*
X0036000Y0080581D03*
X0036000Y0087667D03*
X0066000Y0087667D03*
X0066000Y0080581D03*
X0088500Y0050167D03*
X0088500Y0043081D03*
X0088500Y0037667D03*
X0088500Y0030581D03*
X0093500Y0143081D03*
X0093500Y0150167D03*
D13*
X0112457Y0169124D03*
X0119543Y0169124D03*
X0044543Y0111624D03*
X0037457Y0111624D03*
X0027043Y0109124D03*
X0019957Y0109124D03*
D14*
X0045882Y0087864D03*
X0045882Y0084124D03*
X0045882Y0080384D03*
X0056118Y0080384D03*
X0056118Y0087864D03*
D15*
X0068500Y0151388D03*
X0073500Y0151388D03*
X0078500Y0151388D03*
X0083500Y0151388D03*
X0083500Y0171860D03*
X0078500Y0171860D03*
X0073500Y0171860D03*
X0068500Y0171860D03*
D16*
X0014700Y0174124D02*
X0007300Y0174124D01*
X0007300Y0164124D02*
X0014700Y0164124D01*
X0014700Y0154124D02*
X0007300Y0154124D01*
X0007300Y0144124D02*
X0014700Y0144124D01*
X0014700Y0184124D02*
X0007300Y0184124D01*
X0007300Y0194124D02*
X0014700Y0194124D01*
D17*
X0086000Y0104124D03*
X0086000Y0094124D03*
X0123500Y0114124D03*
X0123500Y0124124D03*
D18*
X0046000Y0103061D03*
X0046000Y0095187D03*
D19*
X0057654Y0096624D03*
X0064346Y0096624D03*
D20*
X0056000Y0130384D03*
X0056000Y0137864D03*
X0011000Y0130364D03*
X0011000Y0122884D03*
X0128500Y0132884D03*
X0128500Y0140364D03*
D21*
X0098028Y0166624D03*
X0090547Y0166624D03*
D22*
X0036000Y0153494D03*
D23*
X0027024Y0125226D03*
X0044976Y0125226D03*
D24*
X0054386Y0178750D03*
X0054386Y0194498D03*
X0027614Y0194498D03*
X0027614Y0178750D03*
X0097614Y0178750D03*
X0097614Y0194498D03*
X0124386Y0194498D03*
X0124386Y0178750D03*
D25*
X0128874Y0101447D03*
X0107220Y0101447D03*
X0107220Y0066801D03*
X0128874Y0066801D03*
D26*
X0105000Y0077825D03*
X0105000Y0080974D03*
X0105000Y0084124D03*
X0105000Y0087274D03*
X0105000Y0090423D03*
D27*
X0124189Y0053612D03*
X0098598Y0049281D03*
X0098598Y0033533D03*
X0098598Y0021722D03*
D28*
X0083500Y0141624D03*
X0081000Y0161624D03*
X0073500Y0179124D03*
X0061000Y0146624D03*
X0068500Y0141624D03*
D29*
X0068500Y0151388D01*
X0061000Y0156624D02*
X0063500Y0159124D01*
X0073500Y0159124D01*
X0073500Y0151388D01*
X0076068Y0156709D02*
X0076068Y0159635D01*
X0075677Y0160579D01*
X0074955Y0161301D01*
X0074011Y0161693D01*
X0062989Y0161693D01*
X0062045Y0161301D01*
X0061323Y0160579D01*
X0058823Y0158079D01*
X0058431Y0157135D01*
X0058431Y0155895D01*
X0057683Y0156643D01*
X0056591Y0157096D01*
X0055409Y0157096D01*
X0054317Y0156643D01*
X0053481Y0155807D01*
X0053028Y0154715D01*
X0053028Y0153533D01*
X0053481Y0152441D01*
X0053825Y0152096D01*
X0053825Y0142007D01*
X0052194Y0142007D01*
X0051486Y0141299D01*
X0050099Y0141299D01*
X0049188Y0140387D01*
X0049266Y0140523D01*
X0049402Y0141028D01*
X0049402Y0152510D01*
X0036984Y0152510D01*
X0036984Y0139305D01*
X0047679Y0139305D01*
X0048183Y0139440D01*
X0048319Y0139519D01*
X0047599Y0138799D01*
X0046325Y0137525D01*
X0046325Y0136152D01*
X0045981Y0135807D01*
X0045528Y0134715D01*
X0045528Y0133533D01*
X0045867Y0132716D01*
X0041171Y0132716D01*
X0040243Y0131788D01*
X0040243Y0127795D01*
X0038568Y0127795D01*
X0038568Y0132135D01*
X0038177Y0133079D01*
X0035677Y0135579D01*
X0034955Y0136301D01*
X0034011Y0136693D01*
X0022989Y0136693D01*
X0022045Y0136301D01*
X0019545Y0133801D01*
X0018823Y0133079D01*
X0018500Y0132300D01*
X0018500Y0139885D01*
X0019036Y0140421D01*
X0019562Y0141145D01*
X0019968Y0141942D01*
X0020244Y0142793D01*
X0020384Y0143677D01*
X0020384Y0144108D01*
X0018500Y0144108D01*
X0018500Y0144140D01*
X0020384Y0144140D01*
X0020384Y0144571D01*
X0020244Y0145455D01*
X0019968Y0146306D01*
X0019562Y0147103D01*
X0019036Y0147827D01*
X0018500Y0148363D01*
X0018500Y0150451D01*
X0019180Y0151131D01*
X0019427Y0151728D01*
X0019955Y0151947D01*
X0022455Y0154447D01*
X0022598Y0154590D01*
X0022598Y0154478D01*
X0035016Y0154478D01*
X0035016Y0152510D01*
X0036984Y0152510D01*
X0036984Y0154478D01*
X0049402Y0154478D01*
X0049402Y0165960D01*
X0049266Y0166465D01*
X0049005Y0166917D01*
X0048636Y0167287D01*
X0048183Y0167548D01*
X0047679Y0167683D01*
X0036984Y0167683D01*
X0036984Y0154478D01*
X0035016Y0154478D01*
X0035016Y0167683D01*
X0026693Y0167683D01*
X0031856Y0171556D01*
X0039011Y0171556D01*
X0039955Y0171947D01*
X0042455Y0174447D01*
X0043177Y0175169D01*
X0043568Y0176113D01*
X0043568Y0181018D01*
X0045087Y0184056D01*
X0065356Y0184056D01*
X0063396Y0182096D01*
X0062909Y0182096D01*
X0062225Y0181812D01*
X0061341Y0182696D01*
X0047430Y0182696D01*
X0046502Y0181768D01*
X0046502Y0175732D01*
X0047430Y0174804D01*
X0061341Y0174804D01*
X0062269Y0175732D01*
X0062269Y0176417D01*
X0062909Y0176152D01*
X0064091Y0176152D01*
X0065183Y0176605D01*
X0065446Y0176867D01*
X0065335Y0176452D01*
X0065335Y0171860D01*
X0065335Y0167268D01*
X0065470Y0166764D01*
X0065731Y0166311D01*
X0066101Y0165942D01*
X0066553Y0165680D01*
X0067058Y0165545D01*
X0068500Y0165545D01*
X0069942Y0165545D01*
X0070447Y0165680D01*
X0070899Y0165942D01*
X0071269Y0166311D01*
X0071279Y0166329D01*
X0071663Y0165945D01*
X0075337Y0165945D01*
X0075931Y0166539D01*
X0075931Y0163613D01*
X0076323Y0162669D01*
X0077045Y0161947D01*
X0077635Y0161357D01*
X0077635Y0160955D01*
X0078147Y0159718D01*
X0079094Y0158771D01*
X0080331Y0158259D01*
X0081669Y0158259D01*
X0082906Y0158771D01*
X0083853Y0159718D01*
X0084365Y0160955D01*
X0084365Y0162293D01*
X0083853Y0163530D01*
X0082906Y0164477D01*
X0081669Y0164989D01*
X0081267Y0164989D01*
X0081068Y0165188D01*
X0081068Y0166539D01*
X0081663Y0165945D01*
X0085337Y0165945D01*
X0086265Y0166873D01*
X0086265Y0173893D01*
X0087525Y0178811D01*
X0087909Y0178652D01*
X0089091Y0178652D01*
X0089731Y0178917D01*
X0089731Y0176815D01*
X0089317Y0176643D01*
X0088481Y0175807D01*
X0088028Y0174715D01*
X0088028Y0173533D01*
X0088481Y0172441D01*
X0089265Y0171657D01*
X0089183Y0171358D01*
X0087332Y0171358D01*
X0086404Y0170430D01*
X0086404Y0162818D01*
X0087332Y0161890D01*
X0093763Y0161890D01*
X0094287Y0162415D01*
X0094812Y0161890D01*
X0097634Y0161890D01*
X0094523Y0158780D01*
X0094495Y0158767D01*
X0094163Y0158419D01*
X0093823Y0158079D01*
X0093811Y0158050D01*
X0093789Y0158028D01*
X0093616Y0157579D01*
X0093431Y0157135D01*
X0093431Y0157104D01*
X0091969Y0153326D01*
X0090482Y0153326D01*
X0089554Y0152398D01*
X0089554Y0151703D01*
X0088498Y0152758D01*
X0087554Y0153149D01*
X0086265Y0153149D01*
X0086265Y0156375D01*
X0085337Y0157303D01*
X0081663Y0157303D01*
X0081000Y0156640D01*
X0080337Y0157303D01*
X0076663Y0157303D01*
X0076068Y0156709D01*
X0076068Y0158084D02*
X0093828Y0158084D01*
X0093049Y0156117D02*
X0086265Y0156117D01*
X0086265Y0154150D02*
X0092288Y0154150D01*
X0089554Y0152183D02*
X0089073Y0152183D01*
X0087043Y0150581D02*
X0088500Y0149124D01*
X0094957Y0149124D01*
X0093500Y0150167D01*
X0102457Y0150167D01*
X0101000Y0149124D01*
X0100096Y0146282D02*
X0097013Y0146282D01*
X0097081Y0146243D02*
X0096628Y0146505D01*
X0096123Y0146640D01*
X0095677Y0146640D01*
X0095880Y0146673D01*
X0096135Y0146832D01*
X0096412Y0146947D01*
X0096473Y0147008D01*
X0096518Y0147008D01*
X0096683Y0147173D01*
X0096747Y0147213D01*
X0096808Y0147298D01*
X0097109Y0147599D01*
X0098415Y0147599D01*
X0098481Y0147441D01*
X0099317Y0146605D01*
X0100409Y0146152D01*
X0101591Y0146152D01*
X0102683Y0146605D01*
X0103519Y0147441D01*
X0103713Y0147907D01*
X0103825Y0147954D01*
X0103825Y0123652D01*
X0103481Y0123307D01*
X0103028Y0122215D01*
X0103028Y0121033D01*
X0103481Y0119941D01*
X0104317Y0119105D01*
X0105055Y0118799D01*
X0097599Y0118799D01*
X0096325Y0117525D01*
X0092813Y0114013D01*
X0092683Y0114143D01*
X0091591Y0114596D01*
X0091000Y0114596D01*
X0091000Y0116624D01*
X0088500Y0119124D01*
X0084176Y0119124D01*
X0084011Y0119193D01*
X0060489Y0119193D01*
X0060324Y0119124D01*
X0049710Y0119124D01*
X0049710Y0122658D01*
X0087613Y0122658D01*
X0088557Y0123049D01*
X0089955Y0124447D01*
X0090677Y0125169D01*
X0091068Y0126113D01*
X0091068Y0139522D01*
X0093500Y0139522D01*
X0096123Y0139522D01*
X0096628Y0139657D01*
X0097081Y0139918D01*
X0097450Y0140288D01*
X0097711Y0140740D01*
X0097846Y0141245D01*
X0097846Y0143081D01*
X0097846Y0144917D01*
X0097711Y0145421D01*
X0097450Y0145874D01*
X0097081Y0146243D01*
X0097846Y0144315D02*
X0103825Y0144315D01*
X0103825Y0142348D02*
X0097846Y0142348D01*
X0097846Y0143081D02*
X0093500Y0143081D01*
X0097846Y0143081D01*
X0097504Y0140381D02*
X0103825Y0140381D01*
X0103825Y0138414D02*
X0091068Y0138414D01*
X0091068Y0136447D02*
X0103825Y0136447D01*
X0103825Y0134480D02*
X0091068Y0134480D01*
X0091068Y0132513D02*
X0103825Y0132513D01*
X0103825Y0130546D02*
X0091068Y0130546D01*
X0091068Y0128579D02*
X0103825Y0128579D01*
X0103825Y0126612D02*
X0091068Y0126612D01*
X0090153Y0124645D02*
X0103825Y0124645D01*
X0103220Y0122678D02*
X0087662Y0122678D01*
X0087102Y0125226D02*
X0088500Y0126624D01*
X0088500Y0149124D01*
X0087043Y0150581D02*
X0084307Y0150581D01*
X0083500Y0151388D01*
X0083991Y0160051D02*
X0095795Y0160051D01*
X0094684Y0162018D02*
X0093891Y0162018D01*
X0090547Y0166624D02*
X0092260Y0172864D01*
X0091000Y0174124D01*
X0089068Y0171853D02*
X0086265Y0171853D01*
X0086265Y0169886D02*
X0086404Y0169886D01*
X0086404Y0167919D02*
X0086265Y0167919D01*
X0086404Y0165952D02*
X0085344Y0165952D01*
X0086404Y0163985D02*
X0083398Y0163985D01*
X0084365Y0162018D02*
X0087204Y0162018D01*
X0081656Y0165952D02*
X0081068Y0165952D01*
X0078500Y0164124D02*
X0078500Y0171860D01*
X0075931Y0165952D02*
X0075344Y0165952D01*
X0075931Y0163985D02*
X0049402Y0163985D01*
X0049402Y0162018D02*
X0076973Y0162018D01*
X0078009Y0160051D02*
X0075896Y0160051D01*
X0078500Y0164124D02*
X0081000Y0161624D01*
X0078500Y0151388D02*
X0078500Y0144124D01*
X0081000Y0141624D01*
X0083500Y0141624D01*
X0093500Y0142348D02*
X0093500Y0142348D01*
X0093500Y0143081D02*
X0093500Y0139522D01*
X0093500Y0143081D01*
X0093500Y0143081D01*
X0093500Y0143081D01*
X0093500Y0140381D02*
X0093500Y0140381D01*
X0093500Y0150167D02*
X0096000Y0156624D01*
X0101000Y0161624D01*
X0101000Y0165364D01*
X0098028Y0166624D01*
X0088472Y0175787D02*
X0086750Y0175787D01*
X0086265Y0173820D02*
X0088028Y0173820D01*
X0087254Y0177754D02*
X0089731Y0177754D01*
X0087771Y0189193D02*
X0088519Y0189941D01*
X0088972Y0191033D01*
X0088972Y0192215D01*
X0088519Y0193307D01*
X0087683Y0194143D01*
X0086591Y0194596D01*
X0085409Y0194596D01*
X0084317Y0194143D01*
X0083481Y0193307D01*
X0083028Y0192215D01*
X0083028Y0191728D01*
X0082599Y0191299D01*
X0062088Y0191299D01*
X0062269Y0191480D01*
X0062269Y0197516D01*
X0061341Y0198444D01*
X0047430Y0198444D01*
X0046502Y0197516D01*
X0046502Y0191480D01*
X0046683Y0191299D01*
X0035721Y0191299D01*
X0035762Y0191370D01*
X0035898Y0191875D01*
X0035898Y0194301D01*
X0027811Y0194301D01*
X0027811Y0194695D01*
X0027417Y0194695D01*
X0027417Y0198844D01*
X0023220Y0198844D01*
X0023500Y0199124D01*
X0129756Y0199124D01*
X0130926Y0198744D01*
X0131338Y0198444D01*
X0117430Y0198444D01*
X0116502Y0197516D01*
X0116502Y0191480D01*
X0117430Y0190552D01*
X0123431Y0190552D01*
X0123431Y0190188D01*
X0122436Y0189193D01*
X0087771Y0189193D01*
X0088135Y0189556D02*
X0122800Y0189556D01*
X0123500Y0186624D02*
X0126000Y0189124D01*
X0128500Y0189124D01*
X0127026Y0186518D02*
X0127909Y0186152D01*
X0129091Y0186152D01*
X0130183Y0186605D01*
X0131019Y0187441D01*
X0131472Y0188533D01*
X0131472Y0189715D01*
X0131125Y0190552D01*
X0131341Y0190552D01*
X0132269Y0191480D01*
X0132269Y0197516D01*
X0131350Y0198436D01*
X0132587Y0197537D01*
X0133153Y0196971D01*
X0133500Y0196493D01*
X0133500Y0106968D01*
X0123493Y0106968D01*
X0122565Y0106040D01*
X0122565Y0096854D01*
X0123493Y0095926D01*
X0133500Y0095926D01*
X0133500Y0072322D01*
X0123493Y0072322D01*
X0122565Y0071394D01*
X0122565Y0062208D01*
X0123149Y0061624D01*
X0112945Y0061624D01*
X0113529Y0062208D01*
X0113529Y0071394D01*
X0112601Y0072322D01*
X0101840Y0072322D01*
X0100912Y0071394D01*
X0100912Y0062208D01*
X0101496Y0061624D01*
X0091000Y0061624D01*
X0091000Y0075256D01*
X0110200Y0075256D01*
X0111128Y0076184D01*
X0111128Y0088217D01*
X0111131Y0088221D01*
X0111392Y0088673D01*
X0111528Y0089178D01*
X0111528Y0090423D01*
X0105000Y0090423D01*
X0105000Y0090423D01*
X0098472Y0090423D01*
X0098472Y0089178D01*
X0098608Y0088673D01*
X0098869Y0088221D01*
X0098872Y0088217D01*
X0098872Y0080393D01*
X0091000Y0080393D01*
X0091000Y0092387D01*
X0091284Y0093073D01*
X0091284Y0095175D01*
X0091000Y0095861D01*
X0091000Y0102387D01*
X0091284Y0103073D01*
X0091284Y0105175D01*
X0091000Y0105861D01*
X0091000Y0108652D01*
X0091591Y0108652D01*
X0092683Y0109105D01*
X0093028Y0109449D01*
X0094401Y0109449D01*
X0099401Y0114449D01*
X0111901Y0114449D01*
X0113175Y0115723D01*
X0113175Y0165025D01*
X0113022Y0165178D01*
X0114688Y0165178D01*
X0115616Y0166106D01*
X0115616Y0172142D01*
X0115025Y0172733D01*
X0115025Y0184056D01*
X0124011Y0184056D01*
X0124955Y0184447D01*
X0127026Y0186518D01*
X0126131Y0185622D02*
X0133500Y0185622D01*
X0133500Y0183655D02*
X0115025Y0183655D01*
X0115025Y0181688D02*
X0116187Y0181688D01*
X0116238Y0181878D02*
X0116102Y0181373D01*
X0116102Y0178947D01*
X0124189Y0178947D01*
X0124189Y0183096D01*
X0117825Y0183096D01*
X0117321Y0182961D01*
X0116868Y0182700D01*
X0116499Y0182331D01*
X0116238Y0181878D01*
X0116102Y0179721D02*
X0115025Y0179721D01*
X0116102Y0178553D02*
X0116102Y0176127D01*
X0116238Y0175622D01*
X0116499Y0175169D01*
X0116868Y0174800D01*
X0117321Y0174539D01*
X0117825Y0174404D01*
X0124189Y0174404D01*
X0124189Y0178553D01*
X0124583Y0178553D01*
X0124583Y0178947D01*
X0132669Y0178947D01*
X0132669Y0181373D01*
X0132534Y0181878D01*
X0132273Y0182331D01*
X0131903Y0182700D01*
X0131451Y0182961D01*
X0130946Y0183096D01*
X0124583Y0183096D01*
X0124583Y0178947D01*
X0124189Y0178947D01*
X0124189Y0178553D01*
X0116102Y0178553D01*
X0116102Y0177754D02*
X0115025Y0177754D01*
X0115025Y0175787D02*
X0116193Y0175787D01*
X0115025Y0173820D02*
X0133500Y0173820D01*
X0132273Y0175169D02*
X0132534Y0175622D01*
X0132669Y0176127D01*
X0132669Y0178553D01*
X0124583Y0178553D01*
X0124583Y0174404D01*
X0130946Y0174404D01*
X0131451Y0174539D01*
X0131903Y0174800D01*
X0132273Y0175169D01*
X0132578Y0175787D02*
X0133500Y0175787D01*
X0133500Y0177754D02*
X0132669Y0177754D01*
X0132669Y0179721D02*
X0133500Y0179721D01*
X0133500Y0181688D02*
X0132585Y0181688D01*
X0133500Y0187589D02*
X0131081Y0187589D01*
X0131472Y0189556D02*
X0133500Y0189556D01*
X0133500Y0191523D02*
X0132269Y0191523D01*
X0132269Y0193490D02*
X0133500Y0193490D01*
X0133500Y0195457D02*
X0132269Y0195457D01*
X0132269Y0197424D02*
X0132700Y0197424D01*
X0126000Y0192884D02*
X0126000Y0189124D01*
X0123500Y0186624D02*
X0113500Y0186624D01*
X0112457Y0185581D01*
X0112457Y0169124D01*
X0115616Y0169886D02*
X0115984Y0169886D01*
X0115984Y0169124D02*
X0119543Y0169124D01*
X0115984Y0169124D01*
X0115984Y0166501D01*
X0116119Y0165996D01*
X0116381Y0165543D01*
X0116750Y0165174D01*
X0117203Y0164913D01*
X0117707Y0164778D01*
X0119543Y0164778D01*
X0119543Y0169124D01*
X0119543Y0169124D01*
X0119543Y0169124D01*
X0119543Y0173470D01*
X0117707Y0173470D01*
X0117203Y0173335D01*
X0116750Y0173074D01*
X0116381Y0172705D01*
X0116119Y0172252D01*
X0115984Y0171747D01*
X0115984Y0169124D01*
X0115984Y0167919D02*
X0115616Y0167919D01*
X0115462Y0165952D02*
X0116145Y0165952D01*
X0113175Y0163985D02*
X0133500Y0163985D01*
X0133500Y0162018D02*
X0113175Y0162018D01*
X0113175Y0160051D02*
X0133500Y0160051D01*
X0133500Y0158084D02*
X0113175Y0158084D01*
X0113175Y0156117D02*
X0133500Y0156117D01*
X0133500Y0154150D02*
X0113175Y0154150D01*
X0113175Y0152183D02*
X0133500Y0152183D01*
X0133500Y0150216D02*
X0113175Y0150216D01*
X0113175Y0148249D02*
X0123457Y0148249D01*
X0123481Y0148307D02*
X0123028Y0147215D01*
X0123028Y0146033D01*
X0123481Y0144941D01*
X0124190Y0144232D01*
X0124255Y0144068D01*
X0123766Y0143579D01*
X0123766Y0137149D01*
X0124291Y0136624D01*
X0123766Y0136099D01*
X0123766Y0129669D01*
X0124026Y0129408D01*
X0122449Y0129408D01*
X0120507Y0128604D01*
X0119020Y0127117D01*
X0118216Y0125175D01*
X0118216Y0123073D01*
X0119020Y0121131D01*
X0120507Y0119644D01*
X0121227Y0119346D01*
X0120521Y0118986D01*
X0119797Y0118460D01*
X0119164Y0117827D01*
X0118638Y0117103D01*
X0118232Y0116306D01*
X0117956Y0115455D01*
X0117816Y0114571D01*
X0117816Y0114124D01*
X0117816Y0113677D01*
X0117956Y0112793D01*
X0118232Y0111942D01*
X0118638Y0111145D01*
X0119164Y0110421D01*
X0119797Y0109788D01*
X0120521Y0109262D01*
X0121318Y0108856D01*
X0122169Y0108580D01*
X0123053Y0108440D01*
X0123500Y0108440D01*
X0123500Y0114124D01*
X0123500Y0108440D01*
X0123947Y0108440D01*
X0124831Y0108580D01*
X0125682Y0108856D01*
X0126479Y0109262D01*
X0127203Y0109788D01*
X0127836Y0110421D01*
X0128362Y0111145D01*
X0128768Y0111942D01*
X0129044Y0112793D01*
X0129184Y0113677D01*
X0129184Y0114124D01*
X0123500Y0114124D01*
X0123500Y0114124D01*
X0129184Y0114124D01*
X0129184Y0114571D01*
X0129044Y0115455D01*
X0128768Y0116306D01*
X0128362Y0117103D01*
X0127836Y0117827D01*
X0127203Y0118460D01*
X0126479Y0118986D01*
X0125772Y0119346D01*
X0126493Y0119644D01*
X0127980Y0121131D01*
X0128784Y0123073D01*
X0128784Y0125175D01*
X0128608Y0125600D01*
X0130677Y0127669D01*
X0131068Y0128613D01*
X0131068Y0128741D01*
X0132306Y0128741D01*
X0133234Y0129669D01*
X0133234Y0136099D01*
X0132709Y0136624D01*
X0133234Y0137149D01*
X0133234Y0143579D01*
X0132306Y0144507D01*
X0129611Y0144507D01*
X0128972Y0146108D01*
X0128972Y0147215D01*
X0128519Y0148307D01*
X0127683Y0149143D01*
X0126591Y0149596D01*
X0125409Y0149596D01*
X0124317Y0149143D01*
X0123481Y0148307D01*
X0123028Y0146282D02*
X0113175Y0146282D01*
X0113175Y0144315D02*
X0124106Y0144315D01*
X0123766Y0142348D02*
X0113175Y0142348D01*
X0113175Y0140381D02*
X0123766Y0140381D01*
X0123766Y0138414D02*
X0113175Y0138414D01*
X0113175Y0136447D02*
X0124114Y0136447D01*
X0123766Y0134480D02*
X0113175Y0134480D01*
X0113175Y0132513D02*
X0123766Y0132513D01*
X0123766Y0130546D02*
X0113175Y0130546D01*
X0113175Y0128579D02*
X0120482Y0128579D01*
X0118811Y0126612D02*
X0113175Y0126612D01*
X0113175Y0124645D02*
X0118216Y0124645D01*
X0118379Y0122678D02*
X0113175Y0122678D01*
X0113175Y0120711D02*
X0119440Y0120711D01*
X0120188Y0118744D02*
X0113175Y0118744D01*
X0113175Y0116777D02*
X0118472Y0116777D01*
X0117854Y0114810D02*
X0112261Y0114810D01*
X0112601Y0106968D02*
X0113529Y0106040D01*
X0113529Y0096854D01*
X0112601Y0095926D01*
X0101840Y0095926D01*
X0100912Y0096854D01*
X0100912Y0106040D01*
X0101840Y0106968D01*
X0112601Y0106968D01*
X0112627Y0106942D02*
X0123467Y0106942D01*
X0123500Y0108909D02*
X0123500Y0108909D01*
X0123500Y0110876D02*
X0123500Y0110876D01*
X0123500Y0112843D02*
X0123500Y0112843D01*
X0123500Y0114124D02*
X0117816Y0114124D01*
X0123500Y0114124D01*
X0123500Y0114124D01*
X0123500Y0114124D01*
X0125785Y0108909D02*
X0133500Y0108909D01*
X0133500Y0110876D02*
X0128166Y0110876D01*
X0129052Y0112843D02*
X0133500Y0112843D01*
X0133500Y0114810D02*
X0129146Y0114810D01*
X0128528Y0116777D02*
X0133500Y0116777D01*
X0133500Y0118744D02*
X0126812Y0118744D01*
X0127560Y0120711D02*
X0133500Y0120711D01*
X0133500Y0122678D02*
X0128621Y0122678D01*
X0128784Y0124645D02*
X0133500Y0124645D01*
X0133500Y0126612D02*
X0129620Y0126612D01*
X0131054Y0128579D02*
X0133500Y0128579D01*
X0133500Y0130546D02*
X0133234Y0130546D01*
X0133234Y0132513D02*
X0133500Y0132513D01*
X0133500Y0134480D02*
X0133234Y0134480D01*
X0133500Y0136447D02*
X0132886Y0136447D01*
X0133234Y0138414D02*
X0133500Y0138414D01*
X0133500Y0140381D02*
X0133234Y0140381D01*
X0133234Y0142348D02*
X0133500Y0142348D01*
X0133500Y0144315D02*
X0132498Y0144315D01*
X0133500Y0146282D02*
X0128972Y0146282D01*
X0128543Y0148249D02*
X0133500Y0148249D01*
X0126000Y0146624D02*
X0128500Y0140364D01*
X0128500Y0132884D02*
X0128500Y0129124D01*
X0123500Y0124124D01*
X0117948Y0112843D02*
X0097794Y0112843D01*
X0095827Y0110876D02*
X0118834Y0110876D01*
X0121215Y0108909D02*
X0092210Y0108909D01*
X0091000Y0106942D02*
X0101814Y0106942D01*
X0100912Y0104975D02*
X0091284Y0104975D01*
X0091257Y0103008D02*
X0100912Y0103008D01*
X0100912Y0101041D02*
X0091000Y0101041D01*
X0091000Y0099074D02*
X0100912Y0099074D01*
X0100912Y0097107D02*
X0091000Y0097107D01*
X0091284Y0095140D02*
X0113827Y0095140D01*
X0113712Y0095024D02*
X0113110Y0093572D01*
X0113110Y0091999D01*
X0113712Y0090546D01*
X0114824Y0089434D01*
X0116277Y0088833D01*
X0117849Y0088833D01*
X0119302Y0089434D01*
X0120414Y0090546D01*
X0121016Y0091999D01*
X0121016Y0093572D01*
X0120414Y0095024D01*
X0119302Y0096136D01*
X0117849Y0096738D01*
X0116277Y0096738D01*
X0114824Y0096136D01*
X0113712Y0095024D01*
X0113110Y0093173D02*
X0110454Y0093173D01*
X0110309Y0093256D02*
X0109805Y0093392D01*
X0105000Y0093392D01*
X0100195Y0093392D01*
X0099691Y0093256D01*
X0099238Y0092995D01*
X0098869Y0092626D01*
X0098608Y0092173D01*
X0098472Y0091669D01*
X0098472Y0090423D01*
X0105000Y0090423D01*
X0105000Y0090423D01*
X0111528Y0090423D01*
X0111528Y0091669D01*
X0111392Y0092173D01*
X0111131Y0092626D01*
X0110762Y0092995D01*
X0110309Y0093256D01*
X0111528Y0091206D02*
X0113439Y0091206D01*
X0115297Y0089239D02*
X0111528Y0089239D01*
X0111128Y0087272D02*
X0133500Y0087272D01*
X0133500Y0089239D02*
X0118829Y0089239D01*
X0120687Y0091206D02*
X0133500Y0091206D01*
X0133500Y0093173D02*
X0121016Y0093173D01*
X0120299Y0095140D02*
X0133500Y0095140D01*
X0133500Y0085305D02*
X0111128Y0085305D01*
X0111128Y0083338D02*
X0133500Y0083338D01*
X0133500Y0081371D02*
X0111128Y0081371D01*
X0111128Y0079404D02*
X0116248Y0079404D01*
X0116277Y0079415D02*
X0114824Y0078814D01*
X0113712Y0077702D01*
X0113110Y0076249D01*
X0113110Y0074676D01*
X0113712Y0073224D01*
X0114824Y0072112D01*
X0116277Y0071510D01*
X0117849Y0071510D01*
X0119302Y0072112D01*
X0120414Y0073224D01*
X0121016Y0074676D01*
X0121016Y0076249D01*
X0120414Y0077702D01*
X0119302Y0078814D01*
X0117849Y0079415D01*
X0116277Y0079415D01*
X0117878Y0079404D02*
X0133500Y0079404D01*
X0133500Y0077437D02*
X0120524Y0077437D01*
X0121016Y0075470D02*
X0133500Y0075470D01*
X0133500Y0073503D02*
X0120530Y0073503D01*
X0122706Y0071536D02*
X0117911Y0071536D01*
X0116215Y0071536D02*
X0113388Y0071536D01*
X0113529Y0069569D02*
X0122565Y0069569D01*
X0122565Y0067601D02*
X0113529Y0067601D01*
X0113529Y0065634D02*
X0122565Y0065634D01*
X0122565Y0063667D02*
X0113529Y0063667D01*
X0113022Y0061700D02*
X0123073Y0061700D01*
X0123992Y0053809D02*
X0123992Y0053415D01*
X0124386Y0053415D01*
X0124386Y0049266D01*
X0129371Y0049266D01*
X0129876Y0049401D01*
X0130329Y0049662D01*
X0130698Y0050032D01*
X0130959Y0050484D01*
X0131094Y0050989D01*
X0131094Y0053415D01*
X0124386Y0053415D01*
X0124386Y0053809D01*
X0131094Y0053809D01*
X0131094Y0056236D01*
X0130990Y0056624D01*
X0131000Y0056624D01*
X0133500Y0054124D01*
X0133500Y0014124D01*
X0131000Y0011624D01*
X0114020Y0011624D01*
X0115245Y0012850D01*
X0115937Y0014520D01*
X0115937Y0016327D01*
X0115245Y0017997D01*
X0113967Y0019275D01*
X0112297Y0019967D01*
X0110490Y0019967D01*
X0108820Y0019275D01*
X0107542Y0017997D01*
X0106850Y0016327D01*
X0106850Y0014520D01*
X0107542Y0012850D01*
X0108768Y0011624D01*
X0063500Y0011624D01*
X0061000Y0014124D01*
X0061000Y0054124D01*
X0063500Y0056624D01*
X0117388Y0056624D01*
X0117283Y0056236D01*
X0117283Y0053809D01*
X0123992Y0053809D01*
X0123992Y0053415D02*
X0117283Y0053415D01*
X0117283Y0050989D01*
X0117419Y0050484D01*
X0117680Y0050032D01*
X0118049Y0049662D01*
X0118502Y0049401D01*
X0119006Y0049266D01*
X0123992Y0049266D01*
X0123992Y0053415D01*
X0123992Y0051865D02*
X0124386Y0051865D01*
X0124386Y0049898D02*
X0123992Y0049898D01*
X0117813Y0049898D02*
X0105104Y0049898D01*
X0105104Y0047931D02*
X0133500Y0047931D01*
X0133500Y0045964D02*
X0114837Y0045964D01*
X0115245Y0045556D02*
X0113967Y0046834D01*
X0112297Y0047526D01*
X0110490Y0047526D01*
X0108820Y0046834D01*
X0107542Y0045556D01*
X0106850Y0043886D01*
X0106850Y0042079D01*
X0107542Y0040409D01*
X0108820Y0039131D01*
X0110490Y0038439D01*
X0112297Y0038439D01*
X0113967Y0039131D01*
X0115245Y0040409D01*
X0115937Y0042079D01*
X0115937Y0043886D01*
X0115245Y0045556D01*
X0115891Y0043997D02*
X0133500Y0043997D01*
X0133500Y0042030D02*
X0115917Y0042030D01*
X0114900Y0040063D02*
X0133500Y0040063D01*
X0133500Y0038096D02*
X0092846Y0038096D01*
X0092846Y0037667D02*
X0092846Y0039503D01*
X0092711Y0040008D01*
X0092500Y0040374D01*
X0092711Y0040740D01*
X0092846Y0041245D01*
X0092846Y0043081D01*
X0092846Y0044917D01*
X0092711Y0045421D01*
X0092450Y0045874D01*
X0092081Y0046243D01*
X0091628Y0046505D01*
X0091123Y0046640D01*
X0088500Y0046640D01*
X0085877Y0046640D01*
X0085372Y0046505D01*
X0084919Y0046243D01*
X0084550Y0045874D01*
X0084289Y0045421D01*
X0084154Y0044917D01*
X0084154Y0043081D01*
X0088500Y0043081D01*
X0088500Y0043081D01*
X0088500Y0046640D01*
X0088500Y0043081D01*
X0088500Y0043081D01*
X0092846Y0043081D01*
X0088500Y0043081D01*
X0088500Y0043081D01*
X0084154Y0043081D01*
X0084154Y0041245D01*
X0084289Y0040740D01*
X0084500Y0040374D01*
X0084289Y0040008D01*
X0084154Y0039503D01*
X0084154Y0037667D01*
X0084154Y0035831D01*
X0084289Y0035327D01*
X0084550Y0034874D01*
X0084919Y0034505D01*
X0085372Y0034243D01*
X0085877Y0034108D01*
X0088500Y0034108D01*
X0091123Y0034108D01*
X0091628Y0034243D01*
X0092081Y0034505D01*
X0092093Y0034517D01*
X0092093Y0033165D01*
X0091518Y0033740D01*
X0085482Y0033740D01*
X0084554Y0032812D01*
X0084554Y0028350D01*
X0085482Y0027422D01*
X0085931Y0027422D01*
X0085931Y0025188D01*
X0085290Y0024546D01*
X0084317Y0024143D01*
X0083481Y0023307D01*
X0083028Y0022215D01*
X0083028Y0021033D01*
X0083481Y0019941D01*
X0084317Y0019105D01*
X0085409Y0018652D01*
X0086591Y0018652D01*
X0087683Y0019105D01*
X0088519Y0019941D01*
X0088922Y0020914D01*
X0090677Y0022669D01*
X0091068Y0023613D01*
X0091068Y0027422D01*
X0091518Y0027422D01*
X0092109Y0028012D01*
X0095172Y0028012D01*
X0095602Y0027985D01*
X0095680Y0028012D01*
X0095763Y0028012D01*
X0096161Y0028177D01*
X0096568Y0028317D01*
X0096630Y0028372D01*
X0096707Y0028403D01*
X0097011Y0028708D01*
X0098008Y0029587D01*
X0104176Y0029587D01*
X0105104Y0030515D01*
X0105104Y0036552D01*
X0104176Y0037480D01*
X0093021Y0037480D01*
X0092846Y0037305D01*
X0092846Y0037667D01*
X0088500Y0037667D01*
X0088500Y0034108D01*
X0088500Y0037667D01*
X0088500Y0037667D01*
X0084154Y0037667D01*
X0088500Y0037667D01*
X0088500Y0037667D01*
X0088500Y0037667D01*
X0092846Y0037667D01*
X0092679Y0040063D02*
X0107887Y0040063D01*
X0106870Y0042030D02*
X0092846Y0042030D01*
X0092846Y0043997D02*
X0106897Y0043997D01*
X0107951Y0045964D02*
X0104805Y0045964D01*
X0105104Y0046263D02*
X0105104Y0052300D01*
X0104176Y0053228D01*
X0093021Y0053228D01*
X0092319Y0052526D01*
X0091518Y0053326D01*
X0085482Y0053326D01*
X0084554Y0052398D01*
X0084554Y0051850D01*
X0080647Y0051850D01*
X0079703Y0051459D01*
X0077045Y0048801D01*
X0076323Y0048079D01*
X0075931Y0047135D01*
X0075931Y0037688D01*
X0075290Y0037046D01*
X0074317Y0036643D01*
X0073481Y0035807D01*
X0073028Y0034715D01*
X0073028Y0033533D01*
X0073481Y0032441D01*
X0074317Y0031605D01*
X0075409Y0031152D01*
X0076591Y0031152D01*
X0077683Y0031605D01*
X0078519Y0032441D01*
X0078922Y0033414D01*
X0080677Y0035169D01*
X0081068Y0036113D01*
X0081068Y0045560D01*
X0082221Y0046713D01*
X0089897Y0046713D01*
X0092093Y0046713D01*
X0092093Y0046263D01*
X0093021Y0045335D01*
X0104176Y0045335D01*
X0105104Y0046263D01*
X0105104Y0051865D02*
X0117283Y0051865D01*
X0117283Y0053832D02*
X0061000Y0053832D01*
X0061000Y0051865D02*
X0084554Y0051865D01*
X0084640Y0045964D02*
X0081473Y0045964D01*
X0081068Y0043997D02*
X0084154Y0043997D01*
X0084154Y0042030D02*
X0081068Y0042030D01*
X0081068Y0040063D02*
X0084321Y0040063D01*
X0084154Y0038096D02*
X0081068Y0038096D01*
X0081068Y0036129D02*
X0084154Y0036129D01*
X0085675Y0034162D02*
X0079671Y0034162D01*
X0078274Y0032195D02*
X0084554Y0032195D01*
X0084554Y0030228D02*
X0061000Y0030228D01*
X0061000Y0028261D02*
X0084642Y0028261D01*
X0085931Y0026294D02*
X0061000Y0026294D01*
X0061000Y0024327D02*
X0084761Y0024327D01*
X0083088Y0022360D02*
X0061000Y0022360D01*
X0061000Y0020393D02*
X0083293Y0020393D01*
X0086000Y0021624D02*
X0088500Y0024124D01*
X0088500Y0030581D01*
X0095252Y0030581D01*
X0098598Y0033533D01*
X0096406Y0028261D02*
X0133500Y0028261D01*
X0133500Y0026294D02*
X0091068Y0026294D01*
X0092089Y0025303D02*
X0091828Y0024851D01*
X0091693Y0024346D01*
X0091693Y0021919D01*
X0098401Y0021919D01*
X0098401Y0021526D01*
X0091693Y0021526D01*
X0091693Y0019099D01*
X0091828Y0018594D01*
X0092089Y0018142D01*
X0092459Y0017772D01*
X0092911Y0017511D01*
X0093416Y0017376D01*
X0098402Y0017376D01*
X0098402Y0021526D01*
X0098795Y0021526D01*
X0098795Y0021919D01*
X0105504Y0021919D01*
X0105504Y0024346D01*
X0105369Y0024851D01*
X0105107Y0025303D01*
X0104738Y0025672D01*
X0104286Y0025934D01*
X0103781Y0026069D01*
X0098795Y0026069D01*
X0098795Y0021919D01*
X0098402Y0021919D01*
X0098402Y0026069D01*
X0093416Y0026069D01*
X0092911Y0025934D01*
X0092459Y0025672D01*
X0092089Y0025303D01*
X0091693Y0024327D02*
X0091068Y0024327D01*
X0091693Y0022360D02*
X0090369Y0022360D01*
X0091693Y0020393D02*
X0088707Y0020393D01*
X0091925Y0018426D02*
X0061000Y0018426D01*
X0061000Y0016459D02*
X0106905Y0016459D01*
X0106862Y0014492D02*
X0061000Y0014492D01*
X0062599Y0012525D02*
X0107867Y0012525D01*
X0107971Y0018426D02*
X0105272Y0018426D01*
X0105369Y0018594D02*
X0105504Y0019099D01*
X0105504Y0021526D01*
X0098795Y0021526D01*
X0098795Y0017376D01*
X0103781Y0017376D01*
X0104286Y0017511D01*
X0104738Y0017772D01*
X0105107Y0018142D01*
X0105369Y0018594D01*
X0105504Y0020393D02*
X0133500Y0020393D01*
X0133500Y0018426D02*
X0114816Y0018426D01*
X0115882Y0016459D02*
X0133500Y0016459D01*
X0133500Y0014492D02*
X0115926Y0014492D01*
X0114921Y0012525D02*
X0131901Y0012525D01*
X0133500Y0022360D02*
X0105504Y0022360D01*
X0105504Y0024327D02*
X0133500Y0024327D01*
X0133500Y0030228D02*
X0104817Y0030228D01*
X0105104Y0032195D02*
X0133500Y0032195D01*
X0133500Y0034162D02*
X0105104Y0034162D01*
X0105104Y0036129D02*
X0133500Y0036129D01*
X0133500Y0049898D02*
X0130565Y0049898D01*
X0131094Y0051865D02*
X0133500Y0051865D01*
X0133500Y0053832D02*
X0131094Y0053832D01*
X0131094Y0055799D02*
X0131825Y0055799D01*
X0117283Y0055799D02*
X0062675Y0055799D01*
X0061000Y0049898D02*
X0078142Y0049898D01*
X0076261Y0047931D02*
X0061000Y0047931D01*
X0061000Y0045964D02*
X0075931Y0045964D01*
X0075931Y0043997D02*
X0061000Y0043997D01*
X0061000Y0042030D02*
X0075931Y0042030D01*
X0075931Y0040063D02*
X0061000Y0040063D01*
X0061000Y0038096D02*
X0075931Y0038096D01*
X0078500Y0036624D02*
X0076000Y0034124D01*
X0078500Y0036624D02*
X0078500Y0046624D01*
X0081157Y0049281D01*
X0089386Y0049281D01*
X0088500Y0050167D01*
X0089386Y0049281D02*
X0098598Y0049281D01*
X0092392Y0045964D02*
X0092360Y0045964D01*
X0088500Y0045964D02*
X0088500Y0045964D01*
X0088500Y0043997D02*
X0088500Y0043997D01*
X0088500Y0043081D02*
X0088500Y0037667D01*
X0088500Y0041226D01*
X0088500Y0043081D01*
X0088500Y0043081D01*
X0088500Y0042030D02*
X0088500Y0042030D01*
X0088500Y0040063D02*
X0088500Y0040063D01*
X0088500Y0038096D02*
X0088500Y0038096D01*
X0088500Y0037667D02*
X0088500Y0037667D01*
X0088500Y0036129D02*
X0088500Y0036129D01*
X0088500Y0034162D02*
X0088500Y0034162D01*
X0091325Y0034162D02*
X0092093Y0034162D01*
X0098402Y0024327D02*
X0098795Y0024327D01*
X0098795Y0022360D02*
X0098402Y0022360D01*
X0098402Y0020393D02*
X0098795Y0020393D01*
X0098795Y0018426D02*
X0098402Y0018426D01*
X0073726Y0032195D02*
X0061000Y0032195D01*
X0061000Y0034162D02*
X0073028Y0034162D01*
X0073803Y0036129D02*
X0061000Y0036129D01*
X0056000Y0036129D02*
X0041068Y0036129D01*
X0041068Y0034193D02*
X0041068Y0056624D01*
X0053500Y0056624D01*
X0056000Y0054124D01*
X0056000Y0016624D01*
X0051000Y0011624D01*
X0021000Y0011624D01*
X0021000Y0039056D01*
X0029436Y0039056D01*
X0030409Y0038652D01*
X0031591Y0038652D01*
X0032683Y0039105D01*
X0033519Y0039941D01*
X0033972Y0041033D01*
X0033972Y0042215D01*
X0033519Y0043307D01*
X0032683Y0044143D01*
X0031591Y0044596D01*
X0030409Y0044596D01*
X0029436Y0044193D01*
X0021000Y0044193D01*
X0021000Y0054124D01*
X0023500Y0056624D01*
X0035931Y0056624D01*
X0035931Y0034193D01*
X0034783Y0033045D01*
X0034116Y0031433D01*
X0034116Y0029689D01*
X0034783Y0028078D01*
X0036017Y0026844D01*
X0036074Y0026820D01*
X0035992Y0026779D01*
X0035383Y0026336D01*
X0034851Y0025804D01*
X0034408Y0025195D01*
X0034066Y0024524D01*
X0033834Y0023807D01*
X0033716Y0023064D01*
X0033716Y0022687D01*
X0033716Y0022310D01*
X0033834Y0021567D01*
X0034066Y0020850D01*
X0034408Y0020180D01*
X0034851Y0019570D01*
X0035383Y0019038D01*
X0035992Y0018595D01*
X0036663Y0018253D01*
X0037380Y0018021D01*
X0038123Y0017903D01*
X0038500Y0017903D01*
X0038877Y0017903D01*
X0039620Y0018021D01*
X0040337Y0018253D01*
X0041007Y0018595D01*
X0041617Y0019038D01*
X0042149Y0019570D01*
X0042592Y0020180D01*
X0042934Y0020850D01*
X0043166Y0021567D01*
X0043284Y0022310D01*
X0043284Y0022687D01*
X0043284Y0023064D01*
X0043166Y0023807D01*
X0042934Y0024524D01*
X0042592Y0025195D01*
X0042149Y0025804D01*
X0041617Y0026336D01*
X0041007Y0026779D01*
X0040926Y0026820D01*
X0040983Y0026844D01*
X0042217Y0028078D01*
X0042884Y0029689D01*
X0042884Y0031433D01*
X0042217Y0033045D01*
X0041068Y0034193D01*
X0041099Y0034162D02*
X0056000Y0034162D01*
X0056000Y0032195D02*
X0042569Y0032195D01*
X0042884Y0030228D02*
X0056000Y0030228D01*
X0056000Y0028261D02*
X0042293Y0028261D01*
X0041659Y0026294D02*
X0056000Y0026294D01*
X0056000Y0024327D02*
X0042998Y0024327D01*
X0043284Y0022687D02*
X0038500Y0022687D01*
X0038500Y0017903D01*
X0038500Y0022687D01*
X0038500Y0022687D01*
X0038500Y0022687D01*
X0043284Y0022687D01*
X0043284Y0022360D02*
X0056000Y0022360D01*
X0056000Y0020393D02*
X0042701Y0020393D01*
X0040676Y0018426D02*
X0056000Y0018426D01*
X0055835Y0016459D02*
X0021000Y0016459D01*
X0021000Y0014492D02*
X0053868Y0014492D01*
X0051901Y0012525D02*
X0021000Y0012525D01*
X0021000Y0018426D02*
X0036324Y0018426D01*
X0034299Y0020393D02*
X0021000Y0020393D01*
X0021000Y0022360D02*
X0033716Y0022360D01*
X0033716Y0022687D02*
X0038500Y0022687D01*
X0038500Y0022687D01*
X0033716Y0022687D01*
X0034002Y0024327D02*
X0021000Y0024327D01*
X0021000Y0026294D02*
X0035341Y0026294D01*
X0034707Y0028261D02*
X0021000Y0028261D01*
X0021000Y0030228D02*
X0034116Y0030228D01*
X0034431Y0032195D02*
X0021000Y0032195D01*
X0021000Y0034162D02*
X0035901Y0034162D01*
X0035931Y0036129D02*
X0021000Y0036129D01*
X0021000Y0038096D02*
X0035931Y0038096D01*
X0035931Y0040063D02*
X0033570Y0040063D01*
X0033972Y0042030D02*
X0035931Y0042030D01*
X0035931Y0043997D02*
X0032829Y0043997D01*
X0031000Y0041624D02*
X0016000Y0041624D01*
X0011000Y0046624D01*
X0011000Y0122884D01*
X0013500Y0124124D01*
X0014740Y0124124D02*
X0011000Y0122884D01*
X0014740Y0124124D02*
X0018500Y0124124D01*
X0021000Y0126624D01*
X0021000Y0131624D01*
X0023500Y0134124D01*
X0033500Y0134124D01*
X0036000Y0131624D01*
X0036000Y0126624D01*
X0037398Y0125226D01*
X0044976Y0125226D01*
X0056000Y0125226D01*
X0087102Y0125226D01*
X0089955Y0124447D02*
X0089955Y0124447D01*
X0088880Y0118744D02*
X0097544Y0118744D01*
X0095577Y0116777D02*
X0090847Y0116777D01*
X0091000Y0114810D02*
X0093610Y0114810D01*
X0086000Y0114124D02*
X0086000Y0104124D01*
X0083500Y0099440D02*
X0083500Y0098808D01*
X0083007Y0098604D01*
X0081520Y0097117D01*
X0080716Y0095175D01*
X0080716Y0093073D01*
X0081520Y0091131D01*
X0083007Y0089644D01*
X0083431Y0089468D01*
X0083431Y0086624D01*
X0070346Y0086624D01*
X0070346Y0087667D01*
X0066000Y0087667D01*
X0066000Y0087667D01*
X0064957Y0086624D01*
X0063500Y0086624D01*
X0061000Y0084124D01*
X0045882Y0084124D01*
X0041000Y0084124D01*
X0037457Y0087667D01*
X0036000Y0087667D01*
X0036000Y0089124D02*
X0036000Y0091226D01*
X0036000Y0089124D01*
X0036000Y0089124D01*
X0036000Y0089239D02*
X0036000Y0089239D01*
X0036000Y0091206D02*
X0036000Y0091206D01*
X0036000Y0091226D02*
X0038500Y0091226D01*
X0038500Y0107278D01*
X0037457Y0107278D01*
X0037457Y0111624D01*
X0037457Y0111624D01*
X0037457Y0107278D01*
X0035621Y0107278D01*
X0035116Y0107413D01*
X0034664Y0107674D01*
X0034294Y0108043D01*
X0034033Y0108496D01*
X0033898Y0109001D01*
X0033898Y0111624D01*
X0037457Y0111624D01*
X0037457Y0111624D01*
X0030602Y0111624D01*
X0030602Y0109124D01*
X0027043Y0109124D01*
X0027043Y0109124D01*
X0027043Y0104778D01*
X0026000Y0104778D01*
X0026000Y0089124D01*
X0031654Y0089124D01*
X0031654Y0089503D01*
X0031789Y0090008D01*
X0032050Y0090460D01*
X0032419Y0090830D01*
X0032872Y0091091D01*
X0033377Y0091226D01*
X0036000Y0091226D01*
X0033299Y0091206D02*
X0026000Y0091206D01*
X0026000Y0093173D02*
X0038500Y0093173D01*
X0038500Y0095140D02*
X0026000Y0095140D01*
X0026000Y0097107D02*
X0038500Y0097107D01*
X0038500Y0099074D02*
X0026000Y0099074D01*
X0026000Y0101041D02*
X0038500Y0101041D01*
X0038500Y0103008D02*
X0026000Y0103008D01*
X0027043Y0104778D02*
X0028879Y0104778D01*
X0029384Y0104913D01*
X0029836Y0105174D01*
X0030206Y0105543D01*
X0030467Y0105996D01*
X0030602Y0106501D01*
X0030602Y0109124D01*
X0027043Y0109124D01*
X0027043Y0104778D01*
X0027043Y0104975D02*
X0027043Y0104975D01*
X0027043Y0106942D02*
X0027043Y0106942D01*
X0027043Y0108909D02*
X0027043Y0108909D01*
X0027043Y0109124D02*
X0027043Y0109124D01*
X0030602Y0108909D02*
X0033922Y0108909D01*
X0033898Y0110876D02*
X0030602Y0110876D01*
X0030602Y0106942D02*
X0038500Y0106942D01*
X0038500Y0104975D02*
X0029491Y0104975D01*
X0037457Y0108909D02*
X0037457Y0108909D01*
X0037457Y0110876D02*
X0037457Y0110876D01*
X0044543Y0111624D02*
X0044543Y0116624D01*
X0044543Y0124793D01*
X0044976Y0125226D01*
X0049710Y0120711D02*
X0103162Y0120711D01*
X0113529Y0104975D02*
X0122565Y0104975D01*
X0122565Y0103008D02*
X0113529Y0103008D01*
X0113529Y0101041D02*
X0122565Y0101041D01*
X0122565Y0099074D02*
X0113529Y0099074D01*
X0113529Y0097107D02*
X0122565Y0097107D01*
X0113602Y0077437D02*
X0111128Y0077437D01*
X0110413Y0075470D02*
X0113110Y0075470D01*
X0113596Y0073503D02*
X0091000Y0073503D01*
X0091000Y0071536D02*
X0101053Y0071536D01*
X0100912Y0069569D02*
X0091000Y0069569D01*
X0091000Y0067601D02*
X0100912Y0067601D01*
X0100912Y0065634D02*
X0091000Y0065634D01*
X0091000Y0063667D02*
X0100912Y0063667D01*
X0101419Y0061700D02*
X0091000Y0061700D01*
X0083500Y0066624D02*
X0056000Y0066624D01*
X0056000Y0077317D01*
X0056118Y0077317D01*
X0056118Y0079124D01*
X0056118Y0079124D01*
X0056118Y0077317D01*
X0058742Y0077317D01*
X0059246Y0077452D01*
X0059699Y0077713D01*
X0060068Y0078083D01*
X0060329Y0078535D01*
X0060465Y0079040D01*
X0060465Y0079124D01*
X0061654Y0079124D01*
X0061654Y0078745D01*
X0061789Y0078240D01*
X0062050Y0077788D01*
X0062419Y0077418D01*
X0062872Y0077157D01*
X0063377Y0077022D01*
X0066000Y0077022D01*
X0068623Y0077022D01*
X0069128Y0077157D01*
X0069581Y0077418D01*
X0069950Y0077788D01*
X0070211Y0078240D01*
X0070346Y0078745D01*
X0070346Y0079124D01*
X0083500Y0079124D01*
X0083500Y0066624D01*
X0083500Y0067601D02*
X0056000Y0067601D01*
X0056000Y0069569D02*
X0083500Y0069569D01*
X0083500Y0071536D02*
X0056000Y0071536D01*
X0056000Y0073503D02*
X0083500Y0073503D01*
X0083500Y0075470D02*
X0056000Y0075470D01*
X0056118Y0077437D02*
X0056118Y0077437D01*
X0056118Y0080384D02*
X0065803Y0080384D01*
X0066000Y0080581D01*
X0068756Y0077825D01*
X0086000Y0077825D01*
X0086000Y0094124D01*
X0083431Y0089239D02*
X0070346Y0089239D01*
X0070346Y0089503D02*
X0070211Y0090008D01*
X0069950Y0090460D01*
X0069581Y0090830D01*
X0069128Y0091091D01*
X0068623Y0091226D01*
X0066000Y0091226D01*
X0066000Y0087667D01*
X0070346Y0087667D01*
X0070346Y0089503D01*
X0070346Y0087272D02*
X0083431Y0087272D01*
X0081489Y0091206D02*
X0068701Y0091206D01*
X0067533Y0092871D02*
X0067903Y0093240D01*
X0068164Y0093693D01*
X0068299Y0094197D01*
X0068299Y0096624D01*
X0068299Y0099051D01*
X0068164Y0099555D01*
X0067903Y0100008D01*
X0067533Y0100377D01*
X0067081Y0100638D01*
X0066576Y0100774D01*
X0064347Y0100774D01*
X0064347Y0096624D01*
X0068299Y0096624D01*
X0064347Y0096624D01*
X0064347Y0096624D01*
X0064347Y0092474D01*
X0066576Y0092474D01*
X0067081Y0092610D01*
X0067533Y0092871D01*
X0067835Y0093173D02*
X0080716Y0093173D01*
X0080716Y0095140D02*
X0068299Y0095140D01*
X0068299Y0097107D02*
X0081516Y0097107D01*
X0083500Y0099074D02*
X0068293Y0099074D01*
X0064347Y0099074D02*
X0064346Y0099074D01*
X0064346Y0100774D02*
X0064346Y0096624D01*
X0064347Y0096624D01*
X0064346Y0096624D01*
X0064346Y0092474D01*
X0063500Y0092474D01*
X0063500Y0091226D01*
X0066000Y0091226D01*
X0066000Y0087667D01*
X0066000Y0087667D01*
X0066000Y0089239D02*
X0066000Y0089239D01*
X0066000Y0091206D02*
X0066000Y0091206D01*
X0064346Y0093173D02*
X0064347Y0093173D01*
X0064346Y0095140D02*
X0064347Y0095140D01*
X0064346Y0097107D02*
X0064347Y0097107D01*
X0064346Y0100774D02*
X0063500Y0100774D01*
X0063500Y0111624D01*
X0083431Y0111624D01*
X0083431Y0108780D01*
X0083007Y0108604D01*
X0081520Y0107117D01*
X0080716Y0105175D01*
X0080716Y0103073D01*
X0081520Y0101131D01*
X0083007Y0099644D01*
X0083500Y0099440D01*
X0081610Y0101041D02*
X0063500Y0101041D01*
X0063500Y0103008D02*
X0080743Y0103008D01*
X0080716Y0104975D02*
X0063500Y0104975D01*
X0063500Y0106942D02*
X0081448Y0106942D01*
X0083431Y0108909D02*
X0063500Y0108909D01*
X0063500Y0110876D02*
X0083431Y0110876D01*
X0086000Y0114124D02*
X0083500Y0116624D01*
X0061000Y0116624D01*
X0058500Y0114124D01*
X0058500Y0106624D01*
X0054937Y0103061D01*
X0046000Y0103061D01*
X0046000Y0095187D02*
X0045882Y0095069D01*
X0045882Y0087864D01*
X0045882Y0080384D02*
X0036197Y0080384D01*
X0024740Y0080384D01*
X0021000Y0084124D01*
X0021000Y0108081D01*
X0019957Y0109124D01*
X0019957Y0120581D01*
X0023500Y0124124D01*
X0025921Y0124124D01*
X0027024Y0125226D01*
X0022396Y0136447D02*
X0018500Y0136447D01*
X0018500Y0134480D02*
X0020224Y0134480D01*
X0018588Y0132513D02*
X0018500Y0132513D01*
X0018500Y0138414D02*
X0047214Y0138414D01*
X0047599Y0138799D02*
X0047599Y0138799D01*
X0046325Y0136447D02*
X0034604Y0136447D01*
X0035677Y0135579D02*
X0035677Y0135579D01*
X0036776Y0134480D02*
X0045528Y0134480D01*
X0040967Y0132513D02*
X0038412Y0132513D01*
X0038568Y0130546D02*
X0040243Y0130546D01*
X0040243Y0128579D02*
X0038568Y0128579D01*
X0035016Y0139305D02*
X0035016Y0152510D01*
X0022598Y0152510D01*
X0022598Y0141028D01*
X0022734Y0140523D01*
X0022995Y0140071D01*
X0023364Y0139702D01*
X0023817Y0139440D01*
X0024321Y0139305D01*
X0035016Y0139305D01*
X0035016Y0140381D02*
X0036984Y0140381D01*
X0036984Y0142348D02*
X0035016Y0142348D01*
X0035016Y0144315D02*
X0036984Y0144315D01*
X0036984Y0146282D02*
X0035016Y0146282D01*
X0035016Y0148249D02*
X0036984Y0148249D01*
X0036984Y0150216D02*
X0035016Y0150216D01*
X0035016Y0152183D02*
X0036984Y0152183D01*
X0036984Y0154150D02*
X0053028Y0154150D01*
X0053738Y0152183D02*
X0049402Y0152183D01*
X0049402Y0150216D02*
X0053825Y0150216D01*
X0053825Y0148249D02*
X0049402Y0148249D01*
X0049402Y0146282D02*
X0053825Y0146282D01*
X0053825Y0144315D02*
X0049402Y0144315D01*
X0049402Y0142348D02*
X0053825Y0142348D01*
X0061000Y0146624D02*
X0061000Y0156624D01*
X0060795Y0160051D02*
X0049402Y0160051D01*
X0049402Y0158084D02*
X0058828Y0158084D01*
X0058431Y0156117D02*
X0058209Y0156117D01*
X0053791Y0156117D02*
X0049402Y0156117D01*
X0049402Y0165952D02*
X0066090Y0165952D01*
X0065335Y0167919D02*
X0027008Y0167919D01*
X0029630Y0169886D02*
X0065335Y0169886D01*
X0065335Y0171853D02*
X0039730Y0171853D01*
X0038500Y0174124D02*
X0041000Y0176624D01*
X0041000Y0181624D01*
X0043500Y0186624D01*
X0113500Y0186624D01*
X0116502Y0191523D02*
X0105498Y0191523D01*
X0105498Y0191480D02*
X0105498Y0197516D01*
X0104570Y0198444D01*
X0090659Y0198444D01*
X0089731Y0197516D01*
X0089731Y0191480D01*
X0090659Y0190552D01*
X0104570Y0190552D01*
X0105498Y0191480D01*
X0105498Y0193490D02*
X0116502Y0193490D01*
X0116502Y0195457D02*
X0105498Y0195457D01*
X0105498Y0197424D02*
X0116502Y0197424D01*
X0124386Y0194498D02*
X0126000Y0192884D01*
X0124583Y0181688D02*
X0124189Y0181688D01*
X0124189Y0179721D02*
X0124583Y0179721D01*
X0124583Y0177754D02*
X0124189Y0177754D01*
X0124189Y0175787D02*
X0124583Y0175787D01*
X0122336Y0173074D02*
X0121884Y0173335D01*
X0121379Y0173470D01*
X0119543Y0173470D01*
X0119543Y0169124D01*
X0119543Y0169124D01*
X0119543Y0164778D01*
X0121379Y0164778D01*
X0121884Y0164913D01*
X0122336Y0165174D01*
X0122706Y0165543D01*
X0122967Y0165996D01*
X0123102Y0166501D01*
X0123102Y0169124D01*
X0119543Y0169124D01*
X0123102Y0169124D01*
X0123102Y0171747D01*
X0122967Y0172252D01*
X0122706Y0172705D01*
X0122336Y0173074D01*
X0123074Y0171853D02*
X0133500Y0171853D01*
X0133500Y0169886D02*
X0123102Y0169886D01*
X0123102Y0167919D02*
X0133500Y0167919D01*
X0133500Y0165952D02*
X0122942Y0165952D01*
X0119543Y0165952D02*
X0119543Y0165952D01*
X0119543Y0167919D02*
X0119543Y0167919D01*
X0119543Y0169124D02*
X0119543Y0169124D01*
X0119543Y0169886D02*
X0119543Y0169886D01*
X0119543Y0171853D02*
X0119543Y0171853D01*
X0116013Y0171853D02*
X0115616Y0171853D01*
X0103825Y0146282D02*
X0101904Y0146282D01*
X0089731Y0191523D02*
X0088972Y0191523D01*
X0088336Y0193490D02*
X0089731Y0193490D01*
X0089731Y0195457D02*
X0062269Y0195457D01*
X0062269Y0193490D02*
X0083664Y0193490D01*
X0082824Y0191523D02*
X0062269Y0191523D01*
X0062269Y0197424D02*
X0089731Y0197424D01*
X0073500Y0179124D02*
X0073500Y0171860D01*
X0071656Y0165952D02*
X0070910Y0165952D01*
X0068500Y0165952D02*
X0068500Y0165952D01*
X0068500Y0165545D02*
X0068500Y0171860D01*
X0068500Y0171860D01*
X0068500Y0165545D01*
X0068500Y0167919D02*
X0068500Y0167919D01*
X0068500Y0169886D02*
X0068500Y0169886D01*
X0068500Y0171853D02*
X0068500Y0171853D01*
X0068500Y0171860D02*
X0065335Y0171860D01*
X0068500Y0171860D01*
X0068500Y0171860D01*
X0068500Y0178175D01*
X0068500Y0171860D01*
X0068500Y0171860D01*
X0068500Y0173820D02*
X0068500Y0173820D01*
X0068500Y0175787D02*
X0068500Y0175787D01*
X0068500Y0177754D02*
X0068500Y0177754D01*
X0068500Y0178175D02*
X0069942Y0178175D01*
X0070289Y0178082D01*
X0070135Y0178455D01*
X0070135Y0179793D01*
X0070647Y0181030D01*
X0071566Y0181949D01*
X0069401Y0181949D01*
X0066472Y0179020D01*
X0066472Y0178533D01*
X0066178Y0177823D01*
X0066553Y0178040D01*
X0067058Y0178175D01*
X0068500Y0178175D01*
X0067173Y0179721D02*
X0070135Y0179721D01*
X0069140Y0181688D02*
X0071305Y0181688D01*
X0064956Y0183655D02*
X0044887Y0183655D01*
X0043904Y0181688D02*
X0046502Y0181688D01*
X0046502Y0179721D02*
X0043568Y0179721D01*
X0043568Y0177754D02*
X0046502Y0177754D01*
X0046502Y0175787D02*
X0043434Y0175787D01*
X0041829Y0173820D02*
X0065335Y0173820D01*
X0065335Y0175787D02*
X0062269Y0175787D01*
X0046502Y0191523D02*
X0035804Y0191523D01*
X0035898Y0193490D02*
X0046502Y0193490D01*
X0046502Y0195457D02*
X0035898Y0195457D01*
X0035898Y0194695D02*
X0035898Y0197121D01*
X0035762Y0197626D01*
X0035501Y0198079D01*
X0035132Y0198448D01*
X0034679Y0198709D01*
X0034175Y0198844D01*
X0027811Y0198844D01*
X0027811Y0194695D01*
X0035898Y0194695D01*
X0035816Y0197424D02*
X0046502Y0197424D01*
X0038500Y0174124D02*
X0031000Y0174124D01*
X0021000Y0166624D01*
X0021000Y0156624D01*
X0018500Y0154124D01*
X0011000Y0154124D01*
X0018500Y0150216D02*
X0022598Y0150216D01*
X0022598Y0148249D02*
X0018614Y0148249D01*
X0019976Y0146282D02*
X0022598Y0146282D01*
X0022598Y0144315D02*
X0020384Y0144315D01*
X0020100Y0142348D02*
X0022598Y0142348D01*
X0022816Y0140381D02*
X0018996Y0140381D01*
X0020192Y0152183D02*
X0022598Y0152183D01*
X0022159Y0154150D02*
X0035016Y0154150D01*
X0035016Y0156117D02*
X0036984Y0156117D01*
X0036984Y0158084D02*
X0035016Y0158084D01*
X0035016Y0160051D02*
X0036984Y0160051D01*
X0036984Y0162018D02*
X0035016Y0162018D01*
X0035016Y0163985D02*
X0036984Y0163985D01*
X0036984Y0165952D02*
X0035016Y0165952D01*
X0023500Y0184124D02*
X0011000Y0184124D01*
X0011000Y0174124D02*
X0016000Y0174124D01*
X0021000Y0171624D01*
X0027614Y0194498D02*
X0027988Y0196624D01*
X0023500Y0196624D01*
X0027417Y0197424D02*
X0027811Y0197424D01*
X0027811Y0195457D02*
X0027417Y0195457D01*
X0057654Y0096624D02*
X0056118Y0095089D01*
X0056118Y0087864D01*
X0059188Y0077437D02*
X0062401Y0077437D01*
X0066000Y0077437D02*
X0066000Y0077437D01*
X0066000Y0077022D02*
X0066000Y0079124D01*
X0066000Y0079124D01*
X0066000Y0077022D01*
X0069599Y0077437D02*
X0083500Y0077437D01*
X0086000Y0077825D02*
X0105000Y0077825D01*
X0098872Y0081371D02*
X0091000Y0081371D01*
X0091000Y0083338D02*
X0098872Y0083338D01*
X0098872Y0085305D02*
X0091000Y0085305D01*
X0091000Y0087272D02*
X0098872Y0087272D01*
X0098472Y0089239D02*
X0091000Y0089239D01*
X0091000Y0091206D02*
X0098472Y0091206D01*
X0099546Y0093173D02*
X0091284Y0093173D01*
X0105000Y0093173D02*
X0105000Y0093173D01*
X0105000Y0093392D02*
X0105000Y0090423D01*
X0105000Y0090423D01*
X0105000Y0093392D01*
X0105000Y0091206D02*
X0105000Y0091206D01*
X0056000Y0053832D02*
X0041068Y0053832D01*
X0041068Y0051865D02*
X0056000Y0051865D01*
X0056000Y0049898D02*
X0041068Y0049898D01*
X0041068Y0047931D02*
X0056000Y0047931D01*
X0056000Y0045964D02*
X0041068Y0045964D01*
X0041068Y0043997D02*
X0056000Y0043997D01*
X0056000Y0042030D02*
X0041068Y0042030D01*
X0041068Y0040063D02*
X0056000Y0040063D01*
X0056000Y0038096D02*
X0041068Y0038096D01*
X0038500Y0030561D02*
X0038500Y0069124D01*
X0038623Y0077022D02*
X0036000Y0077022D01*
X0036000Y0079124D01*
X0036000Y0079124D01*
X0036000Y0077022D01*
X0033377Y0077022D01*
X0032872Y0077157D01*
X0032419Y0077418D01*
X0032050Y0077788D01*
X0031789Y0078240D01*
X0031654Y0078745D01*
X0031654Y0079124D01*
X0026000Y0079124D01*
X0026000Y0066624D01*
X0046000Y0066624D01*
X0046000Y0077317D01*
X0045882Y0077317D01*
X0045882Y0079124D01*
X0045882Y0079124D01*
X0045882Y0077317D01*
X0043258Y0077317D01*
X0042754Y0077452D01*
X0042301Y0077713D01*
X0041932Y0078083D01*
X0041671Y0078535D01*
X0041535Y0079040D01*
X0041535Y0079124D01*
X0040346Y0079124D01*
X0040346Y0078745D01*
X0040211Y0078240D01*
X0039950Y0077788D01*
X0039581Y0077418D01*
X0039128Y0077157D01*
X0038623Y0077022D01*
X0039599Y0077437D02*
X0042812Y0077437D01*
X0045882Y0077437D02*
X0045882Y0077437D01*
X0046000Y0075470D02*
X0026000Y0075470D01*
X0026000Y0077437D02*
X0032401Y0077437D01*
X0036000Y0077437D02*
X0036000Y0077437D01*
X0036197Y0080384D02*
X0036000Y0080581D01*
X0031654Y0089239D02*
X0026000Y0089239D01*
X0026000Y0073503D02*
X0046000Y0073503D01*
X0046000Y0071536D02*
X0026000Y0071536D01*
X0026000Y0069569D02*
X0046000Y0069569D01*
X0046000Y0067601D02*
X0026000Y0067601D01*
X0022675Y0055799D02*
X0035931Y0055799D01*
X0035931Y0053832D02*
X0021000Y0053832D01*
X0021000Y0051865D02*
X0035931Y0051865D01*
X0035931Y0049898D02*
X0021000Y0049898D01*
X0021000Y0047931D02*
X0035931Y0047931D01*
X0035931Y0045964D02*
X0021000Y0045964D01*
X0038500Y0022360D02*
X0038500Y0022360D01*
X0038500Y0020393D02*
X0038500Y0020393D01*
X0038500Y0018426D02*
X0038500Y0018426D01*
X0041068Y0055799D02*
X0054325Y0055799D01*
D30*
X0044543Y0116624D02*
X0038500Y0116624D01*
X0048500Y0134124D02*
X0048500Y0136624D01*
X0051000Y0139124D01*
X0054740Y0139124D01*
X0056000Y0137864D01*
X0056000Y0154124D01*
X0056000Y0130384D02*
X0056000Y0125226D01*
X0028500Y0144124D02*
X0011000Y0144124D01*
X0011000Y0134124D02*
X0011000Y0130364D01*
X0027614Y0178750D02*
X0031000Y0179636D01*
X0031000Y0189124D01*
X0083500Y0189124D01*
X0086000Y0191624D01*
X0083500Y0184124D02*
X0068500Y0184124D01*
X0063500Y0179124D01*
X0083500Y0184124D02*
X0086000Y0181624D01*
X0088500Y0181624D01*
X0086000Y0181624D02*
X0083500Y0171860D01*
X0101000Y0156624D02*
X0106000Y0151624D01*
X0106000Y0121624D01*
X0111000Y0116624D02*
X0111000Y0164124D01*
X0103500Y0171624D01*
X0098500Y0116624D02*
X0111000Y0116624D01*
X0098500Y0116624D02*
X0093500Y0111624D01*
X0091000Y0111624D01*
X0031000Y0189124D02*
X0021000Y0189124D01*
X0011000Y0194124D01*
D31*
X0023500Y0196624D03*
X0023500Y0184124D03*
X0021000Y0171624D03*
X0028500Y0161624D03*
X0028500Y0154124D03*
X0028500Y0149124D03*
X0028500Y0144124D03*
X0033500Y0144124D03*
X0033500Y0149124D03*
X0033500Y0154124D03*
X0031000Y0169124D03*
X0048500Y0134124D03*
X0038500Y0116624D03*
X0033500Y0101624D03*
X0033500Y0096624D03*
X0028500Y0096624D03*
X0028500Y0101624D03*
X0011000Y0134124D03*
X0056000Y0154124D03*
X0058500Y0171624D03*
X0063500Y0179124D03*
X0068500Y0179124D03*
X0066000Y0194124D03*
X0071000Y0194124D03*
X0076000Y0194124D03*
X0086000Y0191624D03*
X0088500Y0181624D03*
X0091000Y0174124D03*
X0101000Y0156624D03*
X0101000Y0149124D03*
X0098500Y0141624D03*
X0106000Y0121624D03*
X0116000Y0104124D03*
X0091000Y0111624D03*
X0091000Y0089124D03*
X0091000Y0084124D03*
X0076000Y0094124D03*
X0076000Y0099124D03*
X0076000Y0104124D03*
X0076000Y0109124D03*
X0071000Y0109124D03*
X0071000Y0104124D03*
X0071000Y0099124D03*
X0071000Y0094124D03*
X0066000Y0104124D03*
X0066000Y0109124D03*
X0051000Y0051624D03*
X0031000Y0041624D03*
X0023500Y0031624D03*
X0023500Y0026624D03*
X0023500Y0051624D03*
X0051000Y0016624D03*
X0071000Y0036624D03*
X0076000Y0034124D03*
X0086000Y0021624D03*
X0108500Y0034124D03*
X0123500Y0031624D03*
X0123500Y0026624D03*
X0123500Y0021624D03*
X0128500Y0021624D03*
X0128500Y0026624D03*
X0128500Y0031624D03*
X0128500Y0036624D03*
X0123500Y0036624D03*
X0126000Y0146624D03*
X0103500Y0171624D03*
X0128500Y0189124D03*
M02*
